G04 ================== begin FILE IDENTIFICATION RECORD ==================*
G04 Layout Name:  IMC-IO_A-IN_A1.brd*
G04 Film Name:    all*
G04 File Format:  Gerber RS274X*
G04 File Origin:  Cadence Allegro 16.6-2015-S082*
G04 Origin Date:  Sat Apr 13 15:25:42 2019*
G04 *
G04 Layer:  PIN/TOP*
G04 Layer:  PIN/BOTTOM*
G04 Layer:  PACKAGE GEOMETRY/SILKSCREEN_TOP*
G04 Layer:  BOARD GEOMETRY/SILKSCREEN_TOP*
G04 Layer:  PACKAGE GEOMETRY/SILKSCREEN_BOTTOM*
G04 Layer:  BOARD GEOMETRY/SILKSCREEN_BOTTOM*
G04 Layer:  BOARD GEOMETRY/OUTLINE*
G04 *
G04 Offset:    (0.000 0.000)*
G04 Mirror:    No*
G04 Mode:      Positive*
G04 Rotation:  0*
G04 FullContactRelief:  No*
G04 UndefLineWidth:     6.000*
G04 ================== end FILE IDENTIFICATION RECORD ====================*
%FSLAX25Y25*MOIN*%
%IR0*IPPOS*OFA0.00000B0.00000*MIA0B0*SFA1.00000B1.00000*%
%ADD38R,.11X.06*%
%ADD50R,.06X.11*%
%ADD39R,.062988X.019681*%
%ADD49R,.17X.08*%
%ADD16C,.2*%
%ADD11R,.07087X.122051*%
%ADD47O,.07874X.15748*%
%ADD46R,.118098X.098402*%
%ADD40R,.14X.1*%
%ADD36R,.04X.03*%
%ADD35R,.03X.04*%
%ADD23R,.04X.03*%
%ADD42R,.08X.08*%
%ADD13C,.04*%
%ADD24C,.05*%
%ADD44R,.045X.055*%
%ADD22R,.044X.048*%
%ADD18R,.019X.046*%
%ADD37R,.055X.065*%
%ADD43C,.063*%
%ADD10C,.064*%
%ADD25C,.065*%
%ADD31C,.075*%
%ADD20R,.020079X.025201*%
%ADD14C,.068*%
%ADD33R,.051181X.043311*%
%ADD21R,.025201X.020079*%
%ADD19R,.035X.035*%
%ADD30R,.065X.065*%
%ADD17R,.07087X.0315*%
%ADD32R,.075X.075*%
%ADD15R,.068X.068*%
%ADD28C,.03937*%
%ADD26R,.011811X.059059*%
%ADD27R,.059059X.011811*%
%ADD12R,.078701X.039402*%
%ADD41R,.137799X.11811*%
%ADD34R,.011811X.062988*%
%ADD29R,.062988X.011811*%
%ADD45R,.017701X.084598*%
%ADD48R,.084598X.017701*%
%ADD51C,.003*%
%ADD52C,.005*%
%ADD53C,.006*%
%ADD54C,.008*%
%ADD55C,.003902*%
%ADD56C,.0079*%
%ADD57C,.007902*%
%ADD58C,.005906*%
%ADD59C,.00787*%
%ADD60C,.009843*%
%ADD61C,.005984*%
%ADD62C,.009839*%
%ADD63C,.01*%
%ADD64C,.012*%
%ADD65C,.019681*%
G75*
%LPD*%
G75*
G36*
G01X10410Y199500D02*
G03I-1410J0D01*
G37*
G36*
G01X64884Y380500D02*
X67384Y378000D01*
Y383000D01*
X64884Y380500D01*
G37*
G36*
G01X79701Y108850D02*
G03I-551J0D01*
G37*
G36*
G01X81701Y200850D02*
G03I-551J0D01*
G37*
G36*
G01X115150Y95150D02*
G03I-551J0D01*
G37*
G36*
G01X295505Y163798D02*
G02I0J13806D01*
G37*
%LPC*%
G75*
G36*
G01X292292Y177932D02*
X288558D01*
Y182674D01*
X292292D01*
X292689Y182646D01*
X293158Y182531D01*
X293575Y182325D01*
X293944Y182027D01*
X294194Y181697D01*
X294373Y181288D01*
X294480Y180800D01*
X294516Y180232D01*
X294484Y179751D01*
X294365Y179278D01*
X294159Y178865D01*
X293872Y178508D01*
X293678Y178337D01*
X293281Y178111D01*
X292820Y177976D01*
X292292Y177932D01*
G37*
G36*
G01X301697Y172904D02*
X301463Y172915D01*
X301002Y173019D01*
X300577Y173234D01*
X300192Y173547D01*
X300152Y173587D01*
X299854Y173964D01*
X299643Y174381D01*
X299516Y174842D01*
X299473Y175346D01*
Y176240D01*
X299516Y176772D01*
X299639Y177245D01*
X299838Y177654D01*
X300120Y178004D01*
X300394Y178246D01*
X300807Y178512D01*
X301240Y178670D01*
X301697Y178722D01*
X301701D01*
X302166Y178659D01*
X302594Y178464D01*
X302992Y178146D01*
X303059Y178075D01*
X303294Y177753D01*
X303476Y177360D01*
X303603Y176899D01*
X303683Y176371D01*
X303711Y175775D01*
X303707Y175596D01*
X303663Y175048D01*
X303560Y174552D01*
X303401Y174115D01*
X303190Y173730D01*
X302920Y173404D01*
X302610Y173158D01*
X302182Y172967D01*
X301697Y172904D01*
G37*
G36*
G01X292849Y176576D02*
X288558Y172285D01*
Y176566D01*
X292649D01*
X292849Y176576D01*
G37*
G36*
G01X288026Y171752D02*
X286595Y170321D01*
G02X302787Y186513I8910J7282D01*
G01X299473Y183199D01*
Y184037D01*
X298035D01*
Y181761D01*
X296228Y179954D01*
X296240Y180232D01*
Y180410D01*
X296196Y180946D01*
X296105Y181443D01*
X295962Y181900D01*
X295771Y182316D01*
X295529Y182694D01*
X295235Y183032D01*
X294917Y183314D01*
X294528Y183576D01*
X294111Y183778D01*
X293654Y183921D01*
X293170Y184009D01*
X292649Y184037D01*
X286906D01*
Y171752D01*
X288026D01*
G37*
G36*
G01X299473Y179502D02*
X304611Y184639D01*
G02X288469Y168498I-9106J-7036D01*
G01X298035Y178064D01*
Y171752D01*
X299473D01*
Y172761D01*
X299616Y172534D01*
X299913Y172201D01*
X300271Y171942D01*
X300684Y171756D01*
X301161Y171644D01*
X301697Y171609D01*
X301995Y171621D01*
X302499Y171684D01*
X302964Y171808D01*
X303393Y171990D01*
X303786Y172236D01*
X304139Y172542D01*
X304231Y172637D01*
X304509Y172979D01*
X304747Y173356D01*
X304942Y173769D01*
X305093Y174218D01*
X305204Y174703D01*
X305267Y175223D01*
X305287Y175775D01*
X305284Y176021D01*
X305248Y176570D01*
X305164Y177078D01*
X305045Y177550D01*
X304882Y177987D01*
X304676Y178389D01*
X304430Y178754D01*
X304139Y179080D01*
X303992Y179219D01*
X303615Y179505D01*
X303206Y179727D01*
X302761Y179886D01*
X302285Y179981D01*
X301768Y180013D01*
X301502Y180005D01*
X301042Y179926D01*
X300609Y179771D01*
X300200Y179544D01*
X299822Y179242D01*
X299473Y178865D01*
Y179502D01*
G37*
%LPD*%
G75*
G54D10*
X12913Y92532D03*
D03*
Y102532D03*
D03*
Y122532D03*
D03*
Y112532D03*
D03*
Y132532D03*
D03*
X22913Y92532D03*
D03*
Y102532D03*
D03*
Y122532D03*
D03*
Y112532D03*
D03*
Y132532D03*
D03*
G54D20*
X45374Y55000D03*
Y51000D03*
X50374Y55000D03*
Y51000D03*
X52000Y156500D03*
Y160500D03*
X55374Y55000D03*
Y51000D03*
X60374Y55000D03*
Y51000D03*
X70374D03*
Y55000D03*
X65374Y51000D03*
Y55000D03*
X71874Y100000D03*
Y104000D03*
X66874Y227000D03*
Y231000D03*
Y257500D03*
Y253500D03*
Y300500D03*
Y304500D03*
Y327500D03*
Y331500D03*
X80374Y51000D03*
Y55000D03*
X75374Y51000D03*
Y55000D03*
X73874Y192000D03*
Y196000D03*
X97874Y100000D03*
Y104000D03*
X112374Y196000D03*
Y192000D03*
X107374D03*
Y196000D03*
X97874D03*
Y192000D03*
X102374Y196000D03*
Y192000D03*
X110374Y227000D03*
Y231000D03*
Y257500D03*
Y253500D03*
Y303000D03*
Y307000D03*
Y327500D03*
Y331500D03*
X121874Y104000D03*
Y100000D03*
X124374Y196000D03*
Y192000D03*
X116374Y196000D03*
Y192000D03*
X120374Y196000D03*
Y192000D03*
X128374Y196000D03*
Y192000D03*
X132374Y196000D03*
Y192000D03*
X136374Y196000D03*
Y192000D03*
X172500Y100500D03*
Y96500D03*
X170000Y145500D03*
Y141500D03*
X188500Y96500D03*
Y100500D03*
X180500D03*
Y96500D03*
X184500Y100500D03*
Y96500D03*
X176500Y100500D03*
Y96500D03*
X184500Y141500D03*
Y145500D03*
X180500Y141500D03*
Y145500D03*
X188500Y141500D03*
Y145500D03*
X174000D03*
Y141500D03*
X230000Y352000D03*
Y356000D03*
X252000Y300000D03*
Y304000D03*
X248000Y300000D03*
Y304000D03*
X252000Y326000D03*
Y330000D03*
X248000Y356000D03*
Y352000D03*
X236000Y356000D03*
Y352000D03*
X242000Y356000D03*
Y352000D03*
X261000Y146000D03*
X265500D03*
X270000D03*
X256500D03*
X261000Y150000D03*
X265500D03*
X270000D03*
X256500D03*
X270000Y205000D03*
X265500D03*
X261000D03*
X256500D03*
X270000Y209000D03*
X265500D03*
X261000D03*
X256500D03*
X256000Y304000D03*
Y300000D03*
Y326000D03*
Y330000D03*
X274500Y146000D03*
Y150000D03*
Y205000D03*
Y209000D03*
X290000Y352000D03*
Y356000D03*
X312000Y300000D03*
Y304000D03*
X308000Y300000D03*
Y304000D03*
X312000Y326000D03*
Y330000D03*
X308000Y356000D03*
Y352000D03*
X296000Y356000D03*
Y352000D03*
X302000Y356000D03*
Y352000D03*
X316000Y304000D03*
Y300000D03*
Y326000D03*
Y330000D03*
X351500Y146000D03*
X347000D03*
X342500D03*
X338000D03*
X351500Y150000D03*
X347000D03*
X342500D03*
X338000D03*
X352000Y205500D03*
X343000D03*
X347500D03*
X338500D03*
X352000Y209500D03*
X343000D03*
X347500D03*
X338500D03*
X350000Y352000D03*
Y356000D03*
X356000Y146000D03*
Y150000D03*
X356500Y205500D03*
Y209500D03*
X374000Y300000D03*
Y304000D03*
X370000Y300000D03*
Y304000D03*
X372000Y326000D03*
Y330000D03*
X368000Y356000D03*
Y352000D03*
X356000Y356000D03*
Y352000D03*
X362000Y356000D03*
Y352000D03*
X382000Y300000D03*
Y304000D03*
X386000D03*
Y300000D03*
X378000Y304000D03*
Y300000D03*
X376000Y326000D03*
Y330000D03*
G54D11*
X10669Y180000D03*
G54D12*
X11460Y204000D03*
X42960D03*
G54D30*
X57384Y380500D03*
D03*
X136384D03*
D03*
G54D21*
X47500Y97500D03*
X43500D03*
X47500Y105500D03*
X43500D03*
X47500Y114500D03*
X43500D03*
X47500Y119000D03*
X43500D03*
X48000Y137000D03*
X52000D03*
Y172500D03*
X48000D03*
X51874Y186000D03*
X47874D03*
X73374Y212000D03*
X73384Y271995D03*
Y285995D03*
Y345995D03*
X77374Y212000D03*
X90384Y235995D03*
X86384D03*
X90384Y239995D03*
X86384D03*
X90384Y243995D03*
X86384D03*
X90384Y251995D03*
X86384D03*
X90384Y263995D03*
X86384D03*
X90384Y259995D03*
X86384D03*
X90384Y247995D03*
X86384D03*
X90384Y255995D03*
X86384D03*
X90384Y267995D03*
X86384D03*
X77384Y271995D03*
Y285995D03*
X90384D03*
X86384D03*
X90384Y301995D03*
X86384D03*
X90384Y297995D03*
X86384D03*
X90384Y293995D03*
X86384D03*
X90384Y289995D03*
X86384D03*
X90384Y305995D03*
X86384D03*
X90384Y325995D03*
X86384D03*
X90384Y321995D03*
X86384D03*
X90384Y317995D03*
X86384D03*
X90384Y313995D03*
X86384D03*
X90384Y309995D03*
X86384D03*
X90384Y345995D03*
X86384D03*
X90384Y341995D03*
X86384D03*
X90384Y337995D03*
X86384D03*
X90384Y333995D03*
X86384D03*
X90384Y329995D03*
X86384D03*
X77384Y345995D03*
X97000Y66000D03*
X101000D03*
X97000Y61500D03*
X101000D03*
X97374Y212000D03*
X101374D03*
X97384Y285995D03*
X101384D03*
X97384Y271995D03*
X101384D03*
X97384Y345995D03*
X101384D03*
X124500Y61500D03*
X128500D03*
X124500Y66000D03*
X128500D03*
X152500Y66500D03*
Y62000D03*
X143874Y123000D03*
X139874D03*
X143874Y119000D03*
X139874D03*
X143874Y115000D03*
X139874D03*
X143874Y127000D03*
X139874D03*
X143874Y139000D03*
X139874D03*
X143874Y131000D03*
X139874D03*
X143874Y147000D03*
X139874D03*
X143874Y143000D03*
X139874D03*
X143874Y135000D03*
X139874D03*
X143874Y155000D03*
X139874D03*
X143874Y167000D03*
X139874D03*
X143874Y163000D03*
X139874D03*
X143874Y159000D03*
X139874D03*
X143874Y151000D03*
X139874D03*
X143874Y179000D03*
X139874D03*
X143874Y175000D03*
X139874D03*
X143874Y171000D03*
X139874D03*
X143874Y187000D03*
X139874D03*
X143874Y183000D03*
X139874D03*
X156500Y66500D03*
Y62000D03*
X180000Y66500D03*
X184000D03*
X180000Y62000D03*
X184000D03*
X186500Y166000D03*
X182500D03*
Y170500D03*
X186500D03*
X228000Y116500D03*
X232000D03*
Y112000D03*
X228000D03*
X232000Y121000D03*
X228000D03*
Y125500D03*
X232000D03*
X228000Y134500D03*
X232000D03*
X228000Y143500D03*
X232000D03*
X228000Y139000D03*
X232000D03*
X228000Y130000D03*
X232000D03*
Y171000D03*
X228000D03*
Y175500D03*
X232000D03*
X228000Y184500D03*
X232000D03*
Y180000D03*
X228000D03*
Y193500D03*
X232000D03*
X228000Y202500D03*
X232000D03*
X228000Y198000D03*
X232000D03*
X228000Y189000D03*
X232000D03*
X240000Y264000D03*
X236000D03*
X240000Y270000D03*
X236000D03*
X288000Y123000D03*
X284000D03*
Y136500D03*
X288000D03*
X284000Y132000D03*
X288000D03*
X284000Y141000D03*
X288000D03*
Y127500D03*
X284000D03*
X288000Y186500D03*
X284000D03*
X288000Y182000D03*
X284000D03*
Y191000D03*
X288000D03*
X284000Y200000D03*
X288000D03*
X284000Y195500D03*
X288000D03*
X309500Y116500D03*
X313500D03*
Y112000D03*
X309500D03*
X313500Y121000D03*
X309500D03*
Y125500D03*
X313500D03*
X309500Y143500D03*
X313500D03*
X309500Y134500D03*
X313500D03*
X309500Y139000D03*
X313500D03*
X309500Y130000D03*
X313500D03*
X310000Y176000D03*
X314000D03*
Y171500D03*
X310000D03*
X314000Y180500D03*
X310000D03*
Y185000D03*
X314000D03*
X310000Y194000D03*
X314000D03*
X310000Y203000D03*
X314000D03*
X310000Y198500D03*
X314000D03*
X310000Y189500D03*
X314000D03*
X300000Y258000D03*
X296000D03*
X300000Y264000D03*
X296000D03*
X369500Y123000D03*
X365500D03*
Y136500D03*
X369500D03*
X365500Y141000D03*
X369500D03*
X365500Y132000D03*
X369500D03*
Y127500D03*
X365500D03*
X370000Y187000D03*
X366000D03*
X370000Y182500D03*
X366000D03*
Y200500D03*
X370000D03*
X366000Y191500D03*
X370000D03*
X366000Y196000D03*
X370000D03*
X360000Y256000D03*
X356000D03*
X360000Y260000D03*
X356000D03*
G54D31*
X92256Y46280D03*
D03*
X106035D03*
D03*
Y32500D03*
D03*
X133594Y46280D03*
D03*
X119815D03*
D03*
X133594Y32500D03*
D03*
X119815D03*
D03*
X147374Y46280D03*
D03*
Y32500D03*
D03*
X174933Y46280D03*
D03*
X161154D03*
D03*
X174933Y32500D03*
D03*
X161154D03*
D03*
X188713Y46280D03*
D03*
Y32500D03*
D03*
X202492Y46280D03*
D03*
Y32500D03*
D03*
G54D22*
X52087Y127500D03*
X37913D03*
G54D13*
X13500Y359000D03*
D03*
X382000Y46000D03*
D03*
X380500Y377500D03*
D03*
G54D40*
X216000Y229500D03*
Y254500D03*
G54D41*
Y274189D03*
Y297811D03*
X276000Y274189D03*
Y297811D03*
X332000Y274189D03*
Y297811D03*
G54D32*
X92256Y32500D03*
D03*
G54D14*
X32874Y7000D03*
D03*
X22874Y37000D03*
D03*
X32874D03*
D03*
X52874Y7000D03*
D03*
X42874D03*
D03*
Y37000D03*
D03*
X52874D03*
D03*
G54D23*
Y166000D03*
X46874D03*
X52874Y180000D03*
X46874D03*
X96000Y57000D03*
X102000D03*
X123500D03*
X129500D03*
X151500Y57500D03*
X157500D03*
X179000D03*
X185000D03*
X187500Y160500D03*
X181500D03*
X187500Y154500D03*
X181500D03*
X235000Y276000D03*
Y302000D03*
X241000Y276000D03*
Y302000D03*
X289000Y118000D03*
X283000D03*
Y112500D03*
X289000D03*
Y177000D03*
X283000D03*
Y171500D03*
X289000D03*
X295000Y276000D03*
Y270000D03*
Y302000D03*
X301000Y276000D03*
Y270000D03*
Y302000D03*
X355000Y266000D03*
Y302000D03*
X370500Y118000D03*
X364500D03*
Y112500D03*
X370500D03*
X371000Y177500D03*
X365000D03*
Y172000D03*
X371000D03*
X361000Y266000D03*
Y302000D03*
G54D50*
X352000Y282000D03*
X364000D03*
G54D60*
G01X205941Y96248D02*
X211059D01*
Y84752D01*
X207909D01*
X205941Y86720D01*
Y96248D01*
G01X205441Y126748D02*
X210559D01*
Y115252D01*
X207409D01*
X205441Y117220D01*
Y126748D01*
G01Y155748D02*
X210559D01*
Y144252D01*
X207409D01*
X205441Y146220D01*
Y155748D01*
G01Y141248D02*
X210559D01*
Y129752D01*
X207409D01*
X205441Y131720D01*
Y141248D01*
G01Y170248D02*
X210559D01*
Y158752D01*
X207409D01*
X205441Y160720D01*
Y170248D01*
G01X223441Y96248D02*
X228559D01*
Y84752D01*
X225409D01*
X223441Y86720D01*
Y96248D01*
G01X240441D02*
X245559D01*
Y84752D01*
X242409D01*
X240441Y86720D01*
Y96248D01*
G01X257941D02*
X263059D01*
Y84752D01*
X259909D01*
X257941Y86720D01*
Y96248D01*
G54D51*
G01X184750Y162000D02*
Y161500D01*
G03Y161000I-250J-250D01*
G03Y160500I-250J-250D01*
G01Y159000D02*
Y159500D01*
G02Y160000I-250J250D01*
G02Y160500I-250J250D01*
G01Y156000D02*
Y155500D01*
G03Y155000I-250J-250D01*
G03Y154500I-250J-250D01*
G01Y153000D02*
Y153500D01*
G02Y154000I-250J250D01*
G02Y154500I-250J250D01*
G01X252500Y147750D02*
X252000D01*
G03X251500I-250J250D01*
G03X251000I-250J250D01*
G01X249500D02*
X250000D01*
G02X250500I250J250D01*
G02X251000I250J250D01*
G01X252500Y206750D02*
X252000D01*
G03X251500I-250J250D01*
G03X251000I-250J250D01*
G01X249500D02*
X250000D01*
G02X250500I250J250D01*
G02X251000I250J250D01*
G01X285750Y111000D02*
Y111500D01*
G03Y112000I250J250D01*
G03Y112500I250J250D01*
G01Y114000D02*
Y113500D01*
G02Y113000I250J-250D01*
G02Y112500I250J-250D01*
G01Y170000D02*
Y170500D01*
G03Y171000I250J250D01*
G03Y171500I250J250D01*
G01Y173000D02*
Y172500D01*
G02Y172000I250J-250D01*
G02Y171500I250J-250D01*
G01X334000Y147750D02*
X333500D01*
G03X333000I-250J250D01*
G03X332500I-250J250D01*
G01X331000D02*
X331500D01*
G02X332000I250J250D01*
G02X332500I250J250D01*
G01X334500Y207250D02*
X334000D01*
G03X333500I-250J250D01*
G03X333000I-250J250D01*
G01X331500D02*
X332000D01*
G02X332500I250J250D01*
G02X333000I250J250D01*
G01X367250Y111000D02*
Y111500D01*
G03Y112000I250J250D01*
G03Y112500I250J250D01*
G01Y114000D02*
Y113500D01*
G02Y113000I250J-250D01*
G02Y112500I250J-250D01*
G01X367750Y170500D02*
Y171000D01*
G03Y171500I250J250D01*
G03Y172000I250J250D01*
G01Y173500D02*
Y173000D01*
G02Y172500I250J-250D01*
G02Y172000I250J-250D01*
G54D15*
X22874Y7000D03*
D03*
G54D33*
X79346Y98457D03*
Y105543D03*
X88402D03*
Y98457D03*
X81346Y190457D03*
Y197543D03*
X90402D03*
Y190457D03*
X114402Y105543D03*
Y98457D03*
X105346D03*
Y105543D03*
G54D24*
X54000Y204000D03*
X228032Y15000D03*
D03*
X228000Y36500D03*
X230000Y264000D03*
X247716Y15000D03*
D03*
X290000Y264000D03*
X347500Y263500D03*
G54D42*
X208000Y316100D03*
Y331900D03*
X268000Y316100D03*
Y331900D03*
X328000Y316100D03*
Y331900D03*
G54D61*
G01X278900Y242902D02*
G02X249100I-14900J5098D01*
G01Y253098D02*
G02X278900I14900J-5098D01*
G01X340900Y242902D02*
G02X311100I-14900J5098D01*
G01Y253098D02*
G02X340900I14900J-5098D01*
G54D52*
G01X46874Y53500D02*
X46374Y52500D01*
X45874Y53500D01*
X45374Y52500D01*
X44874Y53500D01*
X44374Y52500D01*
X43874Y53500D01*
G01X51874D02*
X51374Y52500D01*
X50874Y53500D01*
X50374Y52500D01*
X49874Y53500D01*
X49374Y52500D01*
X48874Y53500D01*
G01X46000Y96000D02*
X45000Y96500D01*
X46000Y97000D01*
X45000Y97500D01*
X46000Y98000D01*
X45000Y98500D01*
X46000Y99000D01*
G01X45100Y104700D02*
Y106300D01*
G01X45900Y104700D02*
Y106300D01*
G01X46000Y113000D02*
X45000Y113500D01*
X46000Y114000D01*
X45000Y114500D01*
X46000Y115000D01*
X45000Y115500D01*
X46000Y116000D01*
G01Y117500D02*
X45000Y118000D01*
X46000Y118500D01*
X45000Y119000D01*
X46000Y119500D01*
X45000Y120000D01*
X46000Y120500D01*
G01X50400Y137800D02*
Y136200D01*
G01X49600Y137800D02*
Y136200D01*
G01X51200Y158900D02*
X52800D01*
G01X51200Y158100D02*
X52800D01*
G01X49600Y171700D02*
Y173300D01*
G01X50400Y171700D02*
Y173300D01*
G01X49474Y185200D02*
Y186800D01*
G01X50274Y185200D02*
Y186800D01*
G01X56874Y53500D02*
X56374Y52500D01*
X55874Y53500D01*
X55374Y52500D01*
X54874Y53500D01*
X54374Y52500D01*
X53874Y53500D01*
G01X61874D02*
X61374Y52500D01*
X60874Y53500D01*
X60374Y52500D01*
X59874Y53500D01*
X59374Y52500D01*
X58874Y53500D01*
G01X68874Y52500D02*
X69374Y53500D01*
X69874Y52500D01*
X70374Y53500D01*
X70874Y52500D01*
X71374Y53500D01*
X71874Y52500D01*
G01X63874D02*
X64374Y53500D01*
X64874Y52500D01*
X65374Y53500D01*
X65874Y52500D01*
X66374Y53500D01*
X66874Y52500D01*
G01X70374Y101500D02*
X70874Y102500D01*
X71374Y101500D01*
X71874Y102500D01*
X72374Y101500D01*
X72874Y102500D01*
X73374Y101500D01*
G01X72374Y193500D02*
X72874Y194500D01*
X73374Y193500D01*
X73874Y194500D01*
X74374Y193500D01*
X74874Y194500D01*
X75374Y193500D01*
G01X66074Y229400D02*
X67674D01*
G01X66074Y228600D02*
X67674D01*
G01Y255100D02*
X66074D01*
G01X67674Y255900D02*
X66074D01*
G01Y302900D02*
X67674D01*
G01X66074Y302100D02*
X67674D01*
G01Y329100D02*
X66074D01*
G01X67674Y329900D02*
X66074D01*
G01X78874Y52500D02*
X79374Y53500D01*
X79874Y52500D01*
X80374Y53500D01*
X80874Y52500D01*
X81374Y53500D01*
X81874Y52500D01*
G01X73874D02*
X74374Y53500D01*
X74874Y52500D01*
X75374Y53500D01*
X75874Y52500D01*
X76374Y53500D01*
X76874Y52500D01*
G01X75874Y210500D02*
X74874Y211000D01*
X75874Y211500D01*
X74874Y212000D01*
X75874Y212500D01*
X74874Y213000D01*
X75874Y213500D01*
G01X88884Y246495D02*
X87884Y246995D01*
X88884Y247495D01*
X87884Y247995D01*
X88884Y248495D01*
X87884Y248995D01*
X88884Y249495D01*
G01Y234495D02*
X87884Y234995D01*
X88884Y235495D01*
X87884Y235995D01*
X88884Y236495D01*
X87884Y236995D01*
X88884Y237495D01*
G01Y238495D02*
X87884Y238995D01*
X88884Y239495D01*
X87884Y239995D01*
X88884Y240495D01*
X87884Y240995D01*
X88884Y241495D01*
G01Y242495D02*
X87884Y242995D01*
X88884Y243495D01*
X87884Y243995D01*
X88884Y244495D01*
X87884Y244995D01*
X88884Y245495D01*
G01Y266495D02*
X87884Y266995D01*
X88884Y267495D01*
X87884Y267995D01*
X88884Y268495D01*
X87884Y268995D01*
X88884Y269495D01*
G01Y250495D02*
X87884Y250995D01*
X88884Y251495D01*
X87884Y251995D01*
X88884Y252495D01*
X87884Y252995D01*
X88884Y253495D01*
G01Y262495D02*
X87884Y262995D01*
X88884Y263495D01*
X87884Y263995D01*
X88884Y264495D01*
X87884Y264995D01*
X88884Y265495D01*
G01Y258495D02*
X87884Y258995D01*
X88884Y259495D01*
X87884Y259995D01*
X88884Y260495D01*
X87884Y260995D01*
X88884Y261495D01*
G01Y254495D02*
X87884Y254995D01*
X88884Y255495D01*
X87884Y255995D01*
X88884Y256495D01*
X87884Y256995D01*
X88884Y257495D01*
G01X75884Y270495D02*
X74884Y270995D01*
X75884Y271495D01*
X74884Y271995D01*
X75884Y272495D01*
X74884Y272995D01*
X75884Y273495D01*
G01Y284495D02*
X74884Y284995D01*
X75884Y285495D01*
X74884Y285995D01*
X75884Y286495D01*
X74884Y286995D01*
X75884Y287495D01*
G01X88884Y284495D02*
X87884Y284995D01*
X88884Y285495D01*
X87884Y285995D01*
X88884Y286495D01*
X87884Y286995D01*
X88884Y287495D01*
G01Y300495D02*
X87884Y300995D01*
X88884Y301495D01*
X87884Y301995D01*
X88884Y302495D01*
X87884Y302995D01*
X88884Y303495D01*
G01Y296495D02*
X87884Y296995D01*
X88884Y297495D01*
X87884Y297995D01*
X88884Y298495D01*
X87884Y298995D01*
X88884Y299495D01*
G01Y292495D02*
X87884Y292995D01*
X88884Y293495D01*
X87884Y293995D01*
X88884Y294495D01*
X87884Y294995D01*
X88884Y295495D01*
G01Y288495D02*
X87884Y288995D01*
X88884Y289495D01*
X87884Y289995D01*
X88884Y290495D01*
X87884Y290995D01*
X88884Y291495D01*
G01Y304495D02*
X87884Y304995D01*
X88884Y305495D01*
X87884Y305995D01*
X88884Y306495D01*
X87884Y306995D01*
X88884Y307495D01*
G01Y324495D02*
X87884Y324995D01*
X88884Y325495D01*
X87884Y325995D01*
X88884Y326495D01*
X87884Y326995D01*
X88884Y327495D01*
G01Y320495D02*
X87884Y320995D01*
X88884Y321495D01*
X87884Y321995D01*
X88884Y322495D01*
X87884Y322995D01*
X88884Y323495D01*
G01Y316495D02*
X87884Y316995D01*
X88884Y317495D01*
X87884Y317995D01*
X88884Y318495D01*
X87884Y318995D01*
X88884Y319495D01*
G01Y312495D02*
X87884Y312995D01*
X88884Y313495D01*
X87884Y313995D01*
X88884Y314495D01*
X87884Y314995D01*
X88884Y315495D01*
G01Y308495D02*
X87884Y308995D01*
X88884Y309495D01*
X87884Y309995D01*
X88884Y310495D01*
X87884Y310995D01*
X88884Y311495D01*
G01Y344495D02*
X87884Y344995D01*
X88884Y345495D01*
X87884Y345995D01*
X88884Y346495D01*
X87884Y346995D01*
X88884Y347495D01*
G01Y340495D02*
X87884Y340995D01*
X88884Y341495D01*
X87884Y341995D01*
X88884Y342495D01*
X87884Y342995D01*
X88884Y343495D01*
G01Y336495D02*
X87884Y336995D01*
X88884Y337495D01*
X87884Y337995D01*
X88884Y338495D01*
X87884Y338995D01*
X88884Y339495D01*
G01Y332495D02*
X87884Y332995D01*
X88884Y333495D01*
X87884Y333995D01*
X88884Y334495D01*
X87884Y334995D01*
X88884Y335495D01*
G01Y328495D02*
X87884Y328995D01*
X88884Y329495D01*
X87884Y329995D01*
X88884Y330495D01*
X87884Y330995D01*
X88884Y331495D01*
G01X75884Y344495D02*
X74884Y344995D01*
X75884Y345495D01*
X74884Y345995D01*
X75884Y346495D01*
X74884Y346995D01*
X75884Y347495D01*
G01X98500Y67500D02*
X99500Y67000D01*
X98500Y66500D01*
X99500Y66000D01*
X98500Y65500D01*
X99500Y65000D01*
X98500Y64500D01*
G01Y63000D02*
X99500Y62500D01*
X98500Y62000D01*
X99500Y61500D01*
X98500Y61000D01*
X99500Y60500D01*
X98500Y60000D01*
G01X99000Y58500D02*
Y59000D01*
G01Y55500D02*
Y55000D01*
G01Y58500D02*
X99500Y58000D01*
X98500Y57500D01*
X99500Y57000D01*
X98500Y56500D01*
X99500Y56000D01*
X99000Y55500D01*
G01X97074Y102400D02*
X98674D01*
G01X97074Y101600D02*
X98674D01*
G01X113874Y194500D02*
X113374Y193500D01*
X112874Y194500D01*
X112374Y193500D01*
X111874Y194500D01*
X111374Y193500D01*
X110874Y194500D01*
G01X105874Y193500D02*
X106374Y194500D01*
X106874Y193500D01*
X107374Y194500D01*
X107874Y193500D01*
X108374Y194500D01*
X108874Y193500D01*
G01X98674Y193600D02*
X97074D01*
G01X98674Y194400D02*
X97074D01*
G01X103174Y193600D02*
X101574D01*
G01X103174Y194400D02*
X101574D01*
G01X98874Y213500D02*
X99874Y213000D01*
X98874Y212500D01*
X99874Y212000D01*
X98874Y211500D01*
X99874Y211000D01*
X98874Y210500D01*
G01X109574Y229400D02*
X111174D01*
G01X109574Y228600D02*
X111174D01*
G01Y255100D02*
X109574D01*
G01X111174Y255900D02*
X109574D01*
G01X98884Y287495D02*
X99884Y286995D01*
X98884Y286495D01*
X99884Y285995D01*
X98884Y285495D01*
X99884Y284995D01*
X98884Y284495D01*
G01Y273495D02*
X99884Y272995D01*
X98884Y272495D01*
X99884Y271995D01*
X98884Y271495D01*
X99884Y270995D01*
X98884Y270495D01*
G01X109574Y305400D02*
X111174D01*
G01X109574Y304600D02*
X111174D01*
G01X98884Y347495D02*
X99884Y346995D01*
X98884Y346495D01*
X99884Y345995D01*
X98884Y345495D01*
X99884Y344995D01*
X98884Y344495D01*
G01X111174Y329100D02*
X109574D01*
G01X111174Y329900D02*
X109574D01*
G01X126000Y63000D02*
X127000Y62500D01*
X126000Y62000D01*
X127000Y61500D01*
X126000Y61000D01*
X127000Y60500D01*
X126000Y60000D01*
G01Y67500D02*
X127000Y67000D01*
X126000Y66500D01*
X127000Y66000D01*
X126000Y65500D01*
X127000Y65000D01*
X126000Y64500D01*
G01X126500Y58500D02*
Y59000D01*
G01Y55500D02*
Y55000D01*
G01Y58500D02*
X127000Y58000D01*
X126000Y57500D01*
X127000Y57000D01*
X126000Y56500D01*
X127000Y56000D01*
X126500Y55500D01*
G01X123374Y102500D02*
X122874Y101500D01*
X122374Y102500D01*
X121874Y101500D01*
X121374Y102500D01*
X120874Y101500D01*
X120374Y102500D01*
G01X125874Y194500D02*
X125374Y193500D01*
X124874Y194500D01*
X124374Y193500D01*
X123874Y194500D01*
X123374Y193500D01*
X122874Y194500D01*
G01X117874D02*
X117374Y193500D01*
X116874Y194500D01*
X116374Y193500D01*
X115874Y194500D01*
X115374Y193500D01*
X114874Y194500D01*
G01X121874D02*
X121374Y193500D01*
X120874Y194500D01*
X120374Y193500D01*
X119874Y194500D01*
X119374Y193500D01*
X118874Y194500D01*
G01X129874D02*
X129374Y193500D01*
X128874Y194500D01*
X128374Y193500D01*
X127874Y194500D01*
X127374Y193500D01*
X126874Y194500D01*
G01X133874D02*
X133374Y193500D01*
X132874Y194500D01*
X132374Y193500D01*
X131874Y194500D01*
X131374Y193500D01*
X130874Y194500D01*
G01X142374Y121500D02*
X141374Y122000D01*
X142374Y122500D01*
X141374Y123000D01*
X142374Y123500D01*
X141374Y124000D01*
X142374Y124500D01*
G01Y117500D02*
X141374Y118000D01*
X142374Y118500D01*
X141374Y119000D01*
X142374Y119500D01*
X141374Y120000D01*
X142374Y120500D01*
G01Y113500D02*
X141374Y114000D01*
X142374Y114500D01*
X141374Y115000D01*
X142374Y115500D01*
X141374Y116000D01*
X142374Y116500D01*
G01X141474Y126200D02*
Y127800D01*
G01X142274Y126200D02*
Y127800D01*
G01X142374Y137500D02*
X141374Y138000D01*
X142374Y138500D01*
X141374Y139000D01*
X142374Y139500D01*
X141374Y140000D01*
X142374Y140500D01*
G01Y129500D02*
X141374Y130000D01*
X142374Y130500D01*
X141374Y131000D01*
X142374Y131500D01*
X141374Y132000D01*
X142374Y132500D01*
G01Y145500D02*
X141374Y146000D01*
X142374Y146500D01*
X141374Y147000D01*
X142374Y147500D01*
X141374Y148000D01*
X142374Y148500D01*
G01Y141500D02*
X141374Y142000D01*
X142374Y142500D01*
X141374Y143000D01*
X142374Y143500D01*
X141374Y144000D01*
X142374Y144500D01*
G01Y133500D02*
X141374Y134000D01*
X142374Y134500D01*
X141374Y135000D01*
X142374Y135500D01*
X141374Y136000D01*
X142374Y136500D01*
G01Y153500D02*
X141374Y154000D01*
X142374Y154500D01*
X141374Y155000D01*
X142374Y155500D01*
X141374Y156000D01*
X142374Y156500D01*
G01Y165500D02*
X141374Y166000D01*
X142374Y166500D01*
X141374Y167000D01*
X142374Y167500D01*
X141374Y168000D01*
X142374Y168500D01*
G01Y161500D02*
X141374Y162000D01*
X142374Y162500D01*
X141374Y163000D01*
X142374Y163500D01*
X141374Y164000D01*
X142374Y164500D01*
G01Y157500D02*
X141374Y158000D01*
X142374Y158500D01*
X141374Y159000D01*
X142374Y159500D01*
X141374Y160000D01*
X142374Y160500D01*
G01Y149500D02*
X141374Y150000D01*
X142374Y150500D01*
X141374Y151000D01*
X142374Y151500D01*
X141374Y152000D01*
X142374Y152500D01*
G01Y177500D02*
X141374Y178000D01*
X142374Y178500D01*
X141374Y179000D01*
X142374Y179500D01*
X141374Y180000D01*
X142374Y180500D01*
G01Y173500D02*
X141374Y174000D01*
X142374Y174500D01*
X141374Y175000D01*
X142374Y175500D01*
X141374Y176000D01*
X142374Y176500D01*
G01Y169500D02*
X141374Y170000D01*
X142374Y170500D01*
X141374Y171000D01*
X142374Y171500D01*
X141374Y172000D01*
X142374Y172500D01*
G01Y185500D02*
X141374Y186000D01*
X142374Y186500D01*
X141374Y187000D01*
X142374Y187500D01*
X141374Y188000D01*
X142374Y188500D01*
G01Y181500D02*
X141374Y182000D01*
X142374Y182500D01*
X141374Y183000D01*
X142374Y183500D01*
X141374Y184000D01*
X142374Y184500D01*
G01X137874Y194500D02*
X137374Y193500D01*
X136874Y194500D01*
X136374Y193500D01*
X135874Y194500D01*
X135374Y193500D01*
X134874Y194500D01*
G01X154000Y68000D02*
X155000Y67500D01*
X154000Y67000D01*
X155000Y66500D01*
X154000Y66000D01*
X155000Y65500D01*
X154000Y65000D01*
G01Y63500D02*
X155000Y63000D01*
X154000Y62500D01*
X155000Y62000D01*
X154000Y61500D01*
X155000Y61000D01*
X154000Y60500D01*
G01X154500Y59000D02*
Y59500D01*
G01Y56000D02*
Y55500D01*
G01Y59000D02*
X155000Y58500D01*
X154000Y58000D01*
X155000Y57500D01*
X154000Y57000D01*
X155000Y56500D01*
X154500Y56000D01*
G01X174000Y99000D02*
X173500Y98000D01*
X173000Y99000D01*
X172500Y98000D01*
X172000Y99000D01*
X171500Y98000D01*
X171000Y99000D01*
G01X170800Y143100D02*
X169200D01*
G01X170800Y143900D02*
X169200D01*
G01X181500Y68000D02*
X182500Y67500D01*
X181500Y67000D01*
X182500Y66500D01*
X181500Y66000D01*
X182500Y65500D01*
X181500Y65000D01*
G01Y63500D02*
X182500Y63000D01*
X181500Y62500D01*
X182500Y62000D01*
X181500Y61500D01*
X182500Y61000D01*
X181500Y60500D01*
G01X182000Y59000D02*
Y59500D01*
G01Y56000D02*
Y55500D01*
G01Y59000D02*
X182500Y58500D01*
X181500Y58000D01*
X182500Y57500D01*
X181500Y57000D01*
X182500Y56500D01*
X182000Y56000D01*
G01X187000Y98000D02*
X187500Y99000D01*
X188000Y98000D01*
X188500Y99000D01*
X189000Y98000D01*
X189500Y99000D01*
X190000Y98000D01*
G01X182000Y99000D02*
X181500Y98000D01*
X181000Y99000D01*
X180500Y98000D01*
X180000Y99000D01*
X179500Y98000D01*
X179000Y99000D01*
G01X186000D02*
X185500Y98000D01*
X185000Y99000D01*
X184500Y98000D01*
X184000Y99000D01*
X183500Y98000D01*
X183000Y99000D01*
G01X178000D02*
X177500Y98000D01*
X177000Y99000D01*
X176500Y98000D01*
X176000Y99000D01*
X175500Y98000D01*
X175000Y99000D01*
G01X183000Y143000D02*
X183500Y144000D01*
X184000Y143000D01*
X184500Y144000D01*
X185000Y143000D01*
X185500Y144000D01*
X186000Y143000D01*
G01X179000D02*
X179500Y144000D01*
X180000Y143000D01*
X180500Y144000D01*
X181000Y143000D01*
X181500Y144000D01*
X182000Y143000D01*
G01X187000D02*
X187500Y144000D01*
X188000Y143000D01*
X188500Y144000D01*
X189000Y143000D01*
X189500Y144000D01*
X190000Y143000D01*
G01X174800Y143100D02*
X173200D01*
G01X174800Y143900D02*
X173200D01*
G01X184100Y165200D02*
Y166800D01*
G01X184900Y165200D02*
Y166800D01*
G01Y171300D02*
Y169700D01*
G01X184100Y171300D02*
Y169700D01*
G01X201894Y189531D02*
X201106Y190319D01*
X201894Y191106D01*
X201106Y191894D01*
X201894Y192681D01*
X201106Y193469D01*
G01X200106Y345969D02*
X200894Y345181D01*
X200106Y344394D01*
X200894Y343606D01*
X200106Y342819D01*
X200894Y342031D01*
G01X200106Y355469D02*
X200894Y354681D01*
X200106Y353894D01*
X200894Y353106D01*
X200106Y352319D01*
X200894Y351531D01*
G01X223307Y3976D02*
X243780D01*
Y433D01*
X231968D01*
Y3976D01*
X252441D01*
Y4370D01*
G01X229500Y118000D02*
X230500Y117500D01*
X229500Y117000D01*
X230500Y116500D01*
X229500Y116000D01*
X230500Y115500D01*
X229500Y115000D01*
G01X230500Y110500D02*
X229500Y111000D01*
X230500Y111500D01*
X229500Y112000D01*
X230500Y112500D01*
X229500Y113000D01*
X230500Y113500D01*
G01X229600Y120200D02*
Y121800D01*
G01X230400Y120200D02*
Y121800D01*
G01Y126300D02*
Y124700D01*
G01X229600Y126300D02*
Y124700D01*
G01X229500Y136000D02*
X230500Y135500D01*
X229500Y135000D01*
X230500Y134500D01*
X229500Y134000D01*
X230500Y133500D01*
X229500Y133000D01*
G01Y145000D02*
X230500Y144500D01*
X229500Y144000D01*
X230500Y143500D01*
X229500Y143000D01*
X230500Y142500D01*
X229500Y142000D01*
G01X230400Y139800D02*
Y138200D01*
G01X229600Y139800D02*
Y138200D01*
G01X230400Y130800D02*
Y129200D01*
G01X229600Y130800D02*
Y129200D01*
G01X230500Y169500D02*
X229500Y170000D01*
X230500Y170500D01*
X229500Y171000D01*
X230500Y171500D01*
X229500Y172000D01*
X230500Y172500D01*
G01X229500Y177000D02*
X230500Y176500D01*
X229500Y176000D01*
X230500Y175500D01*
X229500Y175000D01*
X230500Y174500D01*
X229500Y174000D01*
G01X230400Y185300D02*
Y183700D01*
G01X229600Y185300D02*
Y183700D01*
G01Y179200D02*
Y180800D01*
G01X230400Y179200D02*
Y180800D01*
G01X229500Y195000D02*
X230500Y194500D01*
X229500Y194000D01*
X230500Y193500D01*
X229500Y193000D01*
X230500Y192500D01*
X229500Y192000D01*
G01Y204000D02*
X230500Y203500D01*
X229500Y203000D01*
X230500Y202500D01*
X229500Y202000D01*
X230500Y201500D01*
X229500Y201000D01*
G01X230400Y198800D02*
Y197200D01*
G01X229600Y198800D02*
Y197200D01*
G01X230400Y189800D02*
Y188200D01*
G01X229600Y189800D02*
Y188200D01*
G01X228500Y353500D02*
X229000Y354500D01*
X229500Y353500D01*
X230000Y354500D01*
X230500Y353500D01*
X231000Y354500D01*
X231500Y353500D01*
G01X237600Y263200D02*
Y264800D01*
G01X238400Y263200D02*
Y264800D01*
G01X237600Y269200D02*
Y270800D01*
G01X238400Y269200D02*
Y270800D01*
G01X250500Y301500D02*
X251000Y302500D01*
X251500Y301500D01*
X252000Y302500D01*
X252500Y301500D01*
X253000Y302500D01*
X253500Y301500D01*
G01X246500D02*
X247000Y302500D01*
X247500Y301500D01*
X248000Y302500D01*
X248500Y301500D01*
X249000Y302500D01*
X249500Y301500D01*
G01X252800Y327600D02*
X251200D01*
G01X252800Y328400D02*
X251200D01*
G01X249500Y354500D02*
X249000Y353500D01*
X248500Y354500D01*
X248000Y353500D01*
X247500Y354500D01*
X247000Y353500D01*
X246500Y354500D01*
G01X236800Y353600D02*
X235200D01*
G01X236800Y354400D02*
X235200D01*
G01X242800Y353600D02*
X241200D01*
G01X242800Y354400D02*
X241200D01*
G01X262500Y148500D02*
X262000Y147500D01*
X261500Y148500D01*
X261000Y147500D01*
X260500Y148500D01*
X260000Y147500D01*
X259500Y148500D01*
G01X264000Y147500D02*
X264500Y148500D01*
X265000Y147500D01*
X265500Y148500D01*
X266000Y147500D01*
X266500Y148500D01*
X267000Y147500D01*
G01X271500Y148500D02*
X271000Y147500D01*
X270500Y148500D01*
X270000Y147500D01*
X269500Y148500D01*
X269000Y147500D01*
X268500Y148500D01*
G01X276000D02*
X275500Y147500D01*
X275000Y148500D01*
X274500Y147500D01*
X274000Y148500D01*
X273500Y147500D01*
X273000Y148500D01*
G01X257300Y147600D02*
X255700D01*
G01X257300Y148400D02*
X255700D01*
G01X271500Y207500D02*
X271000Y206500D01*
X270500Y207500D01*
X270000Y206500D01*
X269500Y207500D01*
X269000Y206500D01*
X268500Y207500D01*
G01X264000Y206500D02*
X264500Y207500D01*
X265000Y206500D01*
X265500Y207500D01*
X266000Y206500D01*
X266500Y207500D01*
X267000Y206500D01*
G01X276000Y207500D02*
X275500Y206500D01*
X275000Y207500D01*
X274500Y206500D01*
X274000Y207500D01*
X273500Y206500D01*
X273000Y207500D01*
G01X262500D02*
X262000Y206500D01*
X261500Y207500D01*
X261000Y206500D01*
X260500Y207500D01*
X260000Y206500D01*
X259500Y207500D01*
G01X257300Y206600D02*
X255700D01*
G01X257300Y207400D02*
X255700D01*
G01X257500Y302500D02*
X257000Y301500D01*
X256500Y302500D01*
X256000Y301500D01*
X255500Y302500D01*
X255000Y301500D01*
X254500Y302500D01*
G01X257500Y328500D02*
X257000Y327500D01*
X256500Y328500D01*
X256000Y327500D01*
X255500Y328500D01*
X255000Y327500D01*
X254500Y328500D01*
G01X285600Y122200D02*
Y123800D01*
G01X286400Y122200D02*
Y123800D01*
G01X285500Y138000D02*
X286500Y137500D01*
X285500Y137000D01*
X286500Y136500D01*
X285500Y136000D01*
X286500Y135500D01*
X285500Y135000D01*
G01Y133500D02*
X286500Y133000D01*
X285500Y132500D01*
X286500Y132000D01*
X285500Y131500D01*
X286500Y131000D01*
X285500Y130500D01*
G01Y142500D02*
X286500Y142000D01*
X285500Y141500D01*
X286500Y141000D01*
X285500Y140500D01*
X286500Y140000D01*
X285500Y139500D01*
G01X285600Y126700D02*
Y128300D01*
G01X286400Y126700D02*
Y128300D01*
G01X285600Y185700D02*
Y187300D01*
G01X286400Y185700D02*
Y187300D01*
G01X285600Y181200D02*
Y182800D01*
G01X286400Y181200D02*
Y182800D01*
G01X285500Y192500D02*
X286500Y192000D01*
X285500Y191500D01*
X286500Y191000D01*
X285500Y190500D01*
X286500Y190000D01*
X285500Y189500D01*
G01Y201500D02*
X286500Y201000D01*
X285500Y200500D01*
X286500Y200000D01*
X285500Y199500D01*
X286500Y199000D01*
X285500Y198500D01*
G01Y197000D02*
X286500Y196500D01*
X285500Y196000D01*
X286500Y195500D01*
X285500Y195000D01*
X286500Y194500D01*
X285500Y194000D01*
G01X288500Y353500D02*
X289000Y354500D01*
X289500Y353500D01*
X290000Y354500D01*
X290500Y353500D01*
X291000Y354500D01*
X291500Y353500D01*
G01X311000Y118000D02*
X312000Y117500D01*
X311000Y117000D01*
X312000Y116500D01*
X311000Y116000D01*
X312000Y115500D01*
X311000Y115000D01*
G01X312000Y110500D02*
X311000Y111000D01*
X312000Y111500D01*
X311000Y112000D01*
X312000Y112500D01*
X311000Y113000D01*
X312000Y113500D01*
G01X311100Y120200D02*
Y121800D01*
G01X311900Y120200D02*
Y121800D01*
G01Y126300D02*
Y124700D01*
G01X311100Y126300D02*
Y124700D01*
G01X311000Y145000D02*
X312000Y144500D01*
X311000Y144000D01*
X312000Y143500D01*
X311000Y143000D01*
X312000Y142500D01*
X311000Y142000D01*
G01Y136000D02*
X312000Y135500D01*
X311000Y135000D01*
X312000Y134500D01*
X311000Y134000D01*
X312000Y133500D01*
X311000Y133000D01*
G01X311900Y139800D02*
Y138200D01*
G01X311100Y139800D02*
Y138200D01*
G01X311900Y130800D02*
Y129200D01*
G01X311100Y130800D02*
Y129200D01*
G01X311500Y177500D02*
X312500Y177000D01*
X311500Y176500D01*
X312500Y176000D01*
X311500Y175500D01*
X312500Y175000D01*
X311500Y174500D01*
G01X312500Y170000D02*
X311500Y170500D01*
X312500Y171000D01*
X311500Y171500D01*
X312500Y172000D01*
X311500Y172500D01*
X312500Y173000D01*
G01X311600Y179700D02*
Y181300D01*
G01X312400Y179700D02*
Y181300D01*
G01Y185800D02*
Y184200D01*
G01X311600Y185800D02*
Y184200D01*
G01X311500Y195500D02*
X312500Y195000D01*
X311500Y194500D01*
X312500Y194000D01*
X311500Y193500D01*
X312500Y193000D01*
X311500Y192500D01*
G01Y204500D02*
X312500Y204000D01*
X311500Y203500D01*
X312500Y203000D01*
X311500Y202500D01*
X312500Y202000D01*
X311500Y201500D01*
G01X312400Y199300D02*
Y197700D01*
G01X311600Y199300D02*
Y197700D01*
G01X312400Y190300D02*
Y188700D01*
G01X311600Y190300D02*
Y188700D01*
G01X297600Y257200D02*
Y258800D01*
G01X298400Y257200D02*
Y258800D01*
G01X297600Y263200D02*
Y264800D01*
G01X298400Y263200D02*
Y264800D01*
G01X310500Y301500D02*
X311000Y302500D01*
X311500Y301500D01*
X312000Y302500D01*
X312500Y301500D01*
X313000Y302500D01*
X313500Y301500D01*
G01X306500D02*
X307000Y302500D01*
X307500Y301500D01*
X308000Y302500D01*
X308500Y301500D01*
X309000Y302500D01*
X309500Y301500D01*
G01X312800Y327600D02*
X311200D01*
G01X312800Y328400D02*
X311200D01*
G01X309500Y354500D02*
X309000Y353500D01*
X308500Y354500D01*
X308000Y353500D01*
X307500Y354500D01*
X307000Y353500D01*
X306500Y354500D01*
G01X296800Y353600D02*
X295200D01*
G01X296800Y354400D02*
X295200D01*
G01X302800Y353600D02*
X301200D01*
G01X302800Y354400D02*
X301200D01*
G01X317500Y302500D02*
X317000Y301500D01*
X316500Y302500D01*
X316000Y301500D01*
X315500Y302500D01*
X315000Y301500D01*
X314500Y302500D01*
G01X317500Y328500D02*
X317000Y327500D01*
X316500Y328500D01*
X316000Y327500D01*
X315500Y328500D01*
X315000Y327500D01*
X314500Y328500D01*
G01X353000Y148500D02*
X352500Y147500D01*
X352000Y148500D01*
X351500Y147500D01*
X351000Y148500D01*
X350500Y147500D01*
X350000Y148500D01*
G01X345500Y147500D02*
X346000Y148500D01*
X346500Y147500D01*
X347000Y148500D01*
X347500Y147500D01*
X348000Y148500D01*
X348500Y147500D01*
G01X344000Y148500D02*
X343500Y147500D01*
X343000Y148500D01*
X342500Y147500D01*
X342000Y148500D01*
X341500Y147500D01*
X341000Y148500D01*
G01X338800Y147600D02*
X337200D01*
G01X338800Y148400D02*
X337200D01*
G01X353500Y208000D02*
X353000Y207000D01*
X352500Y208000D01*
X352000Y207000D01*
X351500Y208000D01*
X351000Y207000D01*
X350500Y208000D01*
G01X344500D02*
X344000Y207000D01*
X343500Y208000D01*
X343000Y207000D01*
X342500Y208000D01*
X342000Y207000D01*
X341500Y208000D01*
G01X346000Y207000D02*
X346500Y208000D01*
X347000Y207000D01*
X347500Y208000D01*
X348000Y207000D01*
X348500Y208000D01*
X349000Y207000D01*
G01X339300Y207100D02*
X337700D01*
G01X339300Y207900D02*
X337700D01*
G01X348500Y353500D02*
X349000Y354500D01*
X349500Y353500D01*
X350000Y354500D01*
X350500Y353500D01*
X351000Y354500D01*
X351500Y353500D01*
G01X367100Y122200D02*
Y123800D01*
G01X367900Y122200D02*
Y123800D01*
G01X367000Y138000D02*
X368000Y137500D01*
X367000Y137000D01*
X368000Y136500D01*
X367000Y136000D01*
X368000Y135500D01*
X367000Y135000D01*
G01Y142500D02*
X368000Y142000D01*
X367000Y141500D01*
X368000Y141000D01*
X367000Y140500D01*
X368000Y140000D01*
X367000Y139500D01*
G01Y133500D02*
X368000Y133000D01*
X367000Y132500D01*
X368000Y132000D01*
X367000Y131500D01*
X368000Y131000D01*
X367000Y130500D01*
G01X367100Y126700D02*
Y128300D01*
G01X367900Y126700D02*
Y128300D01*
G01X357500Y148500D02*
X357000Y147500D01*
X356500Y148500D01*
X356000Y147500D01*
X355500Y148500D01*
X355000Y147500D01*
X354500Y148500D01*
G01X367600Y186200D02*
Y187800D01*
G01X368400Y186200D02*
Y187800D01*
G01X367600Y181700D02*
Y183300D01*
G01X368400Y181700D02*
Y183300D01*
G01X367500Y202000D02*
X368500Y201500D01*
X367500Y201000D01*
X368500Y200500D01*
X367500Y200000D01*
X368500Y199500D01*
X367500Y199000D01*
G01Y193000D02*
X368500Y192500D01*
X367500Y192000D01*
X368500Y191500D01*
X367500Y191000D01*
X368500Y190500D01*
X367500Y190000D01*
G01Y197500D02*
X368500Y197000D01*
X367500Y196500D01*
X368500Y196000D01*
X367500Y195500D01*
X368500Y195000D01*
X367500Y194500D01*
G01X358000Y208000D02*
X357500Y207000D01*
X357000Y208000D01*
X356500Y207000D01*
X356000Y208000D01*
X355500Y207000D01*
X355000Y208000D01*
G01X357600Y255200D02*
Y256800D01*
G01X358400Y255200D02*
Y256800D01*
G01X357600Y259200D02*
Y260800D01*
G01X358400Y259200D02*
Y260800D01*
G01X372500Y301500D02*
X373000Y302500D01*
X373500Y301500D01*
X374000Y302500D01*
X374500Y301500D01*
X375000Y302500D01*
X375500Y301500D01*
G01X368500D02*
X369000Y302500D01*
X369500Y301500D01*
X370000Y302500D01*
X370500Y301500D01*
X371000Y302500D01*
X371500Y301500D01*
G01X372800Y327600D02*
X371200D01*
G01X372800Y328400D02*
X371200D01*
G01X369500Y354500D02*
X369000Y353500D01*
X368500Y354500D01*
X368000Y353500D01*
X367500Y354500D01*
X367000Y353500D01*
X366500Y354500D01*
G01X356800Y353600D02*
X355200D01*
G01X356800Y354400D02*
X355200D01*
G01X362800Y353600D02*
X361200D01*
G01X362800Y354400D02*
X361200D01*
G01X380500Y301500D02*
X381000Y302500D01*
X381500Y301500D01*
X382000Y302500D01*
X382500Y301500D01*
X383000Y302500D01*
X383500Y301500D01*
G01X387500Y302500D02*
X387000Y301500D01*
X386500Y302500D01*
X386000Y301500D01*
X385500Y302500D01*
X385000Y301500D01*
X384500Y302500D01*
G01X379500D02*
X379000Y301500D01*
X378500Y302500D01*
X378000Y301500D01*
X377500Y302500D01*
X377000Y301500D01*
X376500Y302500D01*
G01X377500Y328500D02*
X377000Y327500D01*
X376500Y328500D01*
X376000Y327500D01*
X375500Y328500D01*
X375000Y327500D01*
X374500Y328500D01*
G54D34*
X172102Y109976D03*
X169543D03*
Y132024D03*
X172102D03*
X187457Y109976D03*
X184898D03*
X182339D03*
X179780D03*
X177220D03*
X174661D03*
Y132024D03*
X177220D03*
X179780D03*
X182339D03*
X184898D03*
X187457D03*
G54D25*
X47384Y220500D03*
D03*
Y230500D03*
D03*
Y240500D03*
D03*
Y250500D03*
D03*
Y260500D03*
D03*
Y270500D03*
D03*
Y280500D03*
D03*
Y290500D03*
D03*
Y300500D03*
D03*
Y310500D03*
D03*
Y320500D03*
D03*
Y330500D03*
D03*
Y340500D03*
D03*
Y350500D03*
D03*
Y360500D03*
D03*
Y370500D03*
D03*
Y380500D03*
D03*
X57384Y220500D03*
D03*
Y230500D03*
D03*
Y240500D03*
D03*
Y250500D03*
D03*
Y260500D03*
D03*
Y270500D03*
D03*
Y280500D03*
D03*
Y290500D03*
D03*
Y300500D03*
D03*
Y310500D03*
D03*
Y320500D03*
D03*
Y330500D03*
D03*
Y340500D03*
D03*
Y350500D03*
D03*
Y360500D03*
D03*
Y370500D03*
D03*
X126384Y220500D03*
D03*
Y230500D03*
D03*
Y240500D03*
D03*
Y250500D03*
D03*
Y260500D03*
D03*
Y270500D03*
D03*
Y280500D03*
D03*
Y290500D03*
D03*
Y300500D03*
D03*
Y310500D03*
D03*
Y320500D03*
D03*
Y330500D03*
D03*
Y340500D03*
D03*
Y350500D03*
D03*
Y360500D03*
D03*
Y370500D03*
D03*
Y380500D03*
D03*
X136384Y220500D03*
D03*
Y230500D03*
D03*
Y240500D03*
D03*
Y250500D03*
D03*
Y260500D03*
D03*
Y270500D03*
D03*
Y280500D03*
D03*
Y290500D03*
D03*
Y300500D03*
D03*
Y310500D03*
D03*
Y320500D03*
D03*
Y330500D03*
D03*
Y340500D03*
D03*
Y350500D03*
D03*
Y360500D03*
D03*
Y370500D03*
D03*
G54D43*
X224094Y24842D03*
D03*
X251654D03*
D03*
G54D16*
X27564Y59050D03*
D03*
Y374010D03*
D03*
X167324Y220470D03*
D03*
Y377950D03*
D03*
X303154Y374010D03*
D03*
X371874Y27500D03*
D03*
G54D62*
G01X29764Y167205D02*
X15984D01*
Y192795D01*
X27795D01*
X29764Y190827D01*
Y167205D01*
G01X97242Y219357D02*
X79526D01*
Y264633D01*
X82500D01*
G01Y293357D02*
X79526D01*
Y338633D01*
X82500D01*
G01X94000Y264633D02*
X95274D01*
X97242Y262664D01*
Y219357D01*
G01X97242Y293357D02*
X93500D01*
G01Y338633D02*
X95274D01*
X97242Y336664D01*
Y293357D01*
G01X122548Y117716D02*
G03I-492J0D01*
G01X170626Y115094D02*
Y126906D01*
X186374D01*
Y117063D01*
X184406Y115094D01*
X170626D01*
G54D53*
G01X12500Y5500D02*
Y8500D01*
X11900Y7900D01*
G01Y5500D02*
X13100D01*
G01X12680Y35960D02*
X13030Y36010D01*
X13430Y36160D01*
X13680Y36410D01*
X13780Y36760D01*
X13680Y37110D01*
X13380Y37410D01*
X12930Y37560D01*
X12430D01*
X12130Y37660D01*
X11880Y37910D01*
X11780Y38260D01*
X11930Y38610D01*
X12280Y38860D01*
X12680Y38960D01*
X13080Y38860D01*
X13430Y38610D01*
X13580Y38260D01*
X13480Y37910D01*
X13230Y37660D01*
X12930Y37560D01*
X12430D01*
X11980Y37410D01*
X11680Y37110D01*
X11580Y36760D01*
X11680Y36410D01*
X11930Y36160D01*
X12330Y36010D01*
X12680Y35960D01*
G01X10550Y70000D02*
X10850Y70300D01*
X11200Y70450D01*
X11600Y70500D01*
X12100Y70400D01*
X12450Y70150D01*
X12550Y69850D01*
X12500Y69550D01*
X12300Y69300D01*
X11300Y68800D01*
X10850Y68450D01*
X10550Y67950D01*
X10450Y67500D01*
X12550D01*
G01X35826Y152611D02*
X0D01*
Y72453D01*
X35826D01*
Y103674D01*
X31889D01*
Y121390D01*
X35826D01*
Y152611D01*
G01X9000Y154500D02*
Y157500D01*
X8400Y156900D01*
G01Y154500D02*
X9600D01*
G01X12010Y157500D02*
X11610Y157400D01*
X11310Y157150D01*
X11110Y156850D01*
X10960Y156450D01*
X10910Y156000D01*
X10960Y155550D01*
X11110Y155150D01*
X11310Y154850D01*
X11610Y154600D01*
X12010Y154500D01*
X12410Y154600D01*
X12710Y154850D01*
X12910Y155150D01*
X13060Y155550D01*
X13110Y156000D01*
X13060Y156450D01*
X12910Y156850D01*
X12710Y157150D01*
X12410Y157400D01*
X12010Y157500D01*
G01X17600Y351000D02*
X16400D01*
G01X17000D02*
Y348000D01*
G01X17600D02*
X16400D01*
G01X15090D02*
Y351000D01*
X14090D01*
X13690Y350850D01*
X13390Y350650D01*
X13140Y350350D01*
X12940Y350000D01*
X12890Y349500D01*
X12940Y349000D01*
X13140Y348650D01*
X13390Y348350D01*
X13690Y348150D01*
X14090Y348000D01*
X15090D01*
G01X10380D02*
Y351000D01*
X12230Y348850D01*
X9730D01*
G01X9900Y351000D02*
X11100D01*
G01X10500D02*
Y348000D01*
G01X9900D02*
X11100D01*
G01X12410D02*
Y351000D01*
X13410D01*
X13810Y350850D01*
X14110Y350650D01*
X14360Y350350D01*
X14560Y350000D01*
X14610Y349500D01*
X14560Y349000D01*
X14360Y348650D01*
X14110Y348350D01*
X13810Y348150D01*
X13410Y348000D01*
X12410D01*
G01X15420Y348600D02*
X15720Y348250D01*
X16120Y348050D01*
X16570Y348000D01*
X16970Y348050D01*
X17370Y348300D01*
X17620Y348600D01*
X17670Y348900D01*
X17570Y349250D01*
X17220Y349500D01*
X16870Y349600D01*
X16420D01*
G01X16870D02*
X17170Y349750D01*
X17420Y350000D01*
X17520Y350300D01*
X17420Y350600D01*
X17170Y350850D01*
X16720Y351000D01*
X16270Y350950D01*
X15820Y350750D01*
G01X30748Y-6543D02*
X35866D01*
Y2906D01*
X30748D01*
Y-6543D01*
G01X14606Y2906D02*
X61142D01*
Y41094D01*
X14606D01*
Y2906D01*
G01X20748Y-6543D02*
X25866D01*
Y2906D01*
X20748D01*
Y-6543D01*
G01X32384Y259000D02*
X40384D01*
Y272000D01*
X32384D01*
Y266500D01*
X33384Y265500D01*
X32384Y264500D01*
Y259000D01*
G01X20384D02*
X28384D01*
Y272000D01*
X20384D01*
Y266500D01*
X21384Y265500D01*
X20384Y264500D01*
Y259000D01*
G01X33884Y251500D02*
Y247500D01*
X30884Y249500D01*
X33884Y251500D01*
G01X30884Y249500D02*
Y252000D01*
G01Y249500D02*
Y247000D01*
G01X22884Y274500D02*
G03I-1000J0D01*
G01X20384Y289000D02*
X28384D01*
Y302000D01*
X20384D01*
Y296500D01*
X21384Y295500D01*
X20384Y294500D01*
Y289000D01*
G01X22884Y304500D02*
G03I-1000J0D01*
G01X32384Y289000D02*
X40384D01*
Y302000D01*
X32384D01*
Y296500D01*
X33384Y295500D01*
X32384Y294500D01*
Y289000D01*
G01X20384Y329500D02*
X28384D01*
Y342500D01*
X20384D01*
Y337000D01*
X21384Y336000D01*
X20384Y335000D01*
Y329500D01*
G01X22884Y345000D02*
G03I-1000J0D01*
G01X32384Y329500D02*
X40384D01*
Y342500D01*
X32384D01*
Y337000D01*
X33384Y336000D01*
X32384Y335000D01*
Y329500D01*
G01X40748Y-6543D02*
X45866D01*
Y2906D01*
X40748D01*
Y-6543D01*
G01X50748D02*
X55866D01*
Y2906D01*
X50748D01*
Y-6543D01*
G01X47374Y49500D02*
Y56500D01*
G01X43374Y49500D02*
Y56500D01*
G01X47374Y49500D02*
G02X43374I-2000J4250D01*
G01X47374Y56500D02*
G03X43374I-2000J-3920D01*
G01X52374Y49500D02*
Y56500D01*
G01X48374Y49500D02*
Y56500D01*
G01X52374Y49500D02*
G02X48374I-2000J4250D01*
G01X52374Y56500D02*
G03X48374I-2000J-3920D01*
G01X42000Y95500D02*
X49000D01*
G01X42000Y99500D02*
X49000D01*
G01X42000Y95500D02*
G02Y99500I4250J2000D01*
G01X49000Y95500D02*
G03Y99500I-3920J2000D01*
G01X41500Y103500D02*
X49500D01*
Y107500D01*
X41500D01*
Y103500D01*
G01X40410Y92930D02*
X38410Y92030D01*
X40410Y91130D01*
G01X42000Y112500D02*
X49000D01*
G01X42000Y116500D02*
X49000D01*
G01X42000Y112500D02*
G02Y116500I4250J2000D01*
G01X49000Y112500D02*
G03Y116500I-3920J2000D01*
G01X42000Y117000D02*
X49000D01*
G01X42000Y121000D02*
X49000D01*
G01X42000Y117000D02*
G02Y121000I4250J2000D01*
G01X49000Y117000D02*
G03Y121000I-3920J2000D01*
G01X55000Y131100D02*
X35000D01*
Y123900D01*
X55000D01*
Y131100D01*
G01X34500D02*
Y123900D01*
G01X46500Y129500D02*
Y125500D01*
X43500Y127500D01*
X46500Y129500D01*
G01X43500D02*
Y125500D01*
G01X36000Y123900D02*
X34000D01*
Y131100D01*
X36000D01*
G01X54000Y139000D02*
X46000D01*
Y135000D01*
X54000D01*
Y139000D01*
G01X38650Y130850D02*
X39000Y130600D01*
X39400Y130500D01*
X39800Y130600D01*
X40150Y130900D01*
X40400Y131350D01*
X40500Y131800D01*
Y132350D01*
X40400Y132800D01*
X40150Y133200D01*
X39850Y133400D01*
X39500Y133500D01*
X39100Y133400D01*
X38800Y133200D01*
X38600Y132900D01*
X38500Y132500D01*
X38600Y132150D01*
X38850Y131800D01*
X39150Y131600D01*
X39500Y131550D01*
X39900Y131650D01*
X40200Y131900D01*
X40500Y132350D01*
G01X43500Y127500D02*
X41000D01*
G01X46500D02*
X49000D01*
G01X44074Y163600D02*
X55674D01*
G01X44074D02*
Y168400D01*
G01X49474Y164800D02*
Y167200D01*
G01X50274D02*
Y164800D01*
G01X50000Y162500D02*
Y154500D01*
X54000D01*
Y162500D01*
X50000D01*
G01X44074Y177600D02*
X55674D01*
G01X44074Y182400D02*
X55674D01*
G01X44074Y177600D02*
Y182400D01*
G01X49474Y178800D02*
Y181200D01*
G01X50274D02*
Y178800D01*
G01X44074Y168400D02*
X55674D01*
G01X46000Y170500D02*
X54000D01*
Y174500D01*
X46000D01*
Y170500D01*
G01X45874Y184000D02*
X53874D01*
Y188000D01*
X45874D01*
Y184000D01*
G01X42384Y215500D02*
X62384D01*
G01X42384Y335500D02*
Y215500D01*
G01X34884Y274500D02*
G03I-1000J0D01*
G01Y304500D02*
G03I-1000J0D01*
G01Y345000D02*
G03I-1000J0D01*
G01X42384Y335500D02*
Y385500D01*
G01D02*
X52384D01*
G01D02*
X62384D01*
Y335500D01*
G01X63670Y5250D02*
Y8250D01*
X61820Y6100D01*
X64320D01*
G01X61580Y36410D02*
X61880Y36160D01*
X62230Y36010D01*
X62680Y35960D01*
X63130Y36060D01*
X63480Y36260D01*
X63730Y36610D01*
X63780Y37010D01*
X63680Y37410D01*
X63430Y37660D01*
X63080Y37860D01*
X62730Y37910D01*
X62380Y37860D01*
X61930Y37660D01*
X62080Y38960D01*
X63430D01*
G01X57374Y49500D02*
Y56500D01*
G01X53374Y49500D02*
Y56500D01*
G01X57374Y49500D02*
G02X53374I-2000J4250D01*
G01X57374Y56500D02*
G03X53374I-2000J-3920D01*
G01X62374Y49500D02*
Y56500D01*
G01X58374Y49500D02*
Y56500D01*
G01X62374Y49500D02*
G02X58374I-2000J4250D01*
G01X62374Y56500D02*
G03X58374I-2000J-3920D01*
G01X68374D02*
Y49500D01*
G01X72374Y56500D02*
Y49500D01*
G01X68374Y56500D02*
G02X72374I2000J-4250D01*
G01X68374Y49500D02*
G03X72374I2000J3920D01*
G01X63374Y56500D02*
Y49500D01*
G01X67374Y56500D02*
Y49500D01*
G01X63374Y56500D02*
G02X67374I2000J-4250D01*
G01X63374Y49500D02*
G03X67374I2000J3920D01*
G01X69874Y105500D02*
Y98500D01*
G01Y105500D02*
G02X73874I2000J-4250D01*
G01X69874Y98500D02*
G03X73874I2000J3920D01*
G01X58027Y127500D02*
X55787D01*
G01X57000Y129125D02*
Y125875D01*
G01X55674Y163600D02*
Y168300D01*
G01Y177600D02*
Y182300D01*
G01X71874Y197500D02*
Y190500D01*
G01Y197500D02*
G02X75874I2000J-4250D01*
G01X71874Y190500D02*
G03X75874I2000J3920D01*
G01X71874Y210000D02*
X78874D01*
G01X71874Y214000D02*
X78874D01*
G01X71874Y210000D02*
G02Y214000I4250J2000D01*
G01X64874Y233000D02*
Y225000D01*
X68874D01*
Y233000D01*
X64874D01*
G01X62384Y335500D02*
Y215500D01*
G01X68874Y251500D02*
Y259500D01*
X64874D01*
Y251500D01*
X68874D01*
G01X71884Y269995D02*
X78884D01*
G01X71884Y273995D02*
X78884D01*
G01X71884Y269995D02*
G02Y273995I4250J2000D01*
G01Y283995D02*
X78884D01*
G01X71884D02*
G02Y287995I4250J2000D01*
G01D02*
X78884D01*
G01X64874Y306500D02*
Y298500D01*
X68874D01*
Y306500D01*
X64874D01*
G01X68874Y325500D02*
Y333500D01*
X64874D01*
Y325500D01*
X68874D01*
G01X71884Y343995D02*
X78884D01*
G01X71884D02*
G02Y347995I4250J2000D01*
G01D02*
X78884D01*
G01X88713Y49429D02*
X83594D01*
Y-4114D01*
G01D02*
X211154D01*
Y49429D01*
X206823D01*
G01X78083Y-2146D02*
X83594D01*
Y3366D01*
X78083D01*
Y-2146D01*
G01X79890Y48590D02*
X80190Y48890D01*
X80540Y49040D01*
X80940Y49090D01*
X81440Y48990D01*
X81790Y48740D01*
X81890Y48440D01*
X81840Y48140D01*
X81640Y47890D01*
X80640Y47390D01*
X80190Y47040D01*
X79890Y46540D01*
X79790Y46090D01*
X81890D01*
G01X81230Y29940D02*
Y32940D01*
X80630Y32340D01*
G01Y29940D02*
X81830D01*
G01X78374Y56500D02*
Y49500D01*
G01X82374Y56500D02*
Y49500D01*
G01X78374Y56500D02*
G02X82374I2000J-4250D01*
G01X78374Y49500D02*
G03X82374I2000J3920D01*
G01X73374Y56500D02*
Y49500D01*
G01X77374Y56500D02*
Y49500D01*
G01X73374Y56500D02*
G02X77374I2000J-4250D01*
G01X73374Y49500D02*
G03X77374I2000J3920D01*
G01X73874Y105500D02*
Y98500D01*
G01X75874Y197500D02*
Y190500D01*
G01X78874Y210000D02*
G03Y214000I-3920J2000D01*
G01X90500Y271500D02*
X83000D01*
Y232500D01*
X93500D01*
Y271500D01*
X90500D01*
G01X84884Y245995D02*
X91884D01*
G01X84884D02*
G02Y249995I4250J2000D01*
G01X91884Y245995D02*
G03Y249995I-3920J2000D01*
G01X84884Y233995D02*
X91884D01*
G01X84884Y237995D02*
X91884D01*
G01X84884Y233995D02*
G02Y237995I4250J2000D01*
G01X91884Y233995D02*
G03Y237995I-3920J2000D01*
G01X84884D02*
X91884D01*
G01X84884Y241995D02*
X91884D01*
G01X84884Y237995D02*
G02Y241995I4250J2000D01*
G01X91884Y237995D02*
G03Y241995I-3920J2000D01*
G01X84884D02*
X91884D01*
G01X84884Y245995D02*
X91884D01*
G01X84884Y241995D02*
G02Y245995I4250J2000D01*
G01X91884Y241995D02*
G03Y245995I-3920J2000D01*
G01X84884Y265995D02*
X91884D01*
G01X84884D02*
G02Y269995I4250J2000D01*
G01X91884Y265995D02*
G03Y269995I-3920J2000D01*
G01X84884Y249995D02*
X91884D01*
G01X84884Y253995D02*
X91884D01*
G01X84884Y249995D02*
G02Y253995I4250J2000D01*
G01X91884Y249995D02*
G03Y253995I-3920J2000D01*
G01X84884Y261995D02*
X91884D01*
G01X84884Y265995D02*
X91884D01*
G01X84884Y261995D02*
G02Y265995I4250J2000D01*
G01X91884Y261995D02*
G03Y265995I-3920J2000D01*
G01X84884Y257995D02*
X91884D01*
G01X84884Y261995D02*
X91884D01*
G01X84884Y257995D02*
G02Y261995I4250J2000D01*
G01X91884Y257995D02*
G03Y261995I-3920J2000D01*
G01X84884Y249995D02*
X91884D01*
G01X84884Y253995D02*
X91884D01*
G01X84884Y257995D02*
X91884D01*
G01X84884Y253995D02*
G02Y257995I4250J2000D01*
G01X91884Y253995D02*
G03Y257995I-3920J2000D01*
G01X86900Y274600D02*
X87100Y274750D01*
X87250Y275000D01*
X87350Y275350D01*
X87250Y275650D01*
X87050Y275850D01*
X86700Y276000D01*
X85350D01*
Y273000D01*
X87000D01*
X87350Y273200D01*
X87550Y273500D01*
X87650Y273850D01*
X87550Y274200D01*
X87250Y274500D01*
X86900Y274600D01*
X85350D01*
G01X88525Y274354D02*
X92061D01*
X91000Y275414D01*
Y273293D01*
X92061Y274354D01*
G01X83500Y271500D02*
Y277500D01*
X93500D01*
Y271500D01*
G01X92000Y350500D02*
X83000D01*
Y282500D01*
X93000D01*
Y350500D01*
X92000D01*
G01X84884Y269995D02*
X91884D01*
G01X78884D02*
G03Y273995I-3920J2000D01*
G01Y283995D02*
G03Y287995I-3920J2000D01*
G01X84884Y283995D02*
X91884D01*
G01X84884D02*
G02Y287995I4250J2000D01*
G01X91884Y283995D02*
G03Y287995I-3920J2000D01*
G01X84884Y299995D02*
X91884D01*
G01X84884Y303995D02*
X91884D01*
G01X84884Y299995D02*
G02Y303995I4250J2000D01*
G01X91884Y299995D02*
G03Y303995I-3920J2000D01*
G01X84884Y295995D02*
X91884D01*
G01X84884Y299995D02*
X91884D01*
G01X84884Y295995D02*
G02Y299995I4250J2000D01*
G01X91884Y295995D02*
G03Y299995I-3920J2000D01*
G01X84884Y291995D02*
X91884D01*
G01X84884Y295995D02*
X91884D01*
G01X84884Y291995D02*
G02Y295995I4250J2000D01*
G01X91884Y291995D02*
G03Y295995I-3920J2000D01*
G01X84884Y287995D02*
X91884D01*
G01X84884Y291995D02*
X91884D01*
G01X84884Y287995D02*
G02Y291995I4250J2000D01*
G01X91884Y287995D02*
G03Y291995I-3920J2000D01*
G01X84884Y303995D02*
X91884D01*
G01X84884D02*
G02Y307995I4250J2000D01*
G01X91884Y303995D02*
G03Y307995I-3920J2000D01*
G01X84884Y287995D02*
X91884D01*
G01X84884Y323995D02*
X91884D01*
G01X84884D02*
G02Y327995I4250J2000D01*
G01X91884Y323995D02*
G03Y327995I-3920J2000D01*
G01X84884Y319995D02*
X91884D01*
G01X84884Y323995D02*
X91884D01*
G01X84884Y319995D02*
G02Y323995I4250J2000D01*
G01X91884Y319995D02*
G03Y323995I-3920J2000D01*
G01X84884Y315995D02*
X91884D01*
G01X84884Y319995D02*
X91884D01*
G01X84884Y315995D02*
G02Y319995I4250J2000D01*
G01X91884Y315995D02*
G03Y319995I-3920J2000D01*
G01X84884Y311995D02*
X91884D01*
G01X84884Y315995D02*
X91884D01*
G01X84884Y311995D02*
G02Y315995I4250J2000D01*
G01X91884Y311995D02*
G03Y315995I-3920J2000D01*
G01X84884Y307995D02*
X91884D01*
G01X84884Y311995D02*
X91884D01*
G01X84884Y307995D02*
G02Y311995I4250J2000D01*
G01X91884Y307995D02*
G03Y311995I-3920J2000D01*
G01X84884Y307995D02*
X91884D01*
G01X84884Y343995D02*
X91884D01*
G01X84884D02*
G02Y347995I4250J2000D01*
G01X91884Y343995D02*
G03Y347995I-3920J2000D01*
G01X84884Y339995D02*
X91884D01*
G01X84884Y343995D02*
X91884D01*
G01X84884Y339995D02*
G02Y343995I4250J2000D01*
G01X91884Y339995D02*
G03Y343995I-3920J2000D01*
G01X84884Y335995D02*
X91884D01*
G01X84884Y339995D02*
X91884D01*
G01X84884Y335995D02*
G02Y339995I4250J2000D01*
G01X91884Y335995D02*
G03Y339995I-3920J2000D01*
G01X84884Y331995D02*
X91884D01*
G01X84884Y335995D02*
X91884D01*
G01X84884Y331995D02*
G02Y335995I4250J2000D01*
G01X91884Y331995D02*
G03Y335995I-3920J2000D01*
G01X84884Y327995D02*
X91884D01*
G01X84884Y331995D02*
X91884D01*
G01X84884Y327995D02*
G02Y331995I4250J2000D01*
G01X91884Y327995D02*
G03Y331995I-3920J2000D01*
G01X84884Y327995D02*
X91884D01*
G01X78884Y343995D02*
G03Y347995I-3920J2000D01*
G01X84250Y352000D02*
X85500Y355000D01*
X86750Y352000D01*
G01X86300Y353050D02*
X84700D01*
G01X83000Y350500D02*
Y356500D01*
X93000D01*
Y350500D01*
G01X88379Y353500D02*
X91914D01*
X90854Y354561D01*
Y352439D01*
X91914Y353500D01*
G01X84884Y347995D02*
X91884D01*
G01X102500Y64000D02*
X95500D01*
G01X102500Y68000D02*
G02Y64000I-4250J-2000D01*
G01X95500Y68000D02*
G03Y64000I3920J-2000D01*
G01X102500Y63500D02*
X95500D01*
G01X102500Y59500D02*
X95500D01*
G01X102500Y63500D02*
G02Y59500I-4250J-2000D01*
G01X95500Y63500D02*
G03Y59500I3920J-2000D01*
G01X104300Y59300D02*
X93700D01*
G01X104300Y54700D02*
X93700D01*
G01Y59300D02*
G03Y54700I4075J-2300D01*
G01X104300Y59300D02*
G02Y54700I-4094J-2300D01*
G01X115878Y49429D02*
X109972D01*
G01X102098D02*
X95799D01*
G01X102500Y68000D02*
X95500D01*
G01X95874Y106000D02*
Y98000D01*
X99874D01*
Y106000D01*
X95874D01*
G01X110374Y190500D02*
Y197500D01*
G01X114374Y190500D02*
G02X110374I-2000J4250D01*
G01X114374Y197500D02*
G03X110374I-2000J-3920D01*
G01X105374D02*
Y190500D01*
G01X109374Y197500D02*
Y190500D01*
G01X105374Y197500D02*
G02X109374I2000J-4250D01*
G01X105374Y190500D02*
G03X109374I2000J3920D01*
G01X99874Y190000D02*
Y198000D01*
X95874D01*
Y190000D01*
X99874D01*
G01X104374D02*
Y198000D01*
X100374D01*
Y190000D01*
X104374D01*
G01X102874Y214000D02*
X95874D01*
G01X102874Y210000D02*
X95874D01*
G01X102874Y214000D02*
G02Y210000I-4250J-2000D01*
G01X95874Y214000D02*
G03Y210000I3920J-2000D01*
G01X108374Y233000D02*
Y225000D01*
X112374D01*
Y233000D01*
X108374D01*
G01X112600Y218600D02*
X112300Y218250D01*
X111900Y218050D01*
X111450Y218000D01*
X111050Y218050D01*
X110650Y218300D01*
X110400Y218600D01*
X110350Y218900D01*
X110450Y219250D01*
X110800Y219500D01*
X111150Y219600D01*
X111600D01*
G01X111150D02*
X110850Y219750D01*
X110600Y220000D01*
X110500Y220300D01*
X110600Y220600D01*
X110850Y220850D01*
X111300Y221000D01*
X111750Y220950D01*
X112200Y220750D01*
G01X107890Y218000D02*
Y221000D01*
X109740Y218850D01*
X107240D01*
G01X112374Y251500D02*
Y259500D01*
X108374D01*
Y251500D01*
X112374D01*
G01X102884Y283995D02*
X95884D01*
G01X102884Y287995D02*
G02Y283995I-4250J-2000D01*
G01X95884Y287995D02*
G03Y283995I3920J-2000D01*
G01X102884Y273995D02*
X95884D01*
G01X102884Y269995D02*
X95884D01*
G01X102884Y273995D02*
G02Y269995I-4250J-2000D01*
G01X95884Y273995D02*
G03Y269995I3920J-2000D01*
G01X102884Y287995D02*
X95884D01*
G01X108374Y309000D02*
Y301000D01*
X112374D01*
Y309000D01*
X108374D01*
G01X112374Y325500D02*
Y333500D01*
X108374D01*
Y325500D01*
X112374D01*
G01X102884Y343995D02*
X95884D01*
G01X102884Y347995D02*
G02Y343995I-4250J-2000D01*
G01X95884Y347995D02*
G03Y343995I3920J-2000D01*
G01X102884Y347995D02*
X95884D01*
G01X111450Y383500D02*
X111150Y383800D01*
X110800Y383950D01*
X110400Y384000D01*
X109900Y383900D01*
X109550Y383650D01*
X109450Y383350D01*
X109500Y383050D01*
X109700Y382800D01*
X110700Y382300D01*
X111150Y381950D01*
X111450Y381450D01*
X111550Y381000D01*
X109450D01*
G01X130000Y63500D02*
X123000D01*
G01X130000Y59500D02*
X123000D01*
G01X130000Y63500D02*
G02Y59500I-4250J-2000D01*
G01X123000Y63500D02*
G03Y59500I3920J-2000D01*
G01X130000Y64000D02*
X123000D01*
G01X130000Y68000D02*
G02Y64000I-4250J-2000D01*
G01X123000Y68000D02*
G03Y64000I3920J-2000D01*
G01X131800Y59300D02*
X121200D01*
G01X131800Y54700D02*
X121200D01*
G01Y59300D02*
G03Y54700I4075J-2300D01*
G01X131800Y59300D02*
G02Y54700I-4094J-2300D01*
G01X129658Y49429D02*
X124146D01*
G01X130000Y68000D02*
X123000D01*
G01X123874Y98500D02*
Y105500D01*
G01X119874Y98500D02*
Y105500D01*
G01X123874Y98500D02*
G02X119874I-2000J4250D01*
G01X123874Y105500D02*
G03X119874I-2000J-3920D01*
G01X126374Y190500D02*
Y197500D01*
G01X122374Y190500D02*
Y197500D01*
G01X126374Y190500D02*
G02X122374I-2000J4250D01*
G01X126374Y197500D02*
G03X122374I-2000J-3920D01*
G01X114374Y190500D02*
Y197500D01*
G01X118374Y190500D02*
Y197500D01*
G01X114374Y190500D02*
Y197500D01*
G01X118374Y190500D02*
G02X114374I-2000J4250D01*
G01X118374Y197500D02*
G03X114374I-2000J-3920D01*
G01X122374Y190500D02*
Y197500D01*
G01X118374Y190500D02*
Y197500D01*
G01X122374Y190500D02*
G02X118374I-2000J4250D01*
G01X122374Y197500D02*
G03X118374I-2000J-3920D01*
G01X130374Y190500D02*
Y197500D01*
G01X126374Y190500D02*
Y197500D01*
G01X130374Y190500D02*
G02X126374I-2000J4250D01*
G01X130374Y197500D02*
G03X126374I-2000J-3920D01*
G01X130374Y190500D02*
Y197500D01*
G01X134374Y190500D02*
G02X130374I-2000J4250D01*
G01X134374Y197500D02*
G03X130374I-2000J-3920D01*
G01X144179Y309555D02*
Y396169D01*
X146148Y398138D01*
X116620D01*
Y202862D01*
X146148D01*
Y291445D01*
G01X118589Y204831D02*
X116620Y202862D01*
G01X144179Y396169D02*
X118589D01*
Y204831D01*
X144179D01*
Y291445D01*
G01X148904Y400500D02*
Y200500D01*
X113864D01*
Y400500D01*
X148904D01*
G01X113864Y212508D02*
Y212311D01*
X113077D01*
Y212508D01*
X113864D01*
G01Y300598D02*
Y300402D01*
X113077D01*
Y300598D01*
X113864D01*
G01Y388689D02*
Y388492D01*
X113077D01*
Y388689D01*
X113864D01*
G01X118589Y396169D02*
X116620Y398138D01*
G01X158000Y64500D02*
X151000D01*
G01Y68500D02*
G03Y64500I3920J-2000D01*
G01X158000Y64000D02*
X151000D01*
G01X158000Y60000D02*
X151000D01*
G01Y64000D02*
G03Y60000I3920J-2000D01*
G01X159800Y59800D02*
X149200D01*
G01X159800Y55200D02*
X149200D01*
G01Y59800D02*
G03Y55200I4075J-2300D01*
G01X157217Y49429D02*
X151311D01*
G01X143043D02*
X137925D01*
G01X158000Y68500D02*
X151000D01*
G01X138374Y121000D02*
X145374D01*
G01X138374Y125000D02*
X145374D01*
G01X138374Y121000D02*
G02Y125000I4250J2000D01*
G01X145374Y121000D02*
G03Y125000I-3920J2000D01*
G01X138374Y117000D02*
X145374D01*
G01X138374Y121000D02*
X145374D01*
G01X138374Y117000D02*
G02Y121000I4250J2000D01*
G01X145374Y117000D02*
G03Y121000I-3920J2000D01*
G01X138374Y113000D02*
X145374D01*
G01X138374Y117000D02*
X145374D01*
G01X138374Y113000D02*
G02Y117000I4250J2000D01*
G01X145374Y113000D02*
G03Y117000I-3920J2000D01*
G01X137874Y125000D02*
X145874D01*
Y129000D01*
X137874D01*
Y125000D01*
G01X138374Y137000D02*
X145374D01*
G01X138374Y141000D02*
X145374D01*
G01X138374Y137000D02*
G02Y141000I4250J2000D01*
G01X145374Y137000D02*
G03Y141000I-3920J2000D01*
G01X138374Y129000D02*
X145374D01*
G01X138374Y133000D02*
X145374D01*
G01X138374Y129000D02*
G02Y133000I4250J2000D01*
G01X145374Y129000D02*
G03Y133000I-3920J2000D01*
G01X138374Y145000D02*
X145374D01*
G01X138374D02*
G02Y149000I4250J2000D01*
G01X145374Y145000D02*
G03Y149000I-3920J2000D01*
G01X138374Y141000D02*
X145374D01*
G01X138374Y145000D02*
X145374D01*
G01X138374Y141000D02*
G02Y145000I4250J2000D01*
G01X145374Y141000D02*
G03Y145000I-3920J2000D01*
G01X138374Y133000D02*
X145374D01*
G01X138374Y137000D02*
X145374D01*
G01X138374Y133000D02*
G02Y137000I4250J2000D01*
G01X145374Y133000D02*
G03Y137000I-3920J2000D01*
G01X138374Y153000D02*
X145374D01*
G01X138374Y157000D02*
X145374D01*
G01X138374Y153000D02*
G02Y157000I4250J2000D01*
G01X145374Y153000D02*
G03Y157000I-3920J2000D01*
G01X138374Y165000D02*
X145374D01*
G01X138374D02*
G02Y169000I4250J2000D01*
G01X145374Y165000D02*
G03Y169000I-3920J2000D01*
G01X138374Y161000D02*
X145374D01*
G01X138374Y165000D02*
X145374D01*
G01X138374Y161000D02*
G02Y165000I4250J2000D01*
G01X145374Y161000D02*
G03Y165000I-3920J2000D01*
G01X138374Y157000D02*
X145374D01*
G01X138374Y161000D02*
X145374D01*
G01X138374Y157000D02*
G02Y161000I4250J2000D01*
G01X145374Y157000D02*
G03Y161000I-3920J2000D01*
G01X138374Y149000D02*
X145374D01*
G01X138374Y153000D02*
X145374D01*
G01X138374Y149000D02*
G02Y153000I4250J2000D01*
G01X145374Y149000D02*
G03Y153000I-3920J2000D01*
G01X138374Y149000D02*
X145374D01*
G01X138374Y169000D02*
X145374D01*
G01X138374Y177000D02*
X145374D01*
G01X138374Y181000D02*
X145374D01*
G01X138374Y177000D02*
G02Y181000I4250J2000D01*
G01X145374Y177000D02*
G03Y181000I-3920J2000D01*
G01X138374Y173000D02*
X145374D01*
G01X138374Y177000D02*
X145374D01*
G01X138374Y173000D02*
G02Y177000I4250J2000D01*
G01X145374Y173000D02*
G03Y177000I-3920J2000D01*
G01X138374Y169000D02*
X145374D01*
G01X138374Y173000D02*
X145374D01*
G01X138374Y169000D02*
G02Y173000I4250J2000D01*
G01X145374Y169000D02*
G03Y173000I-3920J2000D01*
G01X138374Y185000D02*
X145374D01*
G01X138374D02*
G02Y189000I4250J2000D01*
G01X145374Y185000D02*
G03Y189000I-3920J2000D01*
G01X138374Y181000D02*
X145374D01*
G01X138374Y185000D02*
X145374D01*
G01X138374Y181000D02*
G02Y185000I4250J2000D01*
G01X145374Y181000D02*
G03Y185000I-3920J2000D01*
G01X134374Y190500D02*
Y197500D01*
G01X138374Y190500D02*
Y197500D01*
G01X134374Y190500D02*
Y197500D01*
G01X138374Y190500D02*
G02X134374I-2000J4250D01*
G01X138374Y197500D02*
G03X134374I-2000J-3920D01*
G01X138374Y189000D02*
X145374D01*
G01X144179Y204831D02*
X146148Y202862D01*
G01X156100Y212100D02*
X155800Y211750D01*
X155400Y211550D01*
X154950Y211500D01*
X154550Y211550D01*
X154150Y211800D01*
X153900Y212100D01*
X153850Y212400D01*
X153950Y212750D01*
X154300Y213000D01*
X154650Y213100D01*
X155100D01*
G01X154650D02*
X154350Y213250D01*
X154100Y213500D01*
X154000Y213800D01*
X154100Y214100D01*
X154350Y214350D01*
X154800Y214500D01*
X155250Y214450D01*
X155700Y214250D01*
G01X153090Y212100D02*
X152790Y211750D01*
X152390Y211550D01*
X151940Y211500D01*
X151540Y211550D01*
X151140Y211800D01*
X150890Y212100D01*
X150840Y212400D01*
X150940Y212750D01*
X151290Y213000D01*
X151640Y213100D01*
X152090D01*
G01X151640D02*
X151340Y213250D01*
X151090Y213500D01*
X150990Y213800D01*
X151090Y214100D01*
X151340Y214350D01*
X151790Y214500D01*
X152240Y214450D01*
X152690Y214250D01*
G01X148904Y291642D02*
X142604D01*
Y309358D01*
X148904D01*
G01X146148Y309555D02*
Y398138D01*
G01X150646Y379998D02*
X153795D01*
Y378423D01*
X150646Y379998D01*
X153795Y381573D01*
Y379998D01*
X153008Y380785D01*
X151433Y379998D01*
X153795Y380785D01*
X153008D01*
Y379210D01*
X152220Y379998D01*
Y379210D01*
X153795D01*
X153008Y379998D01*
G01X158000Y68500D02*
G02Y64500I-4250J-2000D01*
G01Y64000D02*
G02Y60000I-4250J-2000D01*
G01X159800Y59800D02*
G02Y55200I-4094J-2300D01*
G01X170996Y49429D02*
X165091D01*
G01X170500Y95000D02*
Y102000D01*
G01X174500Y95000D02*
G02X170500I-2000J4250D01*
G01X174500Y102000D02*
G03X170500I-2000J-3920D01*
G01X162000Y138000D02*
Y165000D01*
G01X191000Y138000D02*
X162000D01*
G01X167400Y138700D02*
Y150300D01*
G01X162600Y138700D02*
Y150300D01*
G01X167400Y138700D02*
X162600D01*
G01X166200Y144100D02*
X163800D01*
G01Y144900D02*
X166200D01*
G01X176000Y139500D02*
Y147500D01*
X172000D01*
Y139500D01*
X176000D01*
G01X172000D02*
Y147500D01*
X168000D01*
Y139500D01*
X172000D01*
G01X162000Y165000D02*
X179000D01*
G01X167400Y150300D02*
X162700D01*
G01X161072Y159100D02*
X161422Y158800D01*
X161622Y158400D01*
X161672Y157950D01*
X161622Y157550D01*
X161372Y157150D01*
X161072Y156900D01*
X160772Y156850D01*
X160422Y156950D01*
X160172Y157300D01*
X160072Y157650D01*
Y158100D01*
G01Y157650D02*
X159922Y157350D01*
X159672Y157100D01*
X159372Y157000D01*
X159072Y157100D01*
X158822Y157350D01*
X158672Y157800D01*
X158722Y158250D01*
X158922Y158700D01*
G01X166244Y160756D02*
Y163984D01*
X170181D01*
G01X171756Y159181D02*
Y156819D01*
G01X170181Y152016D02*
X166244D01*
Y155244D01*
G01X162500Y173500D02*
X179000D01*
G01X162500Y189500D02*
Y173500D01*
G01X177500Y189500D02*
X162500D01*
G01X160884Y236000D02*
Y240000D01*
X163884Y238000D01*
X160884Y236000D01*
G01X163884Y238000D02*
Y235500D01*
G01Y238000D02*
Y240500D01*
G01X154384Y249500D02*
X162384D01*
Y262500D01*
X154384D01*
Y257000D01*
X155384Y256000D01*
X154384Y255000D01*
Y249500D01*
G01X156884Y265000D02*
G03I-1000J0D01*
G01X168384Y249500D02*
X176384D01*
Y262500D01*
X168384D01*
Y257000D01*
X169384Y256000D01*
X168384Y255000D01*
Y249500D01*
G01X170884Y265000D02*
G03I-1000J0D01*
G01X154384Y289000D02*
X162384D01*
Y302000D01*
X154384D01*
Y296500D01*
X155384Y295500D01*
X154384Y294500D01*
Y289000D01*
G01X156884Y304500D02*
G03I-1000J0D01*
G01X168384Y289000D02*
X176384D01*
Y302000D01*
X168384D01*
Y296500D01*
X169384Y295500D01*
X168384Y294500D01*
Y289000D01*
G01X170884Y304500D02*
G03I-1000J0D01*
G01X168384Y323500D02*
X176384D01*
Y336500D01*
X168384D01*
Y331000D01*
X169384Y330000D01*
X168384Y329000D01*
Y323500D01*
G01X154384D02*
X162384D01*
Y336500D01*
X154384D01*
Y331000D01*
X155384Y330000D01*
X154384Y329000D01*
Y323500D01*
G01X170884Y339000D02*
G03I-1000J0D01*
G01X156884D02*
G03I-1000J0D01*
G01X185500Y64500D02*
X178500D01*
G01X185500Y68500D02*
G02Y64500I-4250J-2000D01*
G01X178500Y68500D02*
G03Y64500I3920J-2000D01*
G01X185500Y64000D02*
X178500D01*
G01X185500Y60000D02*
X178500D01*
G01X185500Y64000D02*
G02Y60000I-4250J-2000D01*
G01X178500Y64000D02*
G03Y60000I3920J-2000D01*
G01X187300Y59800D02*
X176700D01*
G01X187300Y55200D02*
X176700D01*
G01Y59800D02*
G03Y55200I4075J-2300D01*
G01X187300Y59800D02*
G02Y55200I-4094J-2300D01*
G01X198555Y49429D02*
X193043D01*
G01X184776D02*
X178870D01*
G01X185500Y68500D02*
X178500D01*
G01X174500Y95000D02*
Y102000D01*
G01X186500D02*
Y95000D01*
G01X190500Y102000D02*
Y95000D01*
G01X186500Y102000D02*
G02X190500I2000J-4250D01*
G01X186500Y95000D02*
G03X190500I2000J3920D01*
G01X182500D02*
Y102000D01*
G01X178500Y95000D02*
Y102000D01*
G01X182500Y95000D02*
G02X178500I-2000J4250D01*
G01X182500Y102000D02*
G03X178500I-2000J-3920D01*
G01X186500Y95000D02*
Y102000D01*
G01X182500Y95000D02*
Y102000D01*
G01X186500Y95000D02*
G02X182500I-2000J4250D01*
G01X186500Y102000D02*
G03X182500I-2000J-3920D01*
G01X178500Y95000D02*
Y102000D01*
G01X174500Y95000D02*
Y102000D01*
G01X178500Y95000D02*
G02X174500I-2000J4250D01*
G01X178500Y102000D02*
G03X174500I-2000J-3920D01*
G01X191000Y173000D02*
Y138000D01*
G01X182500Y147000D02*
Y140000D01*
G01X186500Y147000D02*
Y140000D01*
G01X182500D02*
G03X186500I2000J3920D01*
G01X178500Y147000D02*
Y140000D01*
G01X182500Y147000D02*
Y140000D01*
G01X178500D02*
G03X182500I2000J3920D01*
G01X186500Y147000D02*
Y140000D01*
G01X190500Y147000D02*
Y140000D01*
G01X186500D02*
G03X190500I2000J3920D01*
G01X179000Y165000D02*
Y173500D01*
G01X182500Y147000D02*
G02X186500I2000J-4250D01*
G01X178500D02*
G02X182500I2000J-4250D01*
G01X186500D02*
G02X190500I2000J-4250D01*
G01X180500Y164000D02*
X188500D01*
Y168000D01*
X180500D01*
Y164000D01*
G01X190300Y162900D02*
Y158100D01*
G01X178700Y162900D02*
Y158200D01*
G01X190300Y158100D02*
X178700D01*
G01X190300Y162900D02*
X178700D01*
G01X190300Y156900D02*
Y152100D01*
G01X178700Y156900D02*
Y152200D01*
G01X190300Y152100D02*
X178700D01*
G01X190300Y156900D02*
X178700D01*
G01X177917Y155481D02*
X177617Y155181D01*
X177467Y154831D01*
X177417Y154431D01*
X177517Y153931D01*
X177767Y153581D01*
X178067Y153481D01*
X178367Y153531D01*
X178617Y153731D01*
X179117Y154731D01*
X179467Y155181D01*
X179967Y155481D01*
X180417Y155581D01*
Y153481D01*
G01X176555Y161937D02*
X179055Y162937D01*
Y160937D01*
X176555Y161937D01*
G01X189500Y173500D02*
X190000D01*
G01X179000D02*
X191000D01*
G01X190000D02*
Y205500D01*
G01X191000Y173500D02*
Y173000D01*
G01X188500Y172500D02*
X180500D01*
Y168500D01*
X188500D01*
Y172500D01*
G01X190000Y205500D02*
X177500D01*
G01D02*
Y189500D01*
G01X211000Y196000D02*
X192000D01*
Y187000D01*
X211000D01*
Y196000D01*
G01X196000Y268000D02*
X186000D01*
Y230500D01*
X199500D01*
Y268000D01*
X196000D01*
G01X191900Y270600D02*
X192100Y270750D01*
X192250Y271000D01*
X192350Y271350D01*
X192250Y271650D01*
X192050Y271850D01*
X191700Y272000D01*
X190350D01*
Y269000D01*
X192000D01*
X192350Y269200D01*
X192550Y269500D01*
X192650Y269850D01*
X192550Y270200D01*
X192250Y270500D01*
X191900Y270600D01*
X190350D01*
G01X199500Y268000D02*
Y273500D01*
X186000D01*
Y268000D01*
G01X180000Y340000D02*
X192500D01*
Y273500D01*
X178500D01*
Y340000D01*
X180000D01*
G01X181750Y341500D02*
X183000Y344500D01*
X184250Y341500D01*
G01X183800Y342550D02*
X182200D01*
G01X189621Y343000D02*
X186086D01*
X187146Y341939D01*
Y344061D01*
X186086Y343000D01*
G01X178500Y340000D02*
Y345500D01*
X189000D01*
G01X191000Y339500D02*
X210000D01*
Y348500D01*
X191000D01*
Y339500D01*
G01X196474Y366900D02*
Y387100D01*
X183274D01*
Y366900D01*
X196474D01*
G01X191000Y349000D02*
X210000D01*
Y358000D01*
X191000D01*
Y349000D01*
G01X189874Y376000D02*
Y374500D01*
G01Y378000D02*
Y379500D01*
G01X193874Y378000D02*
X185874D01*
G01X193874Y376000D02*
X185874D01*
G01X211154Y-2146D02*
X216665D01*
Y3366D01*
X211154D01*
Y-2146D01*
G01X213200Y45690D02*
Y48690D01*
X212600Y48090D01*
G01Y45690D02*
X213800D01*
G01X216210D02*
X216560Y45740D01*
X216960Y45890D01*
X217210Y46140D01*
X217310Y46490D01*
X217210Y46840D01*
X216910Y47140D01*
X216460Y47290D01*
X215960D01*
X215660Y47390D01*
X215410Y47640D01*
X215310Y47990D01*
X215460Y48340D01*
X215810Y48590D01*
X216210Y48690D01*
X216610Y48590D01*
X216960Y48340D01*
X217110Y47990D01*
X217010Y47640D01*
X216760Y47390D01*
X216460Y47290D01*
X215960D01*
X215510Y47140D01*
X215210Y46840D01*
X215110Y46490D01*
X215210Y46140D01*
X215460Y45890D01*
X215860Y45740D01*
X216210Y45690D01*
G01X213200Y30340D02*
Y33340D01*
X212600Y32740D01*
G01Y30340D02*
X213800D01*
G01X216110D02*
X216210Y30990D01*
X216360Y31540D01*
X216560Y32040D01*
X216810Y32590D01*
X217210Y33340D01*
X215210D01*
G01X225500Y223500D02*
Y260500D01*
X206500D01*
Y223500D01*
X225500D01*
G01X203500Y253973D02*
Y256213D01*
G01X205125Y255000D02*
X201875D01*
G01X225500Y260500D02*
Y262000D01*
X206500D01*
Y260500D01*
X225500D01*
Y261000D01*
X206500D01*
Y261500D01*
X225500D01*
G01X197475Y270646D02*
X193939D01*
X195000Y269586D01*
Y271707D01*
X193939Y270646D01*
G01X208126Y300567D02*
X203008D01*
Y271433D01*
X208126D01*
G01X201500Y311500D02*
X214500D01*
G01X201500Y328000D02*
Y310500D01*
X214500D01*
Y328000D01*
G01Y311000D02*
X201500D01*
G01X206000Y325000D02*
X210000D01*
X208000Y323000D01*
X206000Y325000D01*
G01X208000Y323000D02*
Y321000D01*
G01Y325000D02*
Y327000D01*
G01X210000Y323000D02*
X206000D01*
G01X201500Y328000D02*
Y336500D01*
X214500D01*
Y328000D01*
G01X210474Y366900D02*
Y387100D01*
X197274D01*
Y366900D01*
X210474D01*
G01X203874Y376000D02*
Y374500D01*
G01Y378000D02*
Y379500D01*
G01X207874Y378000D02*
X199874D01*
G01X207874Y376000D02*
X199874D01*
G01X223307Y21000D02*
Y354D01*
X252441D01*
Y21000D01*
G01Y28000D02*
Y30748D01*
X223307D01*
Y28000D01*
G01X233500Y118500D02*
X226500D01*
G01X233500Y114500D02*
X226500D01*
G01Y118500D02*
G03Y114500I3920J-2000D01*
G01Y110000D02*
X233500D01*
G01X226500Y114000D02*
X233500D01*
G01X226500Y110000D02*
G02Y114000I4250J2000D01*
G01X226000Y119000D02*
X234000D01*
Y123000D01*
X226000D01*
Y119000D01*
G01X234000Y127500D02*
X226000D01*
Y123500D01*
X234000D01*
Y127500D01*
G01X233500Y136500D02*
X226500D01*
G01X233500Y132500D02*
X226500D01*
G01Y136500D02*
G03Y132500I3920J-2000D01*
G01X233500Y145500D02*
X226500D01*
G01X233500Y141500D02*
X226500D01*
G01Y145500D02*
G03Y141500I3920J-2000D01*
G01X234000Y141000D02*
X226000D01*
Y137000D01*
X234000D01*
Y141000D01*
G01Y132000D02*
X226000D01*
Y128000D01*
X234000D01*
Y132000D01*
G01X226500Y169000D02*
X233500D01*
G01X226500Y173000D02*
X233500D01*
G01X226500Y169000D02*
G02Y173000I4250J2000D01*
G01X233500Y177500D02*
X226500D01*
G01X233500Y173500D02*
X226500D01*
G01Y177500D02*
G03Y173500I3920J-2000D01*
G01X234000Y186500D02*
X226000D01*
Y182500D01*
X234000D01*
Y186500D01*
G01X226000Y178000D02*
X234000D01*
Y182000D01*
X226000D01*
Y178000D01*
G01X233500Y195500D02*
X226500D01*
G01X233500Y191500D02*
X226500D01*
G01Y195500D02*
G03Y191500I3920J-2000D01*
G01X233500Y204500D02*
X226500D01*
G01X233500Y200500D02*
X226500D01*
G01Y204500D02*
G03Y200500I3920J-2000D01*
G01X234000Y200000D02*
X226000D01*
Y196000D01*
X234000D01*
Y200000D01*
G01Y191000D02*
X226000D01*
Y187000D01*
X234000D01*
Y191000D01*
G01X232200Y273600D02*
X243800D01*
G01X232200Y278400D02*
X243800D01*
G01X232200Y273600D02*
Y278400D01*
G01X223874Y300567D02*
X228992D01*
Y271433D01*
X223874D01*
G01X232200Y299600D02*
X243800D01*
G01X232200Y304400D02*
X243800D01*
G01X232200Y299600D02*
Y304400D01*
G01X231000Y290500D02*
X245000D01*
G01X231000Y297500D02*
X245000D01*
G01X231000Y290500D02*
Y297500D01*
G01X217600Y333800D02*
Y322200D01*
G01X222400Y333800D02*
Y322200D01*
G01X217600D02*
X222300D01*
G01X217600Y333800D02*
X222400D01*
G01X218800Y328400D02*
X221200D01*
G01Y327600D02*
X218800D01*
G01X228000Y357500D02*
Y350500D01*
G01X232000Y357500D02*
Y350500D01*
G01X228000Y357500D02*
G02X232000I2000J-4250D01*
G01X228000Y350500D02*
G03X232000I2000J3920D01*
G01X233500Y118500D02*
G02Y114500I-4250J-2000D01*
G01Y110000D02*
G03Y114000I-3920J2000D01*
G01Y136500D02*
G02Y132500I-4250J-2000D01*
G01Y145500D02*
G02Y141500I-4250J-2000D01*
G01X247400Y142200D02*
Y153800D01*
G01X242600Y142200D02*
Y153800D01*
G01X247400Y142200D02*
X242600D01*
G01X253400D02*
X248600D01*
G01D02*
Y153800D01*
G01X253400Y142200D02*
Y153800D01*
G01X247400D02*
X242700D01*
G01X246200Y147600D02*
X243800D01*
G01Y148400D02*
X246200D01*
G01X270750Y183750D02*
X253250Y166250D01*
G01X253400Y153800D02*
X248700D01*
G01X233500Y169000D02*
G03Y173000I-3920J2000D01*
G01Y177500D02*
G02Y173500I-4250J-2000D01*
G01X270500Y166500D02*
X253500Y183500D01*
G01X233500Y195500D02*
G02Y191500I-4250J-2000D01*
G01Y204500D02*
G02Y200500I-4250J-2000D01*
G01X247400Y201200D02*
Y212800D01*
G01X242600Y201200D02*
Y212800D01*
G01X247400Y201200D02*
X242600D01*
G01X246200Y206600D02*
X243800D01*
G01X253400Y201200D02*
X248600D01*
G01D02*
Y212800D01*
G01X253400Y201200D02*
Y212800D01*
G01X247400D02*
X242700D01*
G01X243800Y207400D02*
X246200D01*
G01X253400Y212800D02*
X248700D01*
G01X247268Y231268D02*
Y242882D01*
G01X276795Y231268D02*
X247268D01*
G01X234000Y262000D02*
X242000D01*
Y266000D01*
X234000D01*
Y262000D01*
G01X247268Y253118D02*
Y264732D01*
G01D02*
X276795D01*
G01X243800Y273600D02*
Y278300D01*
G01X237600Y274800D02*
Y277200D01*
G01X238400D02*
Y274800D01*
G01X234000Y268000D02*
X242000D01*
Y272000D01*
X234000D01*
Y268000D01*
G01X250000Y305500D02*
Y298500D01*
G01Y305500D02*
G02X254000I2000J-4250D01*
G01X250000Y298500D02*
G03X254000I2000J3920D01*
G01X246000Y305500D02*
Y298500D01*
G01X250000Y305500D02*
Y298500D01*
G01X246000Y305500D02*
G02X250000I2000J-4250D01*
G01X246000Y298500D02*
G03X250000I2000J3920D01*
G01X243800Y299600D02*
Y304300D01*
G01X237600Y300800D02*
Y303200D01*
G01X238400D02*
Y300800D01*
G01X237500Y294000D02*
X236800D01*
G01X238500D02*
X239200D01*
G01X238500Y296000D02*
Y292000D01*
G01X237500D02*
Y296000D01*
G01X245000Y290500D02*
Y297500D01*
G01X254000Y324000D02*
Y332000D01*
X250000D01*
Y324000D01*
X254000D01*
G01X250000Y350500D02*
Y357500D01*
G01X246000Y350500D02*
Y357500D01*
G01X250000Y350500D02*
G02X246000I-2000J4250D01*
G01X250000Y357500D02*
G03X246000I-2000J-3920D01*
G01X238000Y350000D02*
Y358000D01*
X234000D01*
Y350000D01*
X238000D01*
G01X244000D02*
Y358000D01*
X240000D01*
Y350000D01*
X244000D01*
G01X263000Y144500D02*
Y151500D01*
G01X259000Y144500D02*
Y151500D01*
G01X263000Y144500D02*
G02X259000I-2000J4250D01*
G01X263500Y151500D02*
Y144500D01*
G01X267500Y151500D02*
Y144500D01*
G01X263500D02*
G03X267500I2000J3920D01*
G01X272000D02*
Y151500D01*
G01X268000Y144500D02*
Y151500D01*
G01X272000Y144500D02*
G02X268000I-2000J4250D01*
G01X272500D02*
Y151500D01*
G01X276500Y144500D02*
G02X272500I-2000J4250D01*
G01X258500Y144000D02*
Y152000D01*
X254500D01*
Y144000D01*
X258500D01*
G01X263000Y151500D02*
G03X259000I-2000J-3920D01*
G01X263500D02*
G02X267500I2000J-4250D01*
G01X272000D02*
G03X268000I-2000J-3920D01*
G01X276500D02*
G03X272500I-2000J-3920D01*
G01X267840Y164950D02*
G03I-790J0D01*
G01X268820D02*
G03I-1770J0D01*
G01X257600Y164600D02*
Y162900D01*
G01D02*
X258500D01*
G01Y164600D02*
Y162900D01*
G01X258000Y164600D02*
Y162900D01*
G01X256700Y164600D02*
X257600D01*
G01X256300D02*
X265200D01*
G01X255300Y180600D02*
X256300Y164700D01*
G01X269600Y179100D02*
Y181500D01*
G01X267900Y183900D02*
Y184000D01*
G02X268500I300J0D01*
G01Y183600D01*
G02X268100I-200J0D01*
G01Y183700D01*
G01X269600Y181500D02*
X267800D01*
G01X269040Y183750D02*
G03I-790J0D01*
G01X269600Y179100D02*
X267700D01*
G01X267800Y183900D02*
X267700Y179100D01*
G01D02*
X267200Y166700D01*
G01X263300Y185000D02*
Y186200D01*
G01X267700Y183700D02*
G03X263400Y185700I-6727J-8841D01*
G01X260500Y179100D02*
Y178100D01*
G01X264300D02*
X260500D01*
G01X264300Y179100D02*
X260500D01*
G01X264300D02*
Y178100D01*
G01Y178600D02*
X260500D01*
G01X263300Y185000D02*
X259800D01*
G01D02*
Y186200D01*
G01X259900D02*
X263300D01*
G01X257400D02*
Y184600D01*
X258300D01*
Y186200D01*
X257400D01*
G01X257900D02*
X257800D01*
Y184800D01*
G01X267500Y183900D02*
X254900D01*
G01X259700Y185700D02*
G03X255800Y183900I1278J-7895D01*
G01X254840Y183850D02*
Y183060D01*
G01X267700Y183100D02*
X254840Y183060D01*
G01X255260D02*
X255300Y180600D01*
G01X272000Y203500D02*
Y210500D01*
G01X268000Y203500D02*
Y210500D01*
G01X272000Y203500D02*
G02X268000I-2000J4250D01*
G01X263500Y210500D02*
Y203500D01*
G01X267500Y210500D02*
Y203500D01*
G01X263500D02*
G03X267500I2000J3920D01*
G01X272500D02*
Y210500D01*
G01X276500Y203500D02*
G02X272500I-2000J4250D01*
G01X263000D02*
Y210500D01*
G01X259000Y203500D02*
Y210500D01*
G01X263000Y203500D02*
G02X259000I-2000J4250D01*
G01X258500Y203000D02*
Y211000D01*
X254500D01*
Y203000D01*
X258500D01*
G01X272000Y210500D02*
G03X268000I-2000J-3920D01*
G01X263500D02*
G02X267500I2000J-4250D01*
G01X276500D02*
G03X272500I-2000J-3920D01*
G01X263000D02*
G03X259000I-2000J-3920D01*
G01X268126Y300567D02*
X263008D01*
Y271433D01*
X268126D01*
G01X258000Y298500D02*
Y305500D01*
G01X254000Y298500D02*
Y305500D01*
G01X258000Y298500D02*
G02X254000I-2000J4250D01*
G01X258000Y305500D02*
G03X254000I-2000J-3920D01*
G01D02*
Y298500D01*
G01X258000Y324500D02*
Y331500D01*
G01X254000Y324500D02*
Y331500D01*
G01X258000Y324500D02*
G02X254000I-2000J4250D01*
G01X261500Y311500D02*
X274500D01*
G01X261500Y328000D02*
Y310500D01*
X274500D01*
Y328000D01*
G01Y311000D02*
X261500D01*
G01X266000Y325000D02*
X270000D01*
X268000Y323000D01*
X266000Y325000D01*
G01X268000Y323000D02*
Y321000D01*
G01Y325000D02*
Y327000D01*
G01X270000Y323000D02*
X266000D01*
G01X258000Y331500D02*
G03X254000I-2000J-3920D01*
G01X261500Y328000D02*
Y336500D01*
X274500D01*
Y328000D01*
G01X280200Y115600D02*
X291800D01*
G01X280200Y120400D02*
X291800D01*
G01Y115600D02*
Y120300D01*
G01X280200Y115600D02*
Y120400D01*
G01X285600Y116800D02*
Y119200D01*
G01X286400D02*
Y116800D01*
G01X282000Y125500D02*
X290000D01*
Y129500D01*
X282000D01*
Y125500D01*
G01Y121000D02*
X290000D01*
Y125000D01*
X282000D01*
Y121000D01*
G01X280200Y110100D02*
Y114900D01*
G01X291800Y110100D02*
Y114800D01*
G01X280200Y114900D02*
X291800D01*
G01X280200Y110100D02*
X291800D01*
G01X289500Y138500D02*
X282500D01*
G01X289500Y134500D02*
X282500D01*
G01X289500Y138500D02*
G02Y134500I-4250J-2000D01*
G01X282500Y138500D02*
G03Y134500I3920J-2000D01*
G01X289500Y134000D02*
X282500D01*
G01X289500Y130000D02*
X282500D01*
G01X289500Y134000D02*
G02Y130000I-4250J-2000D01*
G01X282500Y134000D02*
G03Y130000I3920J-2000D01*
G01X289500Y143000D02*
X282500D01*
G01X289500Y139000D02*
X282500D01*
G01X289500Y143000D02*
G02Y139000I-4250J-2000D01*
G01X282500Y143000D02*
G03Y139000I3920J-2000D01*
G01X276500Y144500D02*
Y151500D01*
G01X280200Y174600D02*
X291800D01*
G01X280200Y179400D02*
X291800D01*
G01Y174600D02*
Y179300D01*
G01X280200Y174600D02*
Y179400D01*
G01X285600Y175800D02*
Y178200D01*
G01X286400D02*
Y175800D01*
G01X282000Y184500D02*
X290000D01*
Y188500D01*
X282000D01*
Y184500D01*
G01Y180000D02*
X290000D01*
Y184000D01*
X282000D01*
Y180000D01*
G01X280200Y169100D02*
Y173900D01*
G01X291800Y169100D02*
Y173800D01*
G01X280200Y173900D02*
X291800D01*
G01X280200Y169100D02*
X291800D01*
G01X276500Y203500D02*
Y210500D01*
G01X289500Y193000D02*
X282500D01*
G01X289500Y189000D02*
X282500D01*
G01X289500Y193000D02*
G02Y189000I-4250J-2000D01*
G01X282500Y193000D02*
G03Y189000I3920J-2000D01*
G01X289500Y202000D02*
X282500D01*
G01X289500Y198000D02*
X282500D01*
G01X289500Y202000D02*
G02Y198000I-4250J-2000D01*
G01X282500Y202000D02*
G03Y198000I3920J-2000D01*
G01X289500Y197500D02*
X282500D01*
G01X289500Y193500D02*
X282500D01*
G01X289500Y197500D02*
G02Y193500I-4250J-2000D01*
G01X282500Y197500D02*
G03Y193500I3920J-2000D01*
G01X280732Y242882D02*
Y235205D01*
G01D02*
X276795Y231268D01*
G01Y264732D02*
X280732Y260795D01*
G01D02*
Y253118D01*
G01X287559Y256468D02*
X283622D01*
G01X285591Y258437D02*
Y254500D01*
G01X292200Y273600D02*
X303800D01*
G01X292200Y278400D02*
X303800D01*
G01X292200Y273600D02*
Y278400D01*
G01Y267600D02*
X303800D01*
G01X292200Y272400D02*
X303800D01*
G01X292200Y267600D02*
Y272400D01*
G01X283874Y300567D02*
X288992D01*
Y271433D01*
X283874D01*
G01X292200Y299600D02*
X303800D01*
G01X292200Y304400D02*
X303800D01*
G01X292200Y299600D02*
Y304400D01*
G01X291000Y290500D02*
X305000D01*
G01X291000Y297500D02*
X305000D01*
G01X291000Y290500D02*
Y297500D01*
G01X277600Y333800D02*
Y322200D01*
G01X282400Y333800D02*
Y322200D01*
G01X277600D02*
X282300D01*
G01X277600Y333800D02*
X282400D01*
G01X278800Y328400D02*
X281200D01*
G01Y327600D02*
X278800D01*
G01X288000Y357500D02*
Y350500D01*
G01X292000Y357500D02*
Y350500D01*
G01X288000Y357500D02*
G02X292000I2000J-4250D01*
G01X288000Y350500D02*
G03X292000I2000J3920D01*
G01X315000Y118500D02*
X308000D01*
G01X315000Y114500D02*
X308000D01*
G01Y118500D02*
G03Y114500I3920J-2000D01*
G01Y110000D02*
X315000D01*
G01X308000Y114000D02*
X315000D01*
G01X308000Y110000D02*
G02Y114000I4250J2000D01*
G01X307500Y119000D02*
X315500D01*
Y123000D01*
X307500D01*
Y119000D01*
G01X315500Y127500D02*
X307500D01*
Y123500D01*
X315500D01*
Y127500D01*
G01X315000Y145500D02*
X308000D01*
G01X315000Y141500D02*
X308000D01*
G01Y145500D02*
G03Y141500I3920J-2000D01*
G01X315000Y136500D02*
X308000D01*
G01X315000Y132500D02*
X308000D01*
G01Y136500D02*
G03Y132500I3920J-2000D01*
G01X315500Y141000D02*
X307500D01*
Y137000D01*
X315500D01*
Y141000D01*
G01Y132000D02*
X307500D01*
Y128000D01*
X315500D01*
Y132000D01*
G01Y178000D02*
X308500D01*
G01X315500Y174000D02*
X308500D01*
G01Y178000D02*
G03Y174000I3920J-2000D01*
G01Y169500D02*
X315500D01*
G01X308500Y173500D02*
X315500D01*
G01X308500Y169500D02*
G02Y173500I4250J2000D01*
G01X308000Y178500D02*
X316000D01*
Y182500D01*
X308000D01*
Y178500D01*
G01X316000Y187000D02*
X308000D01*
Y183000D01*
X316000D01*
Y187000D01*
G01X315500Y196000D02*
X308500D01*
G01X315500Y192000D02*
X308500D01*
G01Y196000D02*
G03Y192000I3920J-2000D01*
G01X315500Y205000D02*
X308500D01*
G01X315500Y201000D02*
X308500D01*
G01Y205000D02*
G03Y201000I3920J-2000D01*
G01X316000Y200500D02*
X308000D01*
Y196500D01*
X316000D01*
Y200500D01*
G01Y191500D02*
X308000D01*
Y187500D01*
X316000D01*
Y191500D01*
G01X342732Y231268D02*
X313205D01*
G01D02*
X309268Y235205D01*
G01D02*
Y242882D01*
G01X294000Y256000D02*
X302000D01*
Y260000D01*
X294000D01*
Y256000D01*
G01Y262000D02*
X302000D01*
Y266000D01*
X294000D01*
Y262000D01*
G01X313205Y264732D02*
X342732D01*
G01X309268Y253118D02*
Y260795D01*
G01D02*
X313205Y264732D01*
G01X301941Y255532D02*
X305878D01*
G01X303909Y253563D02*
Y257500D01*
G01X303800Y273600D02*
Y278300D01*
G01X297600Y274800D02*
Y277200D01*
G01X298400D02*
Y274800D01*
G01X303800Y267600D02*
Y272300D01*
G01X297600Y268800D02*
Y271200D01*
G01X298400D02*
Y268800D01*
G01X310000Y305500D02*
Y298500D01*
G01Y305500D02*
G02X314000I2000J-4250D01*
G01X310000Y298500D02*
G03X314000I2000J3920D01*
G01X306000Y305500D02*
Y298500D01*
G01X310000Y305500D02*
Y298500D01*
G01X306000Y305500D02*
G02X310000I2000J-4250D01*
G01X306000Y298500D02*
G03X310000I2000J3920D01*
G01X303800Y299600D02*
Y304300D01*
G01X297600Y300800D02*
Y303200D01*
G01X298400D02*
Y300800D01*
G01X297500Y294000D02*
X296800D01*
G01X298500D02*
X299200D01*
G01X298500Y296000D02*
Y292000D01*
G01X297500D02*
Y296000D01*
G01X305000Y290500D02*
Y297500D01*
G01X314000Y324000D02*
Y332000D01*
X310000D01*
Y324000D01*
X314000D01*
G01X310000Y350500D02*
Y357500D01*
G01X306000Y350500D02*
Y357500D01*
G01X310000Y350500D02*
G02X306000I-2000J4250D01*
G01X310000Y357500D02*
G03X306000I-2000J-3920D01*
G01X298000Y350000D02*
Y358000D01*
X294000D01*
Y350000D01*
X298000D01*
G01X304000D02*
Y358000D01*
X300000D01*
Y350000D01*
X304000D01*
G01X315000Y118500D02*
G02Y114500I-4250J-2000D01*
G01Y110000D02*
G03Y114000I-3920J2000D01*
G01Y145500D02*
G02Y141500I-4250J-2000D01*
G01Y136500D02*
G02Y132500I-4250J-2000D01*
G01X328900Y142200D02*
Y153800D01*
G01X324100Y142200D02*
Y153800D01*
G01X328900Y142200D02*
X324100D01*
G01X334900D02*
X330100D01*
G01D02*
Y153800D01*
G01X328900D02*
X324200D01*
G01X327700Y147600D02*
X325300D01*
G01Y148400D02*
X327700D01*
G01X334900Y153800D02*
X330200D01*
G01X315500Y178000D02*
G02Y174000I-4250J-2000D01*
G01Y169500D02*
G03Y173500I-3920J2000D01*
G01Y196000D02*
G02Y192000I-4250J-2000D01*
G01Y205000D02*
G02Y201000I-4250J-2000D01*
G01X329400Y201700D02*
Y213300D01*
G01X324600Y201700D02*
Y213300D01*
G01X329400Y201700D02*
X324600D01*
G01X335400D02*
X330600D01*
G01D02*
Y213300D01*
G01X329400D02*
X324700D01*
G01X328200Y207100D02*
X325800D01*
G01Y207900D02*
X328200D01*
G01X335400Y213300D02*
X330700D01*
G01X324126Y300567D02*
X319008D01*
Y271433D01*
X324126D01*
G01X318000Y298500D02*
Y305500D01*
G01X314000Y298500D02*
Y305500D01*
G01X318000Y298500D02*
G02X314000I-2000J4250D01*
G01X318000Y305500D02*
G03X314000I-2000J-3920D01*
G01D02*
Y298500D01*
G01X318000Y324500D02*
Y331500D01*
G01X314000Y324500D02*
Y331500D01*
G01X318000Y324500D02*
G02X314000I-2000J4250D01*
G01X321500Y311500D02*
X334500D01*
G01X321500Y328000D02*
Y310500D01*
X334500D01*
Y328000D01*
G01Y311000D02*
X321500D01*
G01X326000Y325000D02*
X330000D01*
X328000Y323000D01*
X326000Y325000D01*
G01X328000Y323000D02*
Y321000D01*
G01Y325000D02*
Y327000D01*
G01X330000Y323000D02*
X326000D01*
G01X318000Y331500D02*
G03X314000I-2000J-3920D01*
G01X321500Y328000D02*
Y336500D01*
X334500D01*
Y328000D01*
G01X353500Y144500D02*
Y151500D01*
G01X349500Y144500D02*
Y151500D01*
G01X353500Y144500D02*
G02X349500I-2000J4250D01*
G01X345000Y151500D02*
Y144500D01*
G01X349000Y151500D02*
Y144500D01*
G01X345000D02*
G03X349000I2000J3920D01*
G01X344500D02*
Y151500D01*
G01X340500Y144500D02*
Y151500D01*
G01X344500Y144500D02*
G02X340500I-2000J4250D01*
G01X340000Y144000D02*
Y152000D01*
X336000D01*
Y144000D01*
X340000D01*
G01X334900Y142200D02*
Y153800D01*
G01X353500Y151500D02*
G03X349500I-2000J-3920D01*
G01X345000D02*
G02X349000I2000J-4250D01*
G01X344500D02*
G03X340500I-2000J-3920D01*
G01X350000Y204000D02*
Y211000D01*
G01X354000Y204000D02*
G02X350000I-2000J4250D01*
G01X345000D02*
Y211000D01*
G01X341000Y204000D02*
Y211000D01*
G01X345000Y204000D02*
G02X341000I-2000J4250D01*
G01X345500Y211000D02*
Y204000D01*
G01X349500Y211000D02*
Y204000D01*
G01X345500D02*
G03X349500I2000J3920D01*
G01X340500Y203500D02*
Y211500D01*
X336500D01*
Y203500D01*
X340500D01*
G01X335400Y201700D02*
Y213300D01*
G01X354000Y211000D02*
G03X350000I-2000J-3920D01*
G01X345000D02*
G03X341000I-2000J-3920D01*
G01X345500D02*
G02X349500I2000J-4250D01*
G01X342732Y242882D02*
Y231268D01*
G01X352200Y263600D02*
X363800D01*
G01X352200D02*
Y268400D01*
G01X342732Y264732D02*
Y253118D01*
G01X352200Y268400D02*
X363800D01*
G01X339874Y300567D02*
X344992D01*
Y271433D01*
X339874D01*
G01X347900Y275400D02*
X368100D01*
Y288600D01*
X347900D01*
Y275400D01*
G01X352200Y299600D02*
X363800D01*
G01X352200Y304400D02*
X363800D01*
G01X352200Y299600D02*
Y304400D01*
G01X351000Y290500D02*
X365000D01*
G01X351000Y297500D02*
X365000D01*
G01X351000Y290500D02*
Y297500D01*
G01X337600Y333800D02*
Y322200D01*
G01X342400Y333800D02*
Y322200D01*
G01X337600D02*
X342300D01*
G01X337600Y333800D02*
X342400D01*
G01X338800Y328400D02*
X341200D01*
G01Y327600D02*
X338800D01*
G01X348000Y357500D02*
Y350500D01*
G01X352000Y357500D02*
Y350500D01*
G01X348000Y357500D02*
G02X352000I2000J-4250D01*
G01X348000Y350500D02*
G03X352000I2000J3920D01*
G01X361700Y115600D02*
X373300D01*
G01X361700Y120400D02*
X373300D01*
G01Y115600D02*
Y120300D01*
G01X361700Y115600D02*
Y120400D01*
G01X367100Y116800D02*
Y119200D01*
G01X367900D02*
Y116800D01*
G01X363500Y125500D02*
X371500D01*
Y129500D01*
X363500D01*
Y125500D01*
G01Y121000D02*
X371500D01*
Y125000D01*
X363500D01*
Y121000D01*
G01X361700Y110100D02*
Y114900D01*
G01X373300Y110100D02*
Y114800D01*
G01X361700Y114900D02*
X373300D01*
G01X361700Y110100D02*
X373300D01*
G01X371000Y138500D02*
X364000D01*
G01X371000Y134500D02*
X364000D01*
G01X371000Y138500D02*
G02Y134500I-4250J-2000D01*
G01X364000Y138500D02*
G03Y134500I3920J-2000D01*
G01X371000Y143000D02*
X364000D01*
G01X371000Y139000D02*
X364000D01*
G01X371000Y143000D02*
G02Y139000I-4250J-2000D01*
G01X364000Y143000D02*
G03Y139000I3920J-2000D01*
G01X358000Y144500D02*
Y151500D01*
G01X354000Y144500D02*
Y151500D01*
G01X358000Y144500D02*
G02X354000I-2000J4250D01*
G01X371000Y134000D02*
X364000D01*
G01X371000Y130000D02*
X364000D01*
G01X371000Y134000D02*
G02Y130000I-4250J-2000D01*
G01X364000Y134000D02*
G03Y130000I3920J-2000D01*
G01X358000Y151500D02*
G03X354000I-2000J-3920D01*
G01X362200Y175100D02*
X373800D01*
G01X362200Y179900D02*
X373800D01*
G01Y175100D02*
Y179800D01*
G01X362200Y175100D02*
Y179900D01*
G01X367600Y176300D02*
Y178700D01*
G01X368400D02*
Y176300D01*
G01X364000Y185000D02*
X372000D01*
Y189000D01*
X364000D01*
Y185000D01*
G01Y180500D02*
X372000D01*
Y184500D01*
X364000D01*
Y180500D01*
G01X362200Y169600D02*
Y174400D01*
G01X373800Y169600D02*
Y174300D01*
G01X362200Y174400D02*
X373800D01*
G01X362200Y169600D02*
X373800D01*
G01X371500Y202500D02*
X364500D01*
G01X371500Y198500D02*
X364500D01*
G01X371500Y202500D02*
G02Y198500I-4250J-2000D01*
G01X364500Y202500D02*
G03Y198500I3920J-2000D01*
G01X371500Y193500D02*
X364500D01*
G01X371500Y189500D02*
X364500D01*
G01X371500Y193500D02*
G02Y189500I-4250J-2000D01*
G01X364500Y193500D02*
G03Y189500I3920J-2000D01*
G01X354000Y204000D02*
Y211000D01*
G01X358500Y204000D02*
Y211000D01*
G01X354500Y204000D02*
Y211000D01*
G01X358500Y204000D02*
G02X354500I-2000J4250D01*
G01X371500Y198000D02*
X364500D01*
G01X371500Y194000D02*
X364500D01*
G01X371500Y198000D02*
G02Y194000I-4250J-2000D01*
G01X364500Y198000D02*
G03Y194000I3920J-2000D01*
G01X358500Y211000D02*
G03X354500I-2000J-3920D01*
G01X363800Y263600D02*
Y268300D01*
G01X357600Y264800D02*
Y267200D01*
G01X358400D02*
Y264800D01*
G01X354000Y254000D02*
X362000D01*
Y258000D01*
X354000D01*
Y254000D01*
G01Y258000D02*
X362000D01*
Y262000D01*
X354000D01*
Y258000D01*
G01X357000Y282000D02*
X355500D01*
G01X359000D02*
X360500D01*
G01X359000Y278000D02*
Y286000D01*
G01X357000Y278000D02*
Y286000D01*
G01X372000Y305500D02*
Y298500D01*
G01Y305500D02*
G02X376000I2000J-4250D01*
G01X372000Y298500D02*
G03X376000I2000J3920D01*
G01X368000Y305500D02*
Y298500D01*
G01X372000Y305500D02*
Y298500D01*
G01X368000Y305500D02*
G02X372000I2000J-4250D01*
G01X368000Y298500D02*
G03X372000I2000J3920D01*
G01X363800Y299600D02*
Y304300D01*
G01X357600Y300800D02*
Y303200D01*
G01X358400D02*
Y300800D01*
G01X357500Y294000D02*
X356800D01*
G01X358500D02*
X359200D01*
G01X358500Y296000D02*
Y292000D01*
G01X357500D02*
Y296000D01*
G01X365000Y290500D02*
Y297500D01*
G01X374000Y324000D02*
Y332000D01*
X370000D01*
Y324000D01*
X374000D01*
G01X370000Y350500D02*
Y357500D01*
G01X366000Y350500D02*
Y357500D01*
G01X370000Y350500D02*
G02X366000I-2000J4250D01*
G01X370000Y357500D02*
G03X366000I-2000J-3920D01*
G01X358000Y350000D02*
Y358000D01*
X354000D01*
Y350000D01*
X358000D01*
G01X364000D02*
Y358000D01*
X360000D01*
Y350000D01*
X364000D01*
G01X376600Y386500D02*
X375400D01*
G01X376000D02*
Y383500D01*
G01X376600D02*
X375400D01*
G01X374090D02*
Y386500D01*
X373090D01*
X372690Y386350D01*
X372390Y386150D01*
X372140Y385850D01*
X371940Y385500D01*
X371890Y385000D01*
X371940Y384500D01*
X372140Y384150D01*
X372390Y383850D01*
X372690Y383650D01*
X373090Y383500D01*
X374090D01*
G01X371080Y383950D02*
X370780Y383700D01*
X370430Y383550D01*
X369980Y383500D01*
X369530Y383600D01*
X369180Y383800D01*
X368930Y384150D01*
X368880Y384550D01*
X368980Y384950D01*
X369230Y385200D01*
X369580Y385400D01*
X369930Y385450D01*
X370280Y385400D01*
X370730Y385200D01*
X370580Y386500D01*
X369230D01*
G01X368400D02*
X369600D01*
G01X369000D02*
Y383500D01*
G01X368400D02*
X369600D01*
G01X370910D02*
Y386500D01*
X371910D01*
X372310Y386350D01*
X372610Y386150D01*
X372860Y385850D01*
X373060Y385500D01*
X373110Y385000D01*
X373060Y384500D01*
X372860Y384150D01*
X372610Y383850D01*
X372310Y383650D01*
X371910Y383500D01*
X370910D01*
G01X374070Y386000D02*
X374370Y386300D01*
X374720Y386450D01*
X375120Y386500D01*
X375620Y386400D01*
X375970Y386150D01*
X376070Y385850D01*
X376020Y385550D01*
X375820Y385300D01*
X374820Y384800D01*
X374370Y384450D01*
X374070Y383950D01*
X373970Y383500D01*
X376070D01*
G01X386600Y59500D02*
X385400D01*
G01X386000D02*
Y56500D01*
G01X386600D02*
X385400D01*
G01X384090D02*
Y59500D01*
X383090D01*
X382690Y59350D01*
X382390Y59150D01*
X382140Y58850D01*
X381940Y58500D01*
X381890Y58000D01*
X381940Y57500D01*
X382140Y57150D01*
X382390Y56850D01*
X382690Y56650D01*
X383090Y56500D01*
X384090D01*
G01X380930Y57750D02*
X380580Y58100D01*
X380280Y58300D01*
X379880Y58400D01*
X379530Y58300D01*
X379280Y58100D01*
X379080Y57800D01*
X379030Y57450D01*
X379080Y57150D01*
X379280Y56850D01*
X379580Y56600D01*
X379930Y56500D01*
X380330Y56600D01*
X380680Y56900D01*
X380880Y57350D01*
X380930Y57850D01*
X380830Y58500D01*
X380680Y58850D01*
X380430Y59200D01*
X380080Y59450D01*
X379730Y59500D01*
X379380Y59400D01*
X379130Y59150D01*
G01X378900Y60000D02*
X380100D01*
G01X379500D02*
Y57000D01*
G01X378900D02*
X380100D01*
G01X381410D02*
Y60000D01*
X382410D01*
X382810Y59850D01*
X383110Y59650D01*
X383360Y59350D01*
X383560Y59000D01*
X383610Y58500D01*
X383560Y58000D01*
X383360Y57650D01*
X383110Y57350D01*
X382810Y57150D01*
X382410Y57000D01*
X381410D01*
G01X385520D02*
Y60000D01*
X384920Y59400D01*
G01Y57000D02*
X386120D01*
G01X380000Y305500D02*
Y298500D01*
G01X384000Y305500D02*
Y298500D01*
G01X380000Y305500D02*
G02X384000I2000J-4250D01*
G01X380000Y298500D02*
G03X384000I2000J3920D01*
G01X388000D02*
Y305500D01*
G01X384000Y298500D02*
Y305500D01*
G01X388000Y298500D02*
G02X384000I-2000J4250D01*
G01X388000Y305500D02*
G03X384000I-2000J-3920D01*
G01X380000Y298500D02*
Y305500D01*
G01X376000Y298500D02*
Y305500D01*
G01X380000Y298500D02*
G02X376000I-2000J4250D01*
G01X380000Y305500D02*
G03X376000I-2000J-3920D01*
G01D02*
Y298500D01*
G01X378000Y324500D02*
Y331500D01*
G01X374000Y324500D02*
Y331500D01*
G01X378000Y324500D02*
G02X374000I-2000J4250D01*
G01X378000Y331500D02*
G03X374000I-2000J-3920D01*
G01X-110000Y-94000D02*
Y1035921D01*
X1504173D01*
Y-94000D01*
X-110000D01*
G01D02*
Y1035921D01*
X1504173D01*
Y-94000D01*
X-110000D01*
G01X-90315Y108756D02*
X-110000D01*
G01D02*
X-90315D01*
G01Y289858D02*
X-110000D01*
G01D02*
X-90315D01*
G01Y652063D02*
X-110000D01*
G01D02*
X-90315D01*
G01Y833165D02*
X-110000D01*
G01D02*
X-90315D01*
G01Y-74314D02*
X1484488D01*
G01X-90315Y1016236D02*
Y-74314D01*
G01X1484488D02*
X-90315D01*
G01D02*
Y1016236D01*
G01X-103469Y10332D02*
Y26332D01*
X-95869D01*
G01X-98669Y18599D02*
X-103469D01*
G01X-94993Y11069D02*
Y27069D01*
X-102593D01*
G01X-99793Y19336D02*
X-94993D01*
G01X-95669Y191434D02*
X-103669D01*
Y207434D01*
X-95669D01*
G01X-98869Y199701D02*
X-103669D01*
G01X-102793Y192171D02*
X-94793D01*
Y208171D01*
X-102793D01*
G01X-99593Y200438D02*
X-94793D01*
G01X-105305Y372536D02*
Y388536D01*
X-101305D01*
X-99705Y387736D01*
X-98505Y386669D01*
X-97505Y385069D01*
X-96705Y383202D01*
X-96505Y380536D01*
X-96705Y377869D01*
X-97505Y376002D01*
X-98505Y374402D01*
X-99705Y373336D01*
X-101305Y372536D01*
X-105305D01*
G01X-93157Y373273D02*
Y389273D01*
X-97157D01*
X-98757Y388472D01*
X-99957Y387406D01*
X-100957Y385806D01*
X-101757Y383939D01*
X-101957Y381273D01*
X-101757Y378606D01*
X-100957Y376739D01*
X-99957Y375139D01*
X-98757Y374073D01*
X-97157Y373273D01*
X-93157D01*
G01X-94902Y568305D02*
X-96102Y569105D01*
X-97502Y569638D01*
X-99102D01*
X-100902Y568838D01*
X-102302Y567505D01*
X-103302Y565905D01*
X-104102Y563238D01*
X-104302Y560838D01*
X-103902Y558438D01*
X-103302Y556838D01*
X-102102Y555238D01*
X-100702Y554171D01*
X-99302Y553638D01*
X-97902D01*
X-96502Y554171D01*
X-95302Y554971D01*
X-94302Y556038D01*
G01X-103560Y569042D02*
X-102360Y569843D01*
X-100960Y570376D01*
X-99360D01*
X-97560Y569576D01*
X-96160Y568243D01*
X-95160Y566642D01*
X-94360Y563976D01*
X-94160Y561576D01*
X-94560Y559176D01*
X-95160Y557576D01*
X-96360Y555976D01*
X-97760Y554909D01*
X-99160Y554376D01*
X-100560D01*
X-101960Y554909D01*
X-103160Y555709D01*
X-104160Y556776D01*
G01X-98857Y743274D02*
X-98057Y744074D01*
X-97457Y745407D01*
X-97057Y747274D01*
X-97457Y748874D01*
X-98257Y749941D01*
X-99657Y750741D01*
X-105057D01*
Y734741D01*
X-98457D01*
X-97057Y735807D01*
X-96257Y737408D01*
X-95857Y739274D01*
X-96257Y741140D01*
X-97457Y742741D01*
X-98857Y743274D01*
X-105057D01*
G01X-99606Y744012D02*
X-100406Y744811D01*
X-101006Y746144D01*
X-101406Y748012D01*
X-101006Y749611D01*
X-100206Y750678D01*
X-98806Y751478D01*
X-93406D01*
Y735478D01*
X-100006D01*
X-101406Y736544D01*
X-102206Y738145D01*
X-102606Y740011D01*
X-102206Y741878D01*
X-101006Y743478D01*
X-99606Y744012D01*
X-93406D01*
G01X-50945Y899756D02*
X-90315D01*
G01X-106244Y915843D02*
X-101244Y931843D01*
X-96244Y915843D01*
G01X-98044Y921443D02*
X-104444D01*
G01X-92218Y916582D02*
X-97218Y932582D01*
X-102218Y916582D01*
G01X-100418Y922182D02*
X-94018D01*
G01X-50945Y931126D02*
X-90315D01*
G01X-50945Y1006551D02*
Y962497D01*
X-90315D01*
G01X303386Y993867D02*
X-90315D01*
G01X303386Y1006551D02*
X-90315D01*
G01X1484488Y1016236D02*
X-90315D01*
G01D02*
X1484488D01*
G01X-66438Y914210D02*
X-68188Y917710D01*
G01X-66438D02*
X-68188Y914210D01*
G01X-69738D02*
X-71488Y917710D01*
G01X-69738D02*
X-71488Y914210D01*
G01X-73038D02*
X-74788Y917710D01*
G01X-73038D02*
X-74788Y914210D01*
G01X-76338D02*
X-78088Y917710D01*
G01X-76338D02*
X-78088Y914210D01*
G01X-66438Y945580D02*
X-68188Y949080D01*
G01X-66438D02*
X-68188Y945580D01*
G01X-69738D02*
X-71488Y949080D01*
G01X-69738D02*
X-71488Y945580D01*
G01X-73038D02*
X-74788Y949080D01*
G01X-73038D02*
X-74788Y945580D01*
G01X-76338D02*
X-78088Y949080D01*
G01X-76338D02*
X-78088Y945580D01*
G01X-67186Y978847D02*
X-68936Y982347D01*
G01X-67186D02*
X-68936Y978847D01*
G01X-70486D02*
X-72236Y982347D01*
G01X-70486D02*
X-72236Y978847D01*
G01X-73786D02*
X-75536Y982347D01*
G01X-73786D02*
X-75536Y978847D01*
G01X-77086D02*
X-78836Y982347D01*
G01X-77086D02*
X-78836Y978847D01*
G01X-68758Y998368D02*
X-68424Y998426D01*
X-68133Y998660D01*
X-67883Y999010D01*
X-67716Y999418D01*
X-67633Y999885D01*
Y1000351D01*
X-67716Y1000818D01*
X-67883Y1001226D01*
X-68133Y1001576D01*
X-68424Y1001810D01*
X-68758Y1001868D01*
X-69091Y1001810D01*
X-69383Y1001576D01*
X-69633Y1001226D01*
X-69800Y1000818D01*
X-69883Y1000351D01*
Y999885D01*
X-69800Y999418D01*
X-69633Y999010D01*
X-69383Y998660D01*
X-69091Y998426D01*
X-68758Y998368D01*
G01X-69091Y999301D02*
X-69591Y998368D01*
G01X-71016D02*
X-72058Y1001868D01*
X-73100Y998368D01*
G01X-72724Y999593D02*
X-71391D01*
G01X-50945Y931127D02*
Y899756D01*
G01X303386D02*
X-50945D01*
G01Y962497D02*
Y931126D01*
G01X303386D02*
X-50945D01*
G01Y962497D02*
X-11575D01*
Y1006551D01*
G01X-16733Y978867D02*
X-18483Y982367D01*
G01X-16733D02*
X-18483Y978867D01*
G01X-20033D02*
X-21783Y982367D01*
G01X-20033D02*
X-21783Y978867D01*
G01X-23333D02*
X-25083Y982367D01*
G01X-23333D02*
X-25083Y978867D01*
G01X-26633D02*
X-28383Y982367D01*
G01X-26633D02*
X-28383Y978867D01*
G01X-30266Y980033D02*
X-31350D01*
G01X-33233Y978867D02*
X-34983Y982367D01*
G01X-33233D02*
X-34983Y978867D01*
G01X-36533D02*
X-38283Y982367D01*
G01X-36533D02*
X-38283Y978867D01*
G01X-40166Y980033D02*
X-41250D01*
G01X-43133Y978867D02*
X-44883Y982367D01*
G01X-43133D02*
X-44883Y978867D01*
G01X-46433D02*
X-48183Y982367D01*
G01X-46433D02*
X-48183Y978867D01*
G01X-15985Y914229D02*
X-17735Y917729D01*
G01X-15985D02*
X-17735Y914229D01*
G01X-19285D02*
X-21035Y917729D01*
G01X-19285D02*
X-21035Y914229D01*
G01X-22585D02*
X-24335Y917729D01*
G01X-22585D02*
X-24335Y914229D01*
G01X-25885D02*
X-27635Y917729D01*
G01X-25885D02*
X-27635Y914229D01*
G01X-29518Y915396D02*
X-30601D01*
G01X-32485Y914229D02*
X-34235Y917729D01*
G01X-32485D02*
X-34235Y914229D01*
G01X-35785D02*
X-37535Y917729D01*
G01X-35785D02*
X-37535Y914229D01*
G01X-39418Y915396D02*
X-40502D01*
G01X-42385Y914229D02*
X-44135Y917729D01*
G01X-42385D02*
X-44135Y914229D01*
G01X-45685D02*
X-47435Y917729D01*
G01X-45685D02*
X-47435Y914229D01*
G01X-15985Y945599D02*
X-17735Y949099D01*
G01X-15985D02*
X-17735Y945599D01*
G01X-19285D02*
X-21035Y949099D01*
G01X-19285D02*
X-21035Y945599D01*
G01X-22585D02*
X-24335Y949099D01*
G01X-22585D02*
X-24335Y945599D01*
G01X-25885D02*
X-27635Y949099D01*
G01X-25885D02*
X-27635Y945599D01*
G01X-29518Y946765D02*
X-30601D01*
G01X-32485Y945599D02*
X-34235Y949099D01*
G01X-32485D02*
X-34235Y945599D01*
G01X-35785D02*
X-37535Y949099D01*
G01X-35785D02*
X-37535Y945599D01*
G01X-39418Y946765D02*
X-40502D01*
G01X-42385Y945599D02*
X-44135Y949099D01*
G01X-42385D02*
X-44135Y945599D01*
G01X-45685D02*
X-47435Y949099D01*
G01X-45685D02*
X-47435Y945599D01*
G01X-23779Y998919D02*
Y1002419D01*
X-24613D01*
X-24946Y1002244D01*
X-25196Y1002010D01*
X-25404Y1001661D01*
X-25571Y1001252D01*
X-25613Y1000669D01*
X-25571Y1000086D01*
X-25404Y999677D01*
X-25196Y999327D01*
X-24946Y999094D01*
X-24613Y998919D01*
X-23779D01*
G01X-26954D02*
X-27996Y1002419D01*
X-29038Y998919D01*
G01X-28663Y1000144D02*
X-27329D01*
G01X-31296Y1002419D02*
Y998919D01*
G01X-30338Y1002419D02*
X-32254D01*
G01X-35429Y998919D02*
X-33763D01*
Y1002419D01*
X-35429D01*
G01X-34763Y1000727D02*
X-33763D01*
G01X-11575Y899756D02*
Y931127D01*
G01Y931126D02*
Y962497D01*
G01D02*
X27795D01*
Y1006551D01*
G01X-2890Y1019278D02*
X-4290Y1019545D01*
X-5890Y1020344D01*
X-6890Y1021678D01*
X-7290Y1023545D01*
X-6890Y1025411D01*
X-5690Y1027011D01*
X-3890Y1027812D01*
X-1890D01*
X-690Y1028345D01*
X310Y1029678D01*
X710Y1031544D01*
X110Y1033411D01*
X-1290Y1034745D01*
X-2890Y1035278D01*
X-4490Y1034745D01*
X-5890Y1033411D01*
X-6490Y1031544D01*
X-6090Y1029678D01*
X-5090Y1028345D01*
X-3890Y1027812D01*
X-1890D01*
X-90Y1027011D01*
X1110Y1025411D01*
X1510Y1023545D01*
X1110Y1021678D01*
X110Y1020344D01*
X-1490Y1019545D01*
X-2890Y1019278D01*
G01X10173Y-92031D02*
Y-76031D01*
X7773Y-79231D01*
G01Y-92031D02*
X12572D01*
G01X9475Y-91292D02*
X8075Y-91026D01*
X6475Y-90226D01*
X5475Y-88893D01*
X5075Y-87025D01*
X5475Y-85159D01*
X6675Y-83559D01*
X8475Y-82759D01*
X10475D01*
X11675Y-82225D01*
X12675Y-80892D01*
X13075Y-79026D01*
X12475Y-77159D01*
X11075Y-75825D01*
X9475Y-75292D01*
X7875Y-75825D01*
X6475Y-77159D01*
X5875Y-79026D01*
X6275Y-80892D01*
X7275Y-82225D01*
X8475Y-82759D01*
X10475D01*
X12275Y-83559D01*
X13475Y-85159D01*
X13875Y-87025D01*
X13475Y-88893D01*
X12475Y-90226D01*
X10875Y-91026D01*
X9475Y-91292D01*
G01X0Y393700D02*
X393700D01*
Y6690D01*
X267724D01*
Y0D01*
X0D01*
Y393700D01*
G01Y0D02*
X267724D01*
Y6690D01*
X393700D01*
Y393700D01*
X0D01*
Y0D01*
G01X13030Y915155D02*
X11280Y918655D01*
G01X13030D02*
X11280Y915155D01*
G01X9730D02*
X7980Y918655D01*
G01X9730D02*
X7980Y915155D01*
G01X6430D02*
X4680Y918655D01*
G01X6430D02*
X4680Y915155D01*
G01X3130D02*
X1380Y918655D01*
G01X3130D02*
X1380Y915155D01*
G01X13030Y946525D02*
X11280Y950025D01*
G01X13030D02*
X11280Y946525D01*
G01X9730D02*
X7980Y950025D01*
G01X9730D02*
X7980Y946525D01*
G01X6430D02*
X4680Y950025D01*
G01X6430D02*
X4680Y946525D01*
G01X3130D02*
X1380Y950025D01*
G01X3130D02*
X1380Y946525D01*
G01X12282Y979792D02*
X10532Y983292D01*
G01X12282D02*
X10532Y979792D01*
G01X8982D02*
X7232Y983292D01*
G01X8982D02*
X7232Y979792D01*
G01X5682D02*
X3932Y983292D01*
G01X5682D02*
X3932Y979792D01*
G01X2382D02*
X632Y983292D01*
G01X2382D02*
X632Y979792D01*
G01X22176Y998678D02*
Y1002178D01*
X21343D01*
X21010Y1002003D01*
X20760Y1001770D01*
X20551Y1001420D01*
X20385Y1001011D01*
X20343Y1000428D01*
X20385Y999845D01*
X20551Y999436D01*
X20760Y999086D01*
X21010Y998853D01*
X21343Y998678D01*
X22176D01*
G01X17126D02*
X18793D01*
Y1002178D01*
X17126D01*
G01X17793Y1000486D02*
X18793D01*
G01X15535Y999145D02*
X15201Y998853D01*
X14826Y998678D01*
X14493D01*
X14160Y998853D01*
X13910Y999145D01*
X13785Y999553D01*
X13868Y999961D01*
X14076Y1000311D01*
X14451Y1000545D01*
X14951Y1000661D01*
X15243Y1000895D01*
X15368Y1001303D01*
X15285Y1001711D01*
X15076Y1002003D01*
X14785Y1002178D01*
X14493D01*
X14202Y1002061D01*
X13951Y1001770D01*
G01X11860Y1002178D02*
X10860D01*
G01X11360D02*
Y998678D01*
G01X11860D02*
X10860D01*
G01X7810Y1000428D02*
X6976D01*
Y999378D01*
X7226Y999028D01*
X7518Y998795D01*
X7935Y998678D01*
X8351Y998795D01*
X8643Y999028D01*
X8893Y999378D01*
X9060Y999786D01*
X9143Y1000253D01*
Y1000661D01*
X9060Y1001011D01*
X8893Y1001420D01*
X8643Y1001770D01*
X8393Y1002003D01*
X8060Y1002178D01*
X7768D01*
X7435Y1002061D01*
X7185Y1001828D01*
G01X5718Y998678D02*
Y1002178D01*
X3802Y998678D01*
Y1002178D01*
G01X626Y998678D02*
X2293D01*
Y1002178D01*
X626D01*
G01X1293Y1000486D02*
X2293D01*
G01X-1007Y998678D02*
Y1002178D01*
X-2048D01*
X-2382Y1002003D01*
X-2590Y1001770D01*
X-2674Y1001303D01*
X-2590Y1000836D01*
X-2340Y1000545D01*
X-2048Y1000370D01*
X-1007D01*
G01X-2048D02*
X-2674Y998678D01*
G01X10173Y1018206D02*
Y1034206D01*
X7773Y1031006D01*
G01Y1018206D02*
X12572D01*
G01X29884Y253000D02*
X24884D01*
Y246000D01*
X29884D01*
G01X27795Y899756D02*
Y931127D01*
G01Y931126D02*
Y962497D01*
G01D02*
X232520D01*
Y1006551D01*
G01X34884Y246000D02*
X39884D01*
Y252500D01*
G01D02*
Y253000D01*
X34884D01*
G01X77575Y106921D02*
X90173D01*
Y97079D01*
X77575D01*
Y106921D01*
G01X79575Y198921D02*
X92173D01*
Y189079D01*
X79575D01*
Y198921D01*
G01X106535Y-94000D02*
Y-74314D01*
G01Y-94000D02*
Y-74314D01*
G01X116173Y97079D02*
X103575D01*
Y106921D01*
X116173D01*
Y97079D01*
G01X129785Y919924D02*
Y917416D01*
X129618Y916891D01*
X129285Y916541D01*
X128868Y916424D01*
X128451Y916541D01*
X128118Y916891D01*
X127951Y917416D01*
Y919924D01*
G01X126401Y916424D02*
Y919924D01*
X125401D01*
X125068Y919749D01*
X124818Y919341D01*
X124735Y918874D01*
X124818Y918407D01*
X125026Y918057D01*
X125401Y917882D01*
X126401D01*
G01X123185Y916424D02*
Y919924D01*
X122352D01*
X122018Y919749D01*
X121768Y919516D01*
X121560Y919166D01*
X121393Y918757D01*
X121351Y918174D01*
X121393Y917591D01*
X121560Y917182D01*
X121768Y916832D01*
X122018Y916599D01*
X122352Y916424D01*
X123185D01*
G01X120010D02*
X118968Y919924D01*
X117926Y916424D01*
G01X118302Y917649D02*
X119635D01*
G01X115668Y919924D02*
Y916424D01*
G01X116626Y919924D02*
X114710D01*
G01X111535Y916424D02*
X113201D01*
Y919924D01*
X111535D01*
G01X112201Y918232D02*
X113201D01*
G01X129785Y951294D02*
Y948786D01*
X129618Y948261D01*
X129285Y947911D01*
X128868Y947794D01*
X128451Y947911D01*
X128118Y948261D01*
X127951Y948786D01*
Y951294D01*
G01X126401Y947794D02*
Y951294D01*
X125401D01*
X125068Y951119D01*
X124818Y950711D01*
X124735Y950244D01*
X124818Y949777D01*
X125026Y949427D01*
X125401Y949252D01*
X126401D01*
G01X123185Y947794D02*
Y951294D01*
X122352D01*
X122018Y951119D01*
X121768Y950886D01*
X121560Y950536D01*
X121393Y950127D01*
X121351Y949544D01*
X121393Y948961D01*
X121560Y948552D01*
X121768Y948202D01*
X122018Y947969D01*
X122352Y947794D01*
X123185D01*
G01X120010D02*
X118968Y951294D01*
X117926Y947794D01*
G01X118302Y949019D02*
X119635D01*
G01X115668Y951294D02*
Y947794D01*
G01X116626Y951294D02*
X114710D01*
G01X111535Y947794D02*
X113201D01*
Y951294D01*
X111535D01*
G01X112201Y949602D02*
X113201D01*
G01X141081Y984385D02*
X140081D01*
G01X140581D02*
Y980885D01*
G01X141081D02*
X140081D01*
G01X138239D02*
Y984385D01*
X136323Y980885D01*
Y984385D01*
G01X134481D02*
X133481D01*
G01X133981D02*
Y980885D01*
G01X134481D02*
X133481D01*
G01X130681Y984385D02*
Y980885D01*
G01X131639Y984385D02*
X129723D01*
G01X127881D02*
X126881D01*
G01X127381D02*
Y980885D01*
G01X127881D02*
X126881D01*
G01X125123D02*
X124081Y984385D01*
X123039Y980885D01*
G01X123414Y982110D02*
X124748D01*
G01X121614Y984385D02*
Y980885D01*
X119948D01*
G01X115014D02*
Y984385D01*
X113973D01*
X113639Y984210D01*
X113431Y983977D01*
X113348Y983510D01*
X113431Y983043D01*
X113681Y982752D01*
X113973Y982577D01*
X115014D01*
G01X113973D02*
X113348Y980885D01*
G01X110048D02*
X111714D01*
Y984385D01*
X110048D01*
G01X110714Y982693D02*
X111714D01*
G01X108414Y984385D02*
Y980885D01*
X106748D01*
G01X103448D02*
X105114D01*
Y984385D01*
X103448D01*
G01X104114Y982693D02*
X105114D01*
G01X102023Y980885D02*
X100981Y984385D01*
X99939Y980885D01*
G01X100314Y982110D02*
X101648D01*
G01X98556Y981352D02*
X98223Y981060D01*
X97848Y980885D01*
X97514D01*
X97181Y981060D01*
X96931Y981352D01*
X96806Y981760D01*
X96889Y982168D01*
X97098Y982518D01*
X97473Y982752D01*
X97973Y982868D01*
X98264Y983102D01*
X98390Y983510D01*
X98306Y983918D01*
X98098Y984210D01*
X97806Y984385D01*
X97514D01*
X97223Y984268D01*
X96973Y983977D01*
G01X93548Y980885D02*
X95214D01*
Y984385D01*
X93548D01*
G01X94214Y982693D02*
X95214D01*
G01X137137Y1010919D02*
Y1014419D01*
X136096D01*
X135762Y1014244D01*
X135554Y1014010D01*
X135471Y1013544D01*
X135554Y1013077D01*
X135804Y1012786D01*
X136096Y1012610D01*
X137137D01*
G01X136096D02*
X135471Y1010919D01*
G01X132171D02*
X133837D01*
Y1014419D01*
X132171D01*
G01X132837Y1012727D02*
X133837D01*
G01X130746Y1014419D02*
X129704Y1010919D01*
X128662Y1014419D01*
G01X126904D02*
X125904D01*
G01X126404D02*
Y1010919D01*
G01X126904D02*
X125904D01*
G01X123979Y1011385D02*
X123646Y1011094D01*
X123271Y1010919D01*
X122937D01*
X122604Y1011094D01*
X122354Y1011385D01*
X122229Y1011794D01*
X122312Y1012202D01*
X122521Y1012552D01*
X122896Y1012786D01*
X123395Y1012902D01*
X123687Y1013135D01*
X123812Y1013544D01*
X123729Y1013952D01*
X123521Y1014244D01*
X123229Y1014419D01*
X122937D01*
X122646Y1014302D01*
X122395Y1014010D01*
G01X120304Y1014419D02*
X119304D01*
G01X119804D02*
Y1010919D01*
G01X120304D02*
X119304D01*
G01X116504D02*
X116837Y1010977D01*
X117129Y1011210D01*
X117379Y1011560D01*
X117546Y1011969D01*
X117629Y1012436D01*
Y1012902D01*
X117546Y1013369D01*
X117379Y1013777D01*
X117129Y1014127D01*
X116837Y1014361D01*
X116504Y1014419D01*
X116171Y1014361D01*
X115879Y1014127D01*
X115629Y1013777D01*
X115462Y1013369D01*
X115379Y1012902D01*
Y1012436D01*
X115462Y1011969D01*
X115629Y1011560D01*
X115879Y1011210D01*
X116171Y1010977D01*
X116504Y1010919D01*
G01X114162D02*
Y1014419D01*
X112246Y1010919D01*
Y1014419D01*
G01X110779Y1011385D02*
X110446Y1011094D01*
X110071Y1010919D01*
X109737D01*
X109404Y1011094D01*
X109154Y1011385D01*
X109029Y1011794D01*
X109112Y1012202D01*
X109321Y1012552D01*
X109696Y1012786D01*
X110196Y1012902D01*
X110487Y1013135D01*
X110612Y1013544D01*
X110529Y1013952D01*
X110321Y1014244D01*
X110029Y1014419D01*
X109737D01*
X109446Y1014302D01*
X109196Y1014010D01*
G01X106535Y1016236D02*
Y1035921D01*
G01Y1016236D02*
Y1035921D01*
G01X133346Y998919D02*
X132304Y1002419D01*
X131262Y998919D01*
G01X131637Y1000144D02*
X132971D01*
G01X128087Y1002127D02*
X128337Y1002302D01*
X128629Y1002419D01*
X128962D01*
X129337Y1002244D01*
X129629Y1001952D01*
X129837Y1001602D01*
X130004Y1001019D01*
X130046Y1000494D01*
X129962Y999969D01*
X129837Y999619D01*
X129587Y999269D01*
X129295Y999035D01*
X129004Y998919D01*
X128712D01*
X128421Y999035D01*
X128171Y999210D01*
X127962Y999444D01*
G01X125704Y1002419D02*
Y998919D01*
G01X126662Y1002419D02*
X124746D01*
G01X122904D02*
X121904D01*
G01X122404D02*
Y998919D01*
G01X122904D02*
X121904D01*
G01X119104D02*
X119437Y998977D01*
X119729Y999210D01*
X119979Y999560D01*
X120146Y999969D01*
X120229Y1000436D01*
Y1000902D01*
X120146Y1001369D01*
X119979Y1001777D01*
X119729Y1002127D01*
X119437Y1002361D01*
X119104Y1002419D01*
X118771Y1002361D01*
X118479Y1002127D01*
X118229Y1001777D01*
X118062Y1001369D01*
X117979Y1000902D01*
Y1000436D01*
X118062Y999969D01*
X118229Y999560D01*
X118479Y999210D01*
X118771Y998977D01*
X119104Y998919D01*
G01X116762D02*
Y1002419D01*
X114846Y998919D01*
Y1002419D01*
G01X154884Y235000D02*
Y234500D01*
X159884D01*
G01X164884D02*
X169884D01*
Y241500D01*
X164884D01*
G01X159884D02*
X154884D01*
Y235000D01*
G01X201376Y-79094D02*
X202576Y-77494D01*
X203976Y-76694D01*
X205576Y-76427D01*
X207576Y-76960D01*
X208976Y-78294D01*
X209376Y-79894D01*
X209176Y-81494D01*
X208376Y-82827D01*
X204376Y-85494D01*
X202576Y-87361D01*
X201376Y-90028D01*
X200976Y-92427D01*
X209376D01*
G01X206725Y-91292D02*
X206325Y-87826D01*
X205725Y-84892D01*
X204925Y-82225D01*
X203925Y-79292D01*
X202325Y-75292D01*
X210325D01*
G01X213500Y311500D02*
X203000D01*
G01X214500Y328000D02*
Y336500D01*
X201500D01*
Y328000D01*
G01X201376Y1031143D02*
X202576Y1032743D01*
X203976Y1033543D01*
X205576Y1033810D01*
X207576Y1033277D01*
X208976Y1031943D01*
X209376Y1030343D01*
X209176Y1028743D01*
X208376Y1027410D01*
X204376Y1024743D01*
X202576Y1022876D01*
X201376Y1020209D01*
X200976Y1017810D01*
X209376D01*
G01X202510Y1019278D02*
X202110Y1022744D01*
X201510Y1025678D01*
X200710Y1028345D01*
X199710Y1031278D01*
X198110Y1035278D01*
X206110D01*
G01X246830Y334690D02*
Y321310D01*
X225170D01*
Y334690D01*
X246830D01*
G01X232520Y899756D02*
Y931127D01*
G01Y931126D02*
Y962497D01*
G01D02*
X264016D01*
Y1006551D01*
G01X250810Y134330D02*
X264190D01*
Y112670D01*
X250810D01*
Y134330D01*
G01Y193330D02*
X264190D01*
Y171670D01*
X250810D01*
Y193330D01*
G01X249511Y914369D02*
X247761Y917869D01*
G01X249511D02*
X247761Y914369D01*
G01X246211D02*
X244461Y917869D01*
G01X246211D02*
X244461Y914369D01*
G01X249511Y945739D02*
X247761Y949239D01*
G01X249511D02*
X247761Y945739D01*
G01X246211D02*
X244461Y949239D01*
G01X246211D02*
X244461Y945739D01*
G01X248763Y979007D02*
X247013Y982507D01*
G01X248763D02*
X247013Y979007D01*
G01X245463D02*
X243713Y982507D01*
G01X245463D02*
X243713Y979007D01*
G01X253137Y998919D02*
Y1002419D01*
X252096D01*
X251762Y1002244D01*
X251554Y1002010D01*
X251471Y1001544D01*
X251554Y1001077D01*
X251804Y1000786D01*
X252096Y1000610D01*
X253137D01*
G01X252096D02*
X251471Y998919D01*
G01X248171D02*
X249837D01*
Y1002419D01*
X248171D01*
G01X248837Y1000727D02*
X249837D01*
G01X246746Y1002419D02*
X245704Y998919D01*
X244662Y1002419D01*
G01X273500Y311500D02*
X263000D01*
G01X274500Y328000D02*
Y336500D01*
X261500D01*
Y328000D01*
G01X264016Y899756D02*
Y931127D01*
G01X291601Y914850D02*
X289851Y918350D01*
G01X291601D02*
X289851Y914850D01*
G01X288301D02*
X286551Y918350D01*
G01X288301D02*
X286551Y914850D01*
G01X285001D02*
X283251Y918350D01*
G01X285001D02*
X283251Y914850D01*
G01X281701D02*
X279951Y918350D01*
G01X281701D02*
X279951Y914850D01*
G01X278401D02*
X276651Y918350D01*
G01X278401D02*
X276651Y914850D01*
G01X275101D02*
X273351Y918350D01*
G01X275101D02*
X273351Y914850D01*
G01X291601Y946220D02*
X289851Y949720D01*
G01X291601D02*
X289851Y946220D01*
G01X288301D02*
X286551Y949720D01*
G01X288301D02*
X286551Y946220D01*
G01X285001D02*
X283251Y949720D01*
G01X285001D02*
X283251Y946220D01*
G01X281701D02*
X279951Y949720D01*
G01X281701D02*
X279951Y946220D01*
G01X278401D02*
X276651Y949720D01*
G01X278401D02*
X276651Y946220D01*
G01X275101D02*
X273351Y949720D01*
G01X275101D02*
X273351Y946220D01*
G01X264016Y931126D02*
Y962497D01*
G01D02*
X303386D01*
Y1016236D01*
G01X306830Y334690D02*
Y321310D01*
X285170D01*
Y334690D01*
X306830D01*
G01X292513Y980552D02*
X290763Y984052D01*
G01X292513D02*
X290763Y980552D01*
G01X289213D02*
X287463Y984052D01*
G01X289213D02*
X287463Y980552D01*
G01X285913D02*
X284163Y984052D01*
G01X285913D02*
X284163Y980552D01*
G01X282613D02*
X280863Y984052D01*
G01X282613D02*
X280863Y980552D01*
G01X279313D02*
X277563Y984052D01*
G01X279313D02*
X277563Y980552D01*
G01X276013D02*
X274263Y984052D01*
G01X276013D02*
X274263Y980552D01*
G01X303386Y-94000D02*
Y-74314D01*
G01Y-94000D02*
Y-74314D01*
G01Y899756D02*
Y931127D01*
G01Y931126D02*
Y962497D01*
G01Y1016236D02*
Y1035921D01*
G01Y1016236D02*
Y1035921D01*
G01X332310Y134330D02*
X345690D01*
Y112670D01*
X332310D01*
Y134330D01*
G01X332810Y193830D02*
X346190D01*
Y172170D01*
X332810D01*
Y193830D01*
G01X333500Y311500D02*
X323000D01*
G01X334500Y328000D02*
Y336500D01*
X321500D01*
Y328000D01*
G01X366830Y334690D02*
Y321310D01*
X345170D01*
Y334690D01*
X366830D01*
G01X397573Y-88505D02*
X398773Y-90372D01*
X400373Y-91438D01*
X402173Y-91705D01*
X403773Y-91438D01*
X405373Y-90105D01*
X406373Y-88505D01*
X406573Y-86905D01*
X406173Y-85039D01*
X404773Y-83705D01*
X403373Y-83172D01*
X401573D01*
G01X403373D02*
X404573Y-82372D01*
X405573Y-81039D01*
X405973Y-79439D01*
X405573Y-77838D01*
X404573Y-76505D01*
X402773Y-75705D01*
X400973Y-75972D01*
X399173Y-77039D01*
G01X406895Y-84980D02*
X405495Y-83113D01*
X404295Y-82046D01*
X402695Y-81513D01*
X401295Y-82046D01*
X400295Y-83113D01*
X399495Y-84713D01*
X399295Y-86580D01*
X399495Y-88180D01*
X400295Y-89780D01*
X401495Y-91113D01*
X402895Y-91646D01*
X404495Y-91113D01*
X405895Y-89513D01*
X406695Y-87113D01*
X406895Y-84446D01*
X406495Y-80980D01*
X405895Y-79112D01*
X404895Y-77246D01*
X403495Y-75913D01*
X402095Y-75646D01*
X400695Y-76179D01*
X399695Y-77513D01*
G01X397573Y1021732D02*
X398773Y1019865D01*
X400373Y1018799D01*
X402173Y1018532D01*
X403773Y1018799D01*
X405373Y1020132D01*
X406373Y1021732D01*
X406573Y1023332D01*
X406173Y1025198D01*
X404773Y1026532D01*
X403373Y1027065D01*
X401573D01*
G01X403373D02*
X404573Y1027865D01*
X405573Y1029198D01*
X405973Y1030798D01*
X405573Y1032398D01*
X404573Y1033732D01*
X402773Y1034532D01*
X400973Y1034265D01*
X399173Y1033198D01*
G01X406895Y1025255D02*
X405495Y1027123D01*
X404295Y1028189D01*
X402695Y1028722D01*
X401295Y1028189D01*
X400295Y1027123D01*
X399495Y1025522D01*
X399295Y1023656D01*
X399495Y1022055D01*
X400295Y1020455D01*
X401495Y1019122D01*
X402895Y1018589D01*
X404495Y1019122D01*
X405895Y1020722D01*
X406695Y1023122D01*
X406895Y1025789D01*
X406495Y1029255D01*
X405895Y1031123D01*
X404895Y1032989D01*
X403495Y1034322D01*
X402095Y1034589D01*
X400695Y1034056D01*
X399695Y1032722D01*
G01X500236Y-94000D02*
Y-74314D01*
G01Y-94000D02*
Y-74314D01*
G01Y1016236D02*
Y1035921D01*
G01Y1016236D02*
Y1035921D01*
G01X600762Y-92030D02*
Y-76030D01*
X593362Y-87497D01*
X603362D01*
G01X604752Y-88567D02*
X603552Y-89900D01*
X602152Y-90700D01*
X600352Y-90967D01*
X598552Y-90434D01*
X597152Y-89367D01*
X596152Y-87500D01*
X595952Y-85367D01*
X596352Y-83234D01*
X597352Y-81900D01*
X598752Y-80834D01*
X600152Y-80567D01*
X601552Y-80834D01*
X603352Y-81900D01*
X602752Y-74967D01*
X597352D01*
G01X600762Y1018206D02*
Y1034206D01*
X593362Y1022739D01*
X603362D01*
G01X604752Y1021668D02*
X603552Y1020335D01*
X602152Y1019535D01*
X600352Y1019269D01*
X598552Y1019802D01*
X597152Y1020869D01*
X596152Y1022735D01*
X595952Y1024869D01*
X596352Y1027002D01*
X597352Y1028336D01*
X598752Y1029402D01*
X600152Y1029669D01*
X601552Y1029402D01*
X603352Y1028336D01*
X602752Y1035269D01*
X597352D01*
G01X697087Y-74314D02*
Y-94000D01*
G01X697086Y-74314D02*
Y-94000D01*
G01X697087Y1035921D02*
Y1016236D01*
G01X697086Y1035921D02*
Y1016236D01*
G01X791274Y-89304D02*
X792474Y-90638D01*
X793874Y-91437D01*
X795674Y-91704D01*
X797474Y-91171D01*
X798874Y-90104D01*
X799874Y-88238D01*
X800074Y-86104D01*
X799674Y-83971D01*
X798674Y-82637D01*
X797274Y-81571D01*
X795874Y-81304D01*
X794474Y-81571D01*
X792674Y-82637D01*
X793274Y-75704D01*
X798674D01*
G01X795264Y-91292D02*
Y-75292D01*
X802664Y-86759D01*
X792664D01*
G01X791274Y1020931D02*
X792474Y1019598D01*
X793874Y1018799D01*
X795674Y1018532D01*
X797474Y1019065D01*
X798874Y1020132D01*
X799874Y1021998D01*
X800074Y1024132D01*
X799674Y1026265D01*
X798674Y1027599D01*
X797274Y1028665D01*
X795874Y1028932D01*
X794474Y1028665D01*
X792674Y1027599D01*
X793274Y1034532D01*
X798674D01*
G01X795264Y1018943D02*
Y1034943D01*
X802664Y1023476D01*
X792664D01*
G01X893937Y-94000D02*
Y-74314D01*
G01Y-94000D02*
Y-74314D01*
G01Y1016236D02*
Y1035921D01*
G01Y1016236D02*
Y1035921D01*
G01X989131Y-85719D02*
X990531Y-83852D01*
X991731Y-82785D01*
X993331Y-82252D01*
X994731Y-82785D01*
X995731Y-83852D01*
X996531Y-85452D01*
X996731Y-87318D01*
X996531Y-88919D01*
X995731Y-90519D01*
X994531Y-91852D01*
X993131Y-92385D01*
X991531Y-91852D01*
X990131Y-90252D01*
X989331Y-87852D01*
X989131Y-85185D01*
X989531Y-81719D01*
X990131Y-79851D01*
X991131Y-77985D01*
X992531Y-76652D01*
X993931Y-76385D01*
X995331Y-76918D01*
X996331Y-78252D01*
G01X998453Y-87766D02*
X997253Y-89633D01*
X995653Y-90700D01*
X993853Y-90966D01*
X992253Y-90700D01*
X990653Y-89366D01*
X989653Y-87766D01*
X989453Y-86166D01*
X989853Y-84300D01*
X991253Y-82966D01*
X992653Y-82433D01*
X994453D01*
G01X992653D02*
X991453Y-81633D01*
X990453Y-80300D01*
X990053Y-78700D01*
X990453Y-77100D01*
X991453Y-75766D01*
X993253Y-74966D01*
X995053Y-75233D01*
X996853Y-76300D01*
G01X989131Y1024517D02*
X990531Y1026385D01*
X991731Y1027451D01*
X993331Y1027984D01*
X994731Y1027451D01*
X995731Y1026385D01*
X996531Y1024784D01*
X996731Y1022918D01*
X996531Y1021318D01*
X995731Y1019718D01*
X994531Y1018384D01*
X993131Y1017851D01*
X991531Y1018384D01*
X990131Y1019984D01*
X989331Y1022384D01*
X989131Y1025051D01*
X989531Y1028517D01*
X990131Y1030385D01*
X991131Y1032251D01*
X992531Y1033585D01*
X993931Y1033851D01*
X995331Y1033318D01*
X996331Y1031984D01*
G01X998453Y1022469D02*
X997253Y1020602D01*
X995653Y1019535D01*
X993853Y1019269D01*
X992253Y1019535D01*
X990653Y1020869D01*
X989653Y1022469D01*
X989453Y1024069D01*
X989853Y1025935D01*
X991253Y1027269D01*
X992653Y1027802D01*
X994453D01*
G01X992653D02*
X991453Y1028602D01*
X990453Y1029935D01*
X990053Y1031535D01*
X990453Y1033136D01*
X991453Y1034469D01*
X993253Y1035269D01*
X995053Y1035002D01*
X996853Y1033935D01*
G01X1090787Y-94000D02*
Y-74314D01*
G01Y-94000D02*
Y-74314D01*
G01Y931127D02*
Y899756D01*
G01D02*
X1445118D01*
G01X1090787Y962497D02*
Y931126D01*
G01D02*
X1445118D01*
G01X1090787Y1016236D02*
Y962497D01*
X1130157D01*
G01X1090787Y993867D02*
X1484488D01*
G01X1090787Y1006551D02*
X1484488D01*
G01X1090787Y1016236D02*
Y1035921D01*
G01Y1016236D02*
Y1035921D01*
G01X1101591Y913964D02*
X1103341Y917464D01*
G01X1101591D02*
X1103341Y913964D01*
G01X1104891D02*
X1106641Y917464D01*
G01X1104891D02*
X1106641Y913964D01*
G01X1108191D02*
X1109941Y917464D01*
G01X1108191D02*
X1109941Y913964D01*
G01X1111491D02*
X1113241Y917464D01*
G01X1111491D02*
X1113241Y913964D01*
G01X1114791D02*
X1116541Y917464D01*
G01X1114791D02*
X1116541Y913964D01*
G01X1118091D02*
X1119841Y917464D01*
G01X1118091D02*
X1119841Y913964D01*
G01X1101591Y945334D02*
X1103341Y948834D01*
G01X1101591D02*
X1103341Y945334D01*
G01X1104891D02*
X1106641Y948834D01*
G01X1104891D02*
X1106641Y945334D01*
G01X1108191D02*
X1109941Y948834D01*
G01X1108191D02*
X1109941Y945334D01*
G01X1111491D02*
X1113241Y948834D01*
G01X1111491D02*
X1113241Y945334D01*
G01X1114791D02*
X1116541Y948834D01*
G01X1114791D02*
X1116541Y945334D01*
G01X1118091D02*
X1119841Y948834D01*
G01X1118091D02*
X1119841Y945334D01*
G01X1102003Y974650D02*
X1103753Y978150D01*
G01X1102003D02*
X1103753Y974650D01*
G01X1105303D02*
X1107053Y978150D01*
G01X1105303D02*
X1107053Y974650D01*
G01X1108603D02*
X1110353Y978150D01*
G01X1108603D02*
X1110353Y974650D01*
G01X1111903D02*
X1113653Y978150D01*
G01X1111903D02*
X1113653Y974650D01*
G01X1115203D02*
X1116953Y978150D01*
G01X1115203D02*
X1116953Y974650D01*
G01X1118503D02*
X1120253Y978150D01*
G01X1118503D02*
X1120253Y974650D01*
G01X1130157Y931127D02*
Y899756D01*
G01Y962497D02*
Y931126D01*
G01Y1006551D02*
Y962497D01*
X1161653D01*
G01X1143845Y913346D02*
X1145595Y916846D01*
G01X1143845D02*
X1145595Y913346D01*
G01X1147145D02*
X1148895Y916846D01*
G01X1147145D02*
X1148895Y913346D01*
G01X1143845Y944716D02*
X1145595Y948216D01*
G01X1143845D02*
X1145595Y944716D01*
G01X1147145D02*
X1148895Y948216D01*
G01X1147145D02*
X1148895Y944716D01*
G01X1144593Y977984D02*
X1146343Y981484D01*
G01X1144593D02*
X1146343Y977984D01*
G01X1147893D02*
X1149643Y981484D01*
G01X1147893D02*
X1149643Y977984D01*
G01X1142889Y998182D02*
Y1001682D01*
X1143930D01*
X1144264Y1001507D01*
X1144472Y1001274D01*
X1144555Y1000807D01*
X1144472Y1000340D01*
X1144222Y1000049D01*
X1143930Y999874D01*
X1142889D01*
G01X1143930D02*
X1144555Y998182D01*
G01X1147855D02*
X1146189D01*
Y1001682D01*
X1147855D01*
G01X1147189Y999990D02*
X1146189D01*
G01X1149280Y1001682D02*
X1150322Y998182D01*
X1151364Y1001682D01*
G01X1161653Y931127D02*
Y899756D01*
G01Y962497D02*
Y931126D01*
G01X1366378Y962497D02*
X1161653D01*
Y1006551D01*
G01X1189301Y-92031D02*
X1189701Y-88565D01*
X1190301Y-85632D01*
X1191101Y-82964D01*
X1192101Y-80031D01*
X1193701Y-76031D01*
X1185701D01*
G01X1194650Y-78355D02*
X1193450Y-76755D01*
X1192050Y-75955D01*
X1190450Y-75688D01*
X1188450Y-76221D01*
X1187050Y-77555D01*
X1186650Y-79155D01*
X1186850Y-80755D01*
X1187650Y-82088D01*
X1191650Y-84755D01*
X1193450Y-86622D01*
X1194650Y-89289D01*
X1195050Y-91688D01*
X1186650D01*
G01X1196439Y1018206D02*
X1196839Y1021672D01*
X1197439Y1024606D01*
X1198239Y1027273D01*
X1199239Y1030206D01*
X1200839Y1034206D01*
X1192839D01*
G01X1194650Y1031880D02*
X1193450Y1033480D01*
X1192050Y1034280D01*
X1190450Y1034547D01*
X1188450Y1034014D01*
X1187050Y1032680D01*
X1186650Y1031080D01*
X1186850Y1029480D01*
X1187650Y1028147D01*
X1191650Y1025480D01*
X1193450Y1023614D01*
X1194650Y1020946D01*
X1195050Y1018547D01*
X1186650D01*
G01X1252276Y983362D02*
X1253276D01*
G01X1252776D02*
Y979862D01*
G01X1252276D02*
X1253276D01*
G01X1255118D02*
Y983362D01*
X1257034Y979862D01*
Y983362D01*
G01X1258876D02*
X1259876D01*
G01X1259376D02*
Y979862D01*
G01X1258876D02*
X1259876D01*
G01X1262676Y983362D02*
Y979862D01*
G01X1261718Y983362D02*
X1263634D01*
G01X1265476D02*
X1266476D01*
G01X1265976D02*
Y979862D01*
G01X1265476D02*
X1266476D01*
G01X1268234D02*
X1269276Y983362D01*
X1270318Y979862D01*
G01X1269943Y981087D02*
X1268609D01*
G01X1271743Y983362D02*
Y979862D01*
X1273409D01*
G01X1278343D02*
Y983362D01*
X1279384D01*
X1279718Y983187D01*
X1279926Y982953D01*
X1280009Y982487D01*
X1279926Y982020D01*
X1279676Y981728D01*
X1279384Y981553D01*
X1278343D01*
G01X1279384D02*
X1280009Y979862D01*
G01X1283309D02*
X1281643D01*
Y983362D01*
X1283309D01*
G01X1282643Y981670D02*
X1281643D01*
G01X1284943Y983362D02*
Y979862D01*
X1286609D01*
G01X1289909D02*
X1288243D01*
Y983362D01*
X1289909D01*
G01X1289243Y981670D02*
X1288243D01*
G01X1291334Y979862D02*
X1292376Y983362D01*
X1293418Y979862D01*
G01X1293043Y981087D02*
X1291709D01*
G01X1294801Y980328D02*
X1295134Y980037D01*
X1295509Y979862D01*
X1295843D01*
X1296176Y980037D01*
X1296426Y980328D01*
X1296551Y980737D01*
X1296468Y981145D01*
X1296259Y981495D01*
X1295884Y981728D01*
X1295384Y981845D01*
X1295093Y982078D01*
X1294968Y982487D01*
X1295051Y982895D01*
X1295259Y983187D01*
X1295551Y983362D01*
X1295843D01*
X1296134Y983245D01*
X1296384Y982953D01*
G01X1299809Y979862D02*
X1298143D01*
Y983362D01*
X1299809D01*
G01X1299143Y981670D02*
X1298143D01*
G01X1263572Y918901D02*
Y916393D01*
X1263738Y915868D01*
X1264072Y915518D01*
X1264488Y915401D01*
X1264905Y915518D01*
X1265238Y915868D01*
X1265405Y916393D01*
Y918901D01*
G01X1266955Y915401D02*
Y918901D01*
X1267955D01*
X1268288Y918726D01*
X1268538Y918318D01*
X1268622Y917851D01*
X1268538Y917384D01*
X1268330Y917034D01*
X1267955Y916859D01*
X1266955D01*
G01X1270172Y915401D02*
Y918901D01*
X1271005D01*
X1271338Y918726D01*
X1271588Y918493D01*
X1271797Y918143D01*
X1271963Y917734D01*
X1272005Y917151D01*
X1271963Y916568D01*
X1271797Y916160D01*
X1271588Y915809D01*
X1271338Y915576D01*
X1271005Y915401D01*
X1270172D01*
G01X1273346D02*
X1274388Y918901D01*
X1275430Y915401D01*
G01X1275055Y916626D02*
X1273722D01*
G01X1277688Y918901D02*
Y915401D01*
G01X1276730Y918901D02*
X1278646D01*
G01X1281822Y915401D02*
X1280155D01*
Y918901D01*
X1281822D01*
G01X1281155Y917210D02*
X1280155D01*
G01X1263572Y950271D02*
Y947763D01*
X1263738Y947238D01*
X1264072Y946888D01*
X1264488Y946771D01*
X1264905Y946888D01*
X1265238Y947238D01*
X1265405Y947763D01*
Y950271D01*
G01X1266955Y946771D02*
Y950271D01*
X1267955D01*
X1268288Y950096D01*
X1268538Y949688D01*
X1268622Y949221D01*
X1268538Y948754D01*
X1268330Y948404D01*
X1267955Y948229D01*
X1266955D01*
G01X1270172Y946771D02*
Y950271D01*
X1271005D01*
X1271338Y950096D01*
X1271588Y949862D01*
X1271797Y949513D01*
X1271963Y949104D01*
X1272005Y948521D01*
X1271963Y947938D01*
X1271797Y947529D01*
X1271588Y947179D01*
X1271338Y946946D01*
X1271005Y946771D01*
X1270172D01*
G01X1273346D02*
X1274388Y950271D01*
X1275430Y946771D01*
G01X1275055Y947996D02*
X1273722D01*
G01X1277688Y950271D02*
Y946771D01*
G01X1276730Y950271D02*
X1278646D01*
G01X1281822Y946771D02*
X1280155D01*
Y950271D01*
X1281822D01*
G01X1281155Y948579D02*
X1280155D01*
G01X1262680Y998182D02*
X1263722Y1001682D01*
X1264764Y998182D01*
G01X1264389Y999407D02*
X1263055D01*
G01X1267939Y1001390D02*
X1267689Y1001565D01*
X1267397Y1001682D01*
X1267064D01*
X1266689Y1001507D01*
X1266397Y1001215D01*
X1266189Y1000865D01*
X1266022Y1000282D01*
X1265980Y999757D01*
X1266064Y999232D01*
X1266189Y998882D01*
X1266439Y998532D01*
X1266730Y998299D01*
X1267022Y998182D01*
X1267314D01*
X1267605Y998299D01*
X1267855Y998474D01*
X1268064Y998707D01*
G01X1270322Y1001682D02*
Y998182D01*
G01X1269364Y1001682D02*
X1271280D01*
G01X1273122D02*
X1274122D01*
G01X1273622D02*
Y998182D01*
G01X1273122D02*
X1274122D01*
G01X1276922D02*
X1276589Y998240D01*
X1276297Y998474D01*
X1276047Y998824D01*
X1275880Y999232D01*
X1275797Y999699D01*
Y1000165D01*
X1275880Y1000632D01*
X1276047Y1001040D01*
X1276297Y1001390D01*
X1276589Y1001624D01*
X1276922Y1001682D01*
X1277255Y1001624D01*
X1277547Y1001390D01*
X1277797Y1001040D01*
X1277964Y1000632D01*
X1278047Y1000165D01*
Y999699D01*
X1277964Y999232D01*
X1277797Y998824D01*
X1277547Y998474D01*
X1277255Y998240D01*
X1276922Y998182D01*
G01X1279264D02*
Y1001682D01*
X1281180Y998182D01*
Y1001682D01*
G01X1258889Y1010182D02*
Y1013682D01*
X1259930D01*
X1260264Y1013507D01*
X1260472Y1013274D01*
X1260555Y1012807D01*
X1260472Y1012340D01*
X1260222Y1012049D01*
X1259930Y1011874D01*
X1258889D01*
G01X1259930D02*
X1260555Y1010182D01*
G01X1263855D02*
X1262189D01*
Y1013682D01*
X1263855D01*
G01X1263189Y1011990D02*
X1262189D01*
G01X1265280Y1013682D02*
X1266322Y1010182D01*
X1267364Y1013682D01*
G01X1269122D02*
X1270122D01*
G01X1269622D02*
Y1010182D01*
G01X1269122D02*
X1270122D01*
G01X1272047Y1010649D02*
X1272380Y1010357D01*
X1272755Y1010182D01*
X1273089D01*
X1273422Y1010357D01*
X1273672Y1010649D01*
X1273797Y1011057D01*
X1273714Y1011465D01*
X1273505Y1011815D01*
X1273130Y1012049D01*
X1272630Y1012165D01*
X1272339Y1012399D01*
X1272214Y1012807D01*
X1272297Y1013215D01*
X1272505Y1013507D01*
X1272797Y1013682D01*
X1273089D01*
X1273380Y1013565D01*
X1273630Y1013274D01*
G01X1275722Y1013682D02*
X1276722D01*
G01X1276222D02*
Y1010182D01*
G01X1275722D02*
X1276722D01*
G01X1279522D02*
X1279189Y1010240D01*
X1278897Y1010474D01*
X1278647Y1010824D01*
X1278480Y1011232D01*
X1278397Y1011699D01*
Y1012165D01*
X1278480Y1012632D01*
X1278647Y1013040D01*
X1278897Y1013390D01*
X1279189Y1013624D01*
X1279522Y1013682D01*
X1279855Y1013624D01*
X1280147Y1013390D01*
X1280397Y1013040D01*
X1280564Y1012632D01*
X1280647Y1012165D01*
Y1011699D01*
X1280564Y1011232D01*
X1280397Y1010824D01*
X1280147Y1010474D01*
X1279855Y1010240D01*
X1279522Y1010182D01*
G01X1281864D02*
Y1013682D01*
X1283780Y1010182D01*
Y1013682D01*
G01X1285247Y1010649D02*
X1285580Y1010357D01*
X1285955Y1010182D01*
X1286289D01*
X1286622Y1010357D01*
X1286872Y1010649D01*
X1286997Y1011057D01*
X1286914Y1011465D01*
X1286705Y1011815D01*
X1286330Y1012049D01*
X1285830Y1012165D01*
X1285539Y1012399D01*
X1285414Y1012807D01*
X1285497Y1013215D01*
X1285705Y1013507D01*
X1285997Y1013682D01*
X1286289D01*
X1286580Y1013565D01*
X1286830Y1013274D01*
G01X1287638Y-94000D02*
Y-74314D01*
G01Y-94000D02*
Y-74314D01*
G01Y1016236D02*
Y1035921D01*
G01Y1016236D02*
Y1035921D01*
G01X1366378Y899756D02*
Y931127D01*
G01Y931126D02*
Y962497D01*
G01X1405748D02*
X1366378D01*
Y1006551D01*
G01X1373826Y998301D02*
Y1001801D01*
X1374660D01*
X1374993Y1001626D01*
X1375243Y1001393D01*
X1375451Y1001043D01*
X1375618Y1000634D01*
X1375660Y1000051D01*
X1375618Y999468D01*
X1375451Y999059D01*
X1375243Y998709D01*
X1374993Y998476D01*
X1374660Y998301D01*
X1373826D01*
G01X1378876D02*
X1377210D01*
Y1001801D01*
X1378876D01*
G01X1378210Y1000110D02*
X1377210D01*
G01X1380468Y998768D02*
X1380801Y998476D01*
X1381176Y998301D01*
X1381510D01*
X1381843Y998476D01*
X1382093Y998768D01*
X1382218Y999176D01*
X1382135Y999584D01*
X1381926Y999934D01*
X1381551Y1000168D01*
X1381051Y1000284D01*
X1380760Y1000518D01*
X1380634Y1000926D01*
X1380718Y1001334D01*
X1380926Y1001626D01*
X1381218Y1001801D01*
X1381510D01*
X1381801Y1001685D01*
X1382051Y1001393D01*
G01X1384143Y1001801D02*
X1385143D01*
G01X1384643D02*
Y998301D01*
G01X1384143D02*
X1385143D01*
G01X1388193Y1000051D02*
X1389026D01*
Y999001D01*
X1388776Y998651D01*
X1388485Y998418D01*
X1388068Y998301D01*
X1387651Y998418D01*
X1387360Y998651D01*
X1387110Y999001D01*
X1386943Y999410D01*
X1386860Y999876D01*
Y1000284D01*
X1386943Y1000634D01*
X1387110Y1001043D01*
X1387360Y1001393D01*
X1387610Y1001626D01*
X1387943Y1001801D01*
X1388234D01*
X1388568Y1001685D01*
X1388818Y1001451D01*
G01X1390285Y998301D02*
Y1001801D01*
X1392201Y998301D01*
Y1001801D01*
G01X1395376Y998301D02*
X1393710D01*
Y1001801D01*
X1395376D01*
G01X1394710Y1000110D02*
X1393710D01*
G01X1397010Y998301D02*
Y1001801D01*
X1398051D01*
X1398385Y1001626D01*
X1398593Y1001393D01*
X1398676Y1000926D01*
X1398593Y1000460D01*
X1398343Y1000168D01*
X1398051Y999993D01*
X1397010D01*
G01X1398051D02*
X1398676Y998301D01*
G01X1386551Y-92031D02*
X1387951Y-91764D01*
X1389551Y-90965D01*
X1390551Y-89632D01*
X1390951Y-87764D01*
X1390551Y-85898D01*
X1389351Y-84298D01*
X1387551Y-83498D01*
X1385551D01*
X1384351Y-82964D01*
X1383351Y-81631D01*
X1382951Y-79765D01*
X1383551Y-77898D01*
X1384951Y-76564D01*
X1386551Y-76031D01*
X1388151Y-76564D01*
X1389551Y-77898D01*
X1390151Y-79765D01*
X1389751Y-81631D01*
X1388751Y-82964D01*
X1387551Y-83498D01*
X1385551D01*
X1383751Y-84298D01*
X1382551Y-85898D01*
X1382151Y-87764D01*
X1382551Y-89632D01*
X1383551Y-90965D01*
X1385151Y-91764D01*
X1386551Y-92031D01*
G01X1385853Y-91292D02*
Y-75292D01*
X1388253Y-78492D01*
G01Y-91292D02*
X1383453D01*
G01X1382026Y913531D02*
X1383776Y917031D01*
G01X1382026D02*
X1383776Y913531D01*
G01X1385326D02*
X1387076Y917031D01*
G01X1385326D02*
X1387076Y913531D01*
G01X1388626D02*
X1390376Y917031D01*
G01X1388626D02*
X1390376Y913531D01*
G01X1391926D02*
X1393676Y917031D01*
G01X1391926D02*
X1393676Y913531D01*
G01X1382026Y944901D02*
X1383776Y948401D01*
G01X1382026D02*
X1383776Y944901D01*
G01X1385326D02*
X1387076Y948401D01*
G01X1385326D02*
X1387076Y944901D01*
G01X1388626D02*
X1390376Y948401D01*
G01X1388626D02*
X1390376Y944901D01*
G01X1391926D02*
X1393676Y948401D01*
G01X1391926D02*
X1393676Y944901D01*
G01X1381874Y978269D02*
X1383624Y981769D01*
G01X1381874D02*
X1383624Y978269D01*
G01X1385174D02*
X1386924Y981769D01*
G01X1385174D02*
X1386924Y978269D01*
G01X1388474D02*
X1390224Y981769D01*
G01X1388474D02*
X1390224Y978269D01*
G01X1391774D02*
X1393524Y981769D01*
G01X1391774D02*
X1393524Y978269D01*
G01X1393954Y1018206D02*
X1395354Y1018472D01*
X1396954Y1019272D01*
X1397954Y1020605D01*
X1398354Y1022473D01*
X1397954Y1024339D01*
X1396754Y1025939D01*
X1394954Y1026739D01*
X1392954D01*
X1391754Y1027273D01*
X1390754Y1028606D01*
X1390354Y1030472D01*
X1390954Y1032339D01*
X1392354Y1033673D01*
X1393954Y1034206D01*
X1395554Y1033673D01*
X1396954Y1032339D01*
X1397554Y1030472D01*
X1397154Y1028606D01*
X1396154Y1027273D01*
X1394954Y1026739D01*
X1392954D01*
X1391154Y1025939D01*
X1389954Y1024339D01*
X1389554Y1022473D01*
X1389954Y1020605D01*
X1390954Y1019272D01*
X1392554Y1018472D01*
X1393954Y1018206D01*
G01X1385853Y1018943D02*
Y1034943D01*
X1388253Y1031743D01*
G01Y1018943D02*
X1383453D01*
G01X1405748Y899756D02*
Y931127D01*
G01X1409342Y913206D02*
X1411092Y916706D01*
G01X1409342D02*
X1411092Y913206D01*
G01X1412642D02*
X1414392Y916706D01*
G01X1412642D02*
X1414392Y913206D01*
G01X1415942D02*
X1417692Y916706D01*
G01X1415942D02*
X1417692Y913206D01*
G01X1419242D02*
X1420992Y916706D01*
G01X1419242D02*
X1420992Y913206D01*
G01X1422875Y914372D02*
X1423959D01*
G01X1425842Y913206D02*
X1427592Y916706D01*
G01X1425842D02*
X1427592Y913206D01*
G01X1429142D02*
X1430892Y916706D01*
G01X1429142D02*
X1430892Y913206D01*
G01X1432775Y914372D02*
X1433859D01*
G01X1435742Y913206D02*
X1437492Y916706D01*
G01X1435742D02*
X1437492Y913206D01*
G01X1439042D02*
X1440792Y916706D01*
G01X1439042D02*
X1440792Y913206D01*
G01X1409342Y944576D02*
X1411092Y948076D01*
G01X1409342D02*
X1411092Y944576D01*
G01X1412642D02*
X1414392Y948076D01*
G01X1412642D02*
X1414392Y944576D01*
G01X1415942D02*
X1417692Y948076D01*
G01X1415942D02*
X1417692Y944576D01*
G01X1419242D02*
X1420992Y948076D01*
G01X1419242D02*
X1420992Y944576D01*
G01X1422875Y945743D02*
X1423959D01*
G01X1425842Y944576D02*
X1427592Y948076D01*
G01X1425842D02*
X1427592Y944576D01*
G01X1429142D02*
X1430892Y948076D01*
G01X1429142D02*
X1430892Y944576D01*
G01X1432775Y945743D02*
X1433859D01*
G01X1435742Y944576D02*
X1437492Y948076D01*
G01X1435742D02*
X1437492Y944576D01*
G01X1439042D02*
X1440792Y948076D01*
G01X1439042D02*
X1440792Y944576D01*
G01X1405748Y931126D02*
Y962497D01*
G01Y1006551D02*
Y962497D01*
X1445118D01*
G01X1410090Y977844D02*
X1411840Y981344D01*
G01X1410090D02*
X1411840Y977844D01*
G01X1413390D02*
X1415140Y981344D01*
G01X1413390D02*
X1415140Y977844D01*
G01X1416690D02*
X1418440Y981344D01*
G01X1416690D02*
X1418440Y977844D01*
G01X1419990D02*
X1421740Y981344D01*
G01X1419990D02*
X1421740Y977844D01*
G01X1423623Y979011D02*
X1424707D01*
G01X1426590Y977844D02*
X1428340Y981344D01*
G01X1426590D02*
X1428340Y977844D01*
G01X1429890D02*
X1431640Y981344D01*
G01X1429890D02*
X1431640Y977844D01*
G01X1433523Y979011D02*
X1434607D01*
G01X1436490Y977844D02*
X1438240Y981344D01*
G01X1436490D02*
X1438240Y977844D01*
G01X1439790D02*
X1441540Y981344D01*
G01X1439790D02*
X1441540Y977844D01*
G01X1419805Y998182D02*
Y1001682D01*
X1420639D01*
X1420972Y1001507D01*
X1421222Y1001274D01*
X1421430Y1000924D01*
X1421597Y1000515D01*
X1421639Y999932D01*
X1421597Y999349D01*
X1421430Y998940D01*
X1421222Y998590D01*
X1420972Y998357D01*
X1420639Y998182D01*
X1419805D01*
G01X1422980D02*
X1424022Y1001682D01*
X1425064Y998182D01*
G01X1424689Y999407D02*
X1423355D01*
G01X1427322Y1001682D02*
Y998182D01*
G01X1426364Y1001682D02*
X1428280D01*
G01X1431455Y998182D02*
X1429789D01*
Y1001682D01*
X1431455D01*
G01X1430789Y999990D02*
X1429789D01*
G01X1445118Y931127D02*
Y899756D01*
G01D02*
X1484488D01*
G01X1445118Y962497D02*
Y931126D01*
G01D02*
X1484488D01*
G01X1445118Y1006551D02*
Y962497D01*
X1484488D01*
Y1016236D01*
G01X1459794Y913187D02*
X1461544Y916687D01*
G01X1459794D02*
X1461544Y913187D01*
G01X1463094D02*
X1464844Y916687D01*
G01X1463094D02*
X1464844Y913187D01*
G01X1466394D02*
X1468144Y916687D01*
G01X1466394D02*
X1468144Y913187D01*
G01X1469694D02*
X1471444Y916687D01*
G01X1469694D02*
X1471444Y913187D01*
G01X1459794Y944557D02*
X1461544Y948057D01*
G01X1459794D02*
X1461544Y944557D01*
G01X1463094D02*
X1464844Y948057D01*
G01X1463094D02*
X1464844Y944557D01*
G01X1466394D02*
X1468144Y948057D01*
G01X1466394D02*
X1468144Y944557D01*
G01X1469694D02*
X1471444Y948057D01*
G01X1469694D02*
X1471444Y944557D01*
G01X1460542Y977824D02*
X1462292Y981324D01*
G01X1460542D02*
X1462292Y977824D01*
G01X1463842D02*
X1465592Y981324D01*
G01X1463842D02*
X1465592Y977824D01*
G01X1467142D02*
X1468892Y981324D01*
G01X1467142D02*
X1468892Y977824D01*
G01X1470442D02*
X1472192Y981324D01*
G01X1470442D02*
X1472192Y977824D01*
G01X1463901Y997902D02*
X1463568Y997960D01*
X1463276Y998194D01*
X1463026Y998544D01*
X1462860Y998952D01*
X1462776Y999419D01*
Y999885D01*
X1462860Y1000352D01*
X1463026Y1000760D01*
X1463276Y1001110D01*
X1463568Y1001344D01*
X1463901Y1001402D01*
X1464234Y1001344D01*
X1464526Y1001110D01*
X1464776Y1000760D01*
X1464943Y1000352D01*
X1465026Y999885D01*
Y999419D01*
X1464943Y998952D01*
X1464776Y998544D01*
X1464526Y998194D01*
X1464234Y997960D01*
X1463901Y997902D01*
G01X1464234Y998835D02*
X1464734Y997902D01*
G01X1466160D02*
X1467201Y1001402D01*
X1468243Y997902D01*
G01X1467868Y999127D02*
X1466534D01*
G01X1484488Y-74314D02*
Y962497D01*
G01Y1016236D02*
Y-74314D01*
G01X1491019Y10332D02*
Y26332D01*
X1498619D01*
G01X1495819Y18599D02*
X1491019D01*
G01X1499495Y11069D02*
Y27069D01*
X1491895D01*
G01X1494695Y19336D02*
X1499495D01*
G01X1504173Y108756D02*
X1484488D01*
G01D02*
X1504173D01*
G01X1498819Y191434D02*
X1490819D01*
Y207434D01*
X1498819D01*
G01X1495619Y199701D02*
X1490819D01*
G01X1491695Y192171D02*
X1499695D01*
Y208171D01*
X1491695D01*
G01X1494895Y200438D02*
X1499695D01*
G01X1504173Y289858D02*
X1484488D01*
G01D02*
X1504173D01*
G01X1489183Y372536D02*
Y388536D01*
X1493183D01*
X1494783Y387736D01*
X1495983Y386669D01*
X1496983Y385069D01*
X1497783Y383202D01*
X1497983Y380536D01*
X1497783Y377869D01*
X1496983Y376002D01*
X1495983Y374402D01*
X1494783Y373336D01*
X1493183Y372536D01*
X1489183D01*
G01X1501331Y373273D02*
Y389273D01*
X1497331D01*
X1495731Y388472D01*
X1494531Y387406D01*
X1493531Y385806D01*
X1492731Y383939D01*
X1492531Y381273D01*
X1492731Y378606D01*
X1493531Y376739D01*
X1494531Y375139D01*
X1495731Y374073D01*
X1497331Y373273D01*
X1501331D01*
G01X1499586Y568305D02*
X1498386Y569105D01*
X1496986Y569638D01*
X1495386D01*
X1493586Y568838D01*
X1492186Y567505D01*
X1491186Y565905D01*
X1490386Y563238D01*
X1490186Y560838D01*
X1490586Y558438D01*
X1491186Y556838D01*
X1492386Y555238D01*
X1493786Y554171D01*
X1495186Y553638D01*
X1496586D01*
X1497986Y554171D01*
X1499186Y554971D01*
X1500186Y556038D01*
G01X1490928Y569042D02*
X1492128Y569843D01*
X1493528Y570376D01*
X1495128D01*
X1496928Y569576D01*
X1498328Y568243D01*
X1499328Y566642D01*
X1500128Y563976D01*
X1500328Y561576D01*
X1499928Y559176D01*
X1499328Y557576D01*
X1498128Y555976D01*
X1496728Y554909D01*
X1495328Y554376D01*
X1493928D01*
X1492528Y554909D01*
X1491328Y555709D01*
X1490328Y556776D01*
G01X1504173Y652063D02*
X1484488D01*
G01D02*
X1504173D01*
G01X1495632Y743274D02*
X1496432Y744074D01*
X1497032Y745407D01*
X1497432Y747274D01*
X1497032Y748874D01*
X1496232Y749941D01*
X1494832Y750741D01*
X1489432D01*
Y734741D01*
X1496032D01*
X1497432Y735807D01*
X1498232Y737408D01*
X1498632Y739274D01*
X1498232Y741140D01*
X1497032Y742741D01*
X1495632Y743274D01*
X1489432D01*
G01X1494883Y744012D02*
X1494083Y744811D01*
X1493483Y746144D01*
X1493083Y748012D01*
X1493483Y749611D01*
X1494283Y750678D01*
X1495683Y751478D01*
X1501083D01*
Y735478D01*
X1494483D01*
X1493083Y736544D01*
X1492283Y738145D01*
X1491883Y740011D01*
X1492283Y741878D01*
X1493483Y743478D01*
X1494883Y744012D01*
X1501083D01*
G01X1504173Y833165D02*
X1484488D01*
G01D02*
X1504173D01*
G01X1488244Y915843D02*
X1493244Y931843D01*
X1498244Y915843D01*
G01X1496444Y921443D02*
X1490044D01*
G01X1502270Y916582D02*
X1497270Y932582D01*
X1492270Y916582D01*
G01X1494070Y922182D02*
X1500470D01*
G54D26*
X72252Y119685D03*
Y180315D03*
X91937Y119685D03*
X89968D03*
X88000D03*
X86031D03*
X84063D03*
X82094D03*
X80126D03*
X78157D03*
X76189D03*
X74220D03*
Y180315D03*
X76189D03*
X78157D03*
X80126D03*
X82094D03*
X84063D03*
X86031D03*
X88000D03*
X89968D03*
X91937D03*
X111622Y119685D03*
X109654D03*
X107685D03*
X105717D03*
X103748D03*
X101780D03*
X99811D03*
X97842D03*
X95874D03*
X93906D03*
Y180315D03*
X95874D03*
X97842D03*
X99811D03*
X101780D03*
X103748D03*
X105717D03*
X107685D03*
X109654D03*
X111622D03*
X119496Y119685D03*
X117528D03*
X115559D03*
X113591D03*
Y180315D03*
X115559D03*
X117528D03*
X119496D03*
G54D17*
X35079Y170945D03*
Y180000D03*
Y189055D03*
G54D44*
X234250Y294000D03*
X241750D03*
X294250D03*
X301750D03*
X354250D03*
X361750D03*
G54D35*
X165000Y147500D03*
Y141500D03*
X220000Y325000D03*
Y331000D03*
X245000Y145000D03*
X251000D03*
X245000Y151000D03*
X251000D03*
X245000Y204000D03*
X251000D03*
X245000Y210000D03*
X251000D03*
X280000Y325000D03*
Y331000D03*
X326500Y145000D03*
X332500D03*
X326500Y151000D03*
X332500D03*
X327000Y204500D03*
X333000D03*
X327000Y210500D03*
X333000D03*
X340000Y325000D03*
Y331000D03*
G54D63*
G01X24884Y252000D02*
Y247000D01*
G01X169884Y235500D02*
Y240500D01*
G01X311200Y153400D02*
X367000D01*
G01X312800Y155400D02*
X367000D01*
G01X313200Y157400D02*
X365000D01*
G01X339500Y210500D02*
X309900Y151500D01*
G01D02*
X369000D01*
G01X313900Y159400D02*
X333500D01*
G01X315600Y161300D02*
X329600D01*
G01X315800Y163300D02*
X327600D01*
G01X317400Y165300D02*
X327200D01*
G01X324900Y178600D02*
X327600Y164100D01*
G01X331600Y159400D02*
X340200D01*
G01X333200Y165300D02*
X338300D01*
G01X333200Y166800D02*
X335500D01*
G01X333200Y165300D02*
X331200Y176300D01*
G01X335500Y164100D02*
X333200Y165300D01*
G01X333900Y159000D02*
X336300Y159400D01*
G01X327600Y164100D02*
X333900Y159000D01*
G01X319300Y169200D02*
X326500D01*
G01X318100Y167200D02*
X326500D01*
G01X320200Y171200D02*
X325700D01*
G01X321400Y173100D02*
X325700D01*
G01X322100Y175100D02*
X325700D01*
G01X323100Y177100D02*
X324900D01*
G01X323900Y179000D02*
X324900D01*
G01X324800Y181000D02*
X325700D01*
G01X325600Y182300D02*
X326900Y184900D01*
G01X364800Y159900D02*
X325600Y182300D01*
G01X326500Y180900D02*
X324900Y178600D01*
G01X332800Y168800D02*
X342600Y163300D01*
G01X327200Y184900D02*
X328800D01*
G01X327200Y184800D02*
X362200Y164900D01*
G01X331200Y176300D02*
X332800Y178300D01*
G01X328800Y184600D02*
X328400Y184200D01*
G01X335900Y192800D02*
X328800Y184600D01*
G01X327800Y186900D02*
X330400D01*
G01X329400Y188900D02*
X332400D01*
G01X329700Y190900D02*
X333500D01*
G01X330900Y192800D02*
X335500D01*
G01X332000Y194800D02*
X343400D01*
G01X333100Y196800D02*
X346100D01*
G01X349300Y163300D02*
X357200D01*
G01X349300Y161300D02*
X362300D01*
G01X344200Y159400D02*
X365000D01*
G01X348100Y163300D02*
X358700D01*
G01X337900Y160900D02*
X340200D01*
G01X337100Y163300D02*
X341800D01*
G01X348500Y162100D02*
X347700Y163300D01*
G01X348500Y160500D02*
Y162100D01*
G01X347700Y159700D02*
X348500Y160500D01*
G01X345800Y160900D02*
X347700Y159700D01*
G01X342600Y157800D02*
X351300Y167200D01*
G01X341400Y158600D02*
X342600Y157800D01*
G01X340600Y159700D02*
X341400Y158600D01*
G01X340600Y161300D02*
Y159700D01*
G01X341800Y162500D02*
X340600Y161300D01*
G01X343800Y163700D02*
X341800Y162500D01*
G01X345400Y170800D02*
X343800Y163700D01*
G01X336700D02*
X335500Y164100D01*
G01X337500Y162500D02*
X336700Y163700D01*
G01X337500Y160900D02*
Y162500D01*
G01X336300Y159400D02*
X337500Y160900D01*
G01X350100Y165700D02*
X354000D01*
G01X337900Y171600D02*
X344200Y167200D01*
G01X335900Y181400D02*
X334700Y180600D01*
G01X339100Y181400D02*
X335900D01*
G01X346100Y174700D02*
X339100Y181400D01*
G01X337500Y175900D02*
X337900Y171600D01*
G01X369000Y151500D02*
X339500Y210500D01*
G01X353200Y170400D02*
X354600Y171600D01*
G01X346700Y195400D02*
X335900Y192800D01*
G01X337800Y206600D02*
X341100D01*
G01X334000Y198700D02*
X345100D01*
G01X336700Y204600D02*
X342200D01*
G01X336000Y202700D02*
X343200D01*
G01X334800Y200700D02*
X343900D01*
G01X338700Y208400D02*
X340000D01*
G01X362200Y164900D02*
X364800Y159900D01*
G01X359100Y167200D02*
X361100D01*
G01X355200Y169200D02*
X359800D01*
G01X358700Y171200D02*
X355200D01*
G01Y173100D02*
X357900D01*
G01X355200Y175100D02*
X356700D01*
G01X355200Y177100D02*
X355900D01*
G01X354600Y171600D02*
Y179000D01*
G54D54*
G01X177055Y161937D02*
X178555Y162437D01*
Y161437D01*
X177055Y161937D01*
G54D45*
X233480Y316660D03*
X228480D03*
Y339340D03*
X233480D03*
X243480Y316660D03*
X238480D03*
X238520Y339340D03*
X243520D03*
X293480Y316660D03*
X288480D03*
Y339340D03*
X293480D03*
X303480Y316660D03*
X298480D03*
X298520Y339340D03*
X303520D03*
X353480Y316660D03*
X348480D03*
Y339340D03*
X353480D03*
X363480Y316660D03*
X358480D03*
X358520Y339340D03*
X363520D03*
G54D27*
X65559Y126378D03*
Y128346D03*
Y130315D03*
Y132283D03*
Y134252D03*
Y136220D03*
Y138189D03*
Y140157D03*
Y142126D03*
Y144094D03*
Y146063D03*
Y148032D03*
Y150000D03*
Y151968D03*
Y153937D03*
Y155906D03*
Y157874D03*
Y159843D03*
Y161811D03*
Y163780D03*
Y165748D03*
Y167717D03*
Y169685D03*
Y171654D03*
Y173622D03*
X126189Y126378D03*
Y146063D03*
Y144094D03*
Y142126D03*
Y140157D03*
Y138189D03*
Y136220D03*
Y134252D03*
Y132283D03*
Y130315D03*
Y128346D03*
Y165748D03*
Y163780D03*
Y161811D03*
Y159843D03*
Y157874D03*
Y155906D03*
Y153937D03*
Y151968D03*
Y150000D03*
Y148032D03*
Y173622D03*
Y171654D03*
Y169685D03*
Y167717D03*
G54D18*
X21825Y261957D03*
X26943D03*
Y269043D03*
X24384D03*
X21825D03*
Y291958D03*
X26943D03*
Y299043D03*
X24384D03*
X21825D03*
Y332458D03*
X26943D03*
Y339543D03*
X24384D03*
X21825D03*
X33825Y261957D03*
X38943D03*
Y269043D03*
X36384D03*
X33825D03*
Y291958D03*
X38943D03*
Y299043D03*
X36384D03*
X33825D03*
Y332458D03*
X38943D03*
Y339543D03*
X36384D03*
X33825D03*
X155825Y252458D03*
X160943D03*
Y259543D03*
X158384D03*
X155825D03*
X169825Y252458D03*
X172384Y259543D03*
X169825D03*
X155825Y291958D03*
X160943D03*
Y299043D03*
X158384D03*
X155825D03*
X169825Y291958D03*
X172384Y299043D03*
X169825D03*
Y326458D03*
X155825D03*
X160943D03*
X172384Y333543D03*
X169825D03*
X160943D03*
X158384D03*
X155825D03*
X174943Y252458D03*
Y259543D03*
Y291958D03*
Y299043D03*
Y326458D03*
Y333543D03*
G54D36*
X164866Y158000D03*
X173134Y154260D03*
Y161740D03*
G54D64*
G01X107800Y102500D02*
X110200D01*
G01X109000D02*
Y94500D01*
G01X107800D02*
X110200D01*
G01X114400D02*
Y102500D01*
X117000Y95833D01*
X119600Y102500D01*
Y94500D01*
G01X127200Y101833D02*
X126600Y102233D01*
X125900Y102500D01*
X125100D01*
X124200Y102100D01*
X123500Y101433D01*
X123000Y100633D01*
X122600Y99300D01*
X122500Y98100D01*
X122700Y96900D01*
X123000Y96100D01*
X123600Y95300D01*
X124300Y94767D01*
X125000Y94500D01*
X125700D01*
X126400Y94767D01*
X127000Y95166D01*
X127500Y95700D01*
G01X131700Y97167D02*
X134300D01*
G01X139800Y102500D02*
X142200D01*
G01X141000D02*
Y94500D01*
G01X139800D02*
X142200D01*
G01X149000D02*
X148200Y94633D01*
X147500Y95166D01*
X146900Y95967D01*
X146500Y96900D01*
X146300Y97967D01*
Y99033D01*
X146500Y100100D01*
X146900Y101033D01*
X147500Y101833D01*
X148200Y102367D01*
X149000Y102500D01*
X149800Y102367D01*
X150500Y101833D01*
X151100Y101033D01*
X151500Y100100D01*
X151700Y99033D01*
Y97967D01*
X151500Y96900D01*
X151100Y95967D01*
X150500Y95166D01*
X149800Y94633D01*
X149000Y94500D01*
G01X154000Y91833D02*
X160000D01*
G01X162500Y94500D02*
X165000Y102500D01*
X167500Y94500D01*
G01X166600Y97300D02*
X163400D01*
G01X171700Y97167D02*
X174300D01*
G01X179800Y102500D02*
X182200D01*
G01X181000D02*
Y94500D01*
G01X179800D02*
X182200D01*
G01X186700D02*
Y102500D01*
X191300Y94500D01*
Y102500D01*
G01X194000Y91833D02*
X200000D01*
G01X202500Y94500D02*
X205000Y102500D01*
X207500Y94500D01*
G01X206600Y97300D02*
X203400D01*
G01X213000Y94500D02*
Y102500D01*
X211800Y100900D01*
G01Y94500D02*
X214200D01*
G54D55*
G01X11460Y206360D02*
Y211480D01*
X42960D01*
Y206360D01*
G01Y201640D02*
Y196910D01*
X11460D01*
Y201640D01*
G54D28*
X65559Y119685D03*
X126189Y180315D03*
G54D19*
X27684Y249500D03*
X37084D03*
X167084Y238000D03*
X157684D03*
G54D37*
X195000Y344000D03*
Y353500D03*
X207000Y191500D03*
X196000D03*
X206000Y344000D03*
Y353500D03*
G54D46*
X236000Y328000D03*
X296000D03*
X356000D03*
G54D65*
G01X119299Y127559D02*
G03I-984J0D01*
G54D56*
G01X253640Y114445D02*
G03I-864J0D01*
G01X241360Y116020D02*
G03I-789J0D01*
G01X253640Y173445D02*
G03I-864J0D01*
G01X241360Y175020D02*
G03I-789J0D01*
G01X335140Y114445D02*
G03I-864J0D01*
G01X322860Y116020D02*
G03I-789J0D01*
G01X323360Y175520D02*
G03I-789J0D01*
G01X335640Y173945D02*
G03I-864J0D01*
G54D29*
X74211Y225263D03*
Y223294D03*
Y221326D03*
Y219357D03*
Y246916D03*
Y244948D03*
Y242979D03*
Y241011D03*
Y239042D03*
Y237074D03*
Y235105D03*
Y233137D03*
Y231168D03*
Y229200D03*
Y227231D03*
Y264633D03*
Y262664D03*
Y260696D03*
Y258727D03*
Y256759D03*
Y254790D03*
Y252822D03*
Y250853D03*
Y248885D03*
Y307137D03*
Y305168D03*
Y303200D03*
Y301231D03*
Y299263D03*
Y297294D03*
Y295326D03*
Y293357D03*
Y326822D03*
Y324853D03*
Y322885D03*
Y320916D03*
Y318948D03*
Y316979D03*
Y315011D03*
Y313042D03*
Y311074D03*
Y309105D03*
Y338633D03*
Y336664D03*
Y334696D03*
Y332727D03*
Y330759D03*
Y328790D03*
X102557Y219357D03*
Y221326D03*
Y223294D03*
Y225263D03*
Y227231D03*
Y229200D03*
Y231168D03*
Y233137D03*
Y235105D03*
Y237074D03*
Y239042D03*
Y241011D03*
Y242979D03*
Y244948D03*
Y246916D03*
Y248885D03*
Y250853D03*
Y252822D03*
Y254790D03*
Y256759D03*
Y258727D03*
Y260696D03*
Y262664D03*
Y264633D03*
Y293357D03*
Y295326D03*
Y297294D03*
Y299263D03*
Y301231D03*
Y303200D03*
Y305168D03*
Y307137D03*
Y309105D03*
Y311074D03*
Y313042D03*
Y315011D03*
Y316979D03*
Y318948D03*
Y320916D03*
Y322885D03*
Y324853D03*
Y326822D03*
Y328790D03*
Y330759D03*
Y332727D03*
Y334696D03*
Y336664D03*
Y338633D03*
G54D47*
X229532Y377555D03*
D03*
X253154D03*
D03*
G54D38*
X189874Y383000D03*
Y371000D03*
X203874Y383000D03*
Y371000D03*
G54D57*
G01X229309Y344929D02*
G03I-789J0D01*
G01X227809Y332724D02*
G03I-864J0D01*
G01X289308Y344929D02*
G03I-789J0D01*
G01X287810Y332724D02*
G03I-865J0D01*
G01X349309Y344929D02*
G03I-789J0D01*
G01X347810Y332724D02*
G03I-865J0D01*
G54D48*
X246160Y126020D03*
Y120980D03*
Y115980D03*
Y131020D03*
Y185020D03*
Y179980D03*
Y174980D03*
Y190020D03*
X268840Y115980D03*
Y120980D03*
Y125980D03*
Y130980D03*
Y174980D03*
Y179980D03*
Y184980D03*
Y189980D03*
X327660Y126020D03*
Y120980D03*
Y115980D03*
Y131020D03*
X328160Y185520D03*
Y180480D03*
Y175480D03*
Y190520D03*
X350340Y115980D03*
Y120980D03*
Y125980D03*
Y130980D03*
X350840Y175480D03*
Y180480D03*
Y185480D03*
Y190480D03*
G54D39*
X212043Y86760D03*
Y94240D03*
X204957Y90500D03*
X211543Y117260D03*
Y124740D03*
X204457Y121000D03*
X211543Y146260D03*
Y131760D03*
Y139240D03*
X204457Y135500D03*
X211543Y160760D03*
X204457Y164500D03*
X211543Y153740D03*
X204457Y150000D03*
X211543Y168240D03*
X229543Y86760D03*
Y94240D03*
X222457Y90500D03*
X246543Y86760D03*
Y94240D03*
X239457Y90500D03*
X264043Y86760D03*
Y94240D03*
X256957Y90500D03*
G54D58*
G01X213784Y361807D02*
Y393303D01*
X268902D01*
Y361807D01*
X213784D01*
G54D49*
X250417Y248000D03*
X277583D03*
X312417D03*
X339583D03*
G54D59*
G01X69890Y124016D02*
X121858D01*
Y175984D01*
X69890D01*
Y124016D01*
M02*
