G04 ================== begin FILE IDENTIFICATION RECORD ==================*
G04 Layout Name:  IMC-IO_A-IN_A1.brd*
G04 Film Name:    art02*
G04 File Format:  Gerber RS274X*
G04 File Origin:  Cadence Allegro 16.6-2015-S082*
G04 Origin Date:  Sat Apr 13 15:25:42 2019*
G04 *
G04 Layer:  VIA CLASS/BOTTOM*
G04 Layer:  PIN/BOTTOM*
G04 Layer:  ETCH/BOTTOM*
G04 *
G04 Offset:    (0.000 0.000)*
G04 Mirror:    No*
G04 Mode:      Positive*
G04 Rotation:  0*
G04 FullContactRelief:  No*
G04 UndefLineWidth:     6.000*
G04 ================== end FILE IDENTIFICATION RECORD ====================*
%FSLAX25Y25*MOIN*%
%IR0*IPPOS*OFA0.00000B0.00000*MIA0B0*SFA1.00000B1.00000*%
%ADD40R,.11X.06*%
%ADD52R,.06X.11*%
%ADD41R,.062988X.019681*%
%ADD51R,.17X.08*%
%ADD17C,.2*%
%ADD12R,.07087X.122051*%
%ADD49O,.07874X.15748*%
%ADD48R,.118098X.098402*%
%ADD42R,.14X.1*%
%ADD38R,.04X.03*%
%ADD37R,.03X.04*%
%ADD24R,.04X.03*%
%ADD44R,.08X.08*%
%ADD14C,.04*%
%ADD10C,.022*%
%ADD25C,.05*%
%ADD46R,.045X.055*%
%ADD23R,.044X.048*%
%ADD19R,.019X.046*%
%ADD39R,.055X.065*%
%ADD45C,.063*%
%ADD35C,.018*%
%ADD11C,.064*%
%ADD26C,.065*%
%ADD32C,.075*%
%ADD21R,.020079X.025201*%
%ADD15C,.068*%
%ADD34R,.051181X.043311*%
%ADD22R,.025201X.020079*%
%ADD20R,.035X.035*%
%ADD31R,.065X.065*%
%ADD18R,.07087X.0315*%
%ADD33R,.075X.075*%
%ADD16R,.068X.068*%
%ADD29C,.03937*%
%ADD27R,.011811X.059059*%
%ADD28R,.059059X.011811*%
%ADD13R,.078701X.039402*%
%ADD43R,.137799X.11811*%
%ADD36R,.011811X.062988*%
%ADD30R,.062988X.011811*%
%ADD47R,.017701X.084598*%
%ADD50R,.084598X.017701*%
%ADD53C,.006*%
%ADD54C,.02*%
%ADD55C,.012*%
%ADD56C,.015*%
%ADD57C,.075004*%
G75*
%LPD*%
G75*
G36*
G01X2000Y2000D02*
Y391700D01*
X391700D01*
Y8690D01*
X265724D01*
Y2000D01*
X58500D01*
X58000Y2500D01*
Y20500D01*
X58500Y21000D01*
X61500D01*
X64000Y18500D01*
X222000D01*
X222500Y18000D01*
Y10000D01*
X223000Y9500D01*
X232000D01*
X234500Y12000D01*
Y38000D01*
X235000Y38500D01*
X366500D01*
X374046Y46046D01*
G02X374900Y45693I354J-354D01*
G01Y42837D01*
X378837Y38900D01*
X385163D01*
X389100Y42837D01*
Y49163D01*
X385163Y53100D01*
X382307D01*
G02X381954Y53954I0J500D01*
G01X389700Y61700D01*
Y223000D01*
X389500D01*
X389000Y223500D01*
X388122D01*
X388121Y223500D01*
X370621D01*
X370000Y224121D01*
Y268121D01*
X370000Y268122D01*
Y269000D01*
X369500Y269500D01*
X368622D01*
X368621Y269500D01*
X359500D01*
X359000Y270000D01*
Y303500D01*
X359500Y304000D01*
X364500D01*
X365000Y303500D01*
Y297000D01*
X365500Y296500D01*
X380250D01*
G03X383750I1750J0D01*
G01X384500D01*
X385000Y297000D01*
X388000D01*
X388500Y297500D01*
Y306500D01*
X388000Y307000D01*
X377000D01*
X376500Y307500D01*
Y311000D01*
X375000Y312500D01*
X367500D01*
X367000Y313000D01*
Y322500D01*
X368000Y323500D01*
X373857D01*
G02X374344Y322886I0J-500D01*
G03X377656I1656J-386D01*
G02X378143Y323500I487J114D01*
G01X378500D01*
X379000Y324000D01*
Y332500D01*
X378000Y333500D01*
X375000D01*
X374500Y334000D01*
Y358000D01*
X370500Y362000D01*
X348000D01*
X346000Y360000D01*
Y337500D01*
X345500Y337000D01*
X338000D01*
X336000Y335000D01*
Y328000D01*
X335500Y327500D01*
X324000D01*
X323500Y327000D01*
Y323000D01*
X321500Y321000D01*
Y320622D01*
X321500Y320621D01*
Y292379D01*
X321500Y292378D01*
Y281000D01*
X322000Y280500D01*
X345500D01*
X346000Y280000D01*
Y269500D01*
X347500Y268000D01*
X347878D01*
X347879Y268000D01*
X356500D01*
X357000Y267500D01*
Y247500D01*
X356500Y247000D01*
X350500D01*
X350000Y247500D01*
Y253621D01*
X350000Y253622D01*
Y257000D01*
X349500Y257500D01*
X322000D01*
X321000Y256500D01*
Y252331D01*
X320882D01*
Y243382D01*
X320500Y243000D01*
X319000D01*
X318500Y242500D01*
Y224500D01*
X316000Y222000D01*
X200000D01*
X199000Y221000D01*
Y187500D01*
X199500Y187000D01*
Y181500D01*
X199000Y181000D01*
X185500D01*
X162000Y204500D01*
X154000D01*
X147000Y211500D01*
X125000D01*
X122500Y214000D01*
Y223500D01*
X123500Y224500D01*
X153500D01*
X164000Y235000D01*
X178000D01*
X179500Y236500D01*
Y341000D01*
X180500Y342000D01*
X182000D01*
X185000Y339000D01*
X186000D01*
Y337879D01*
X188379Y335500D01*
X197621D01*
X199500Y337379D01*
Y339000D01*
X203378D01*
X203379Y339000D01*
X215621D01*
X215622Y339000D01*
X216000D01*
X218000Y341000D01*
Y341378D01*
X218000Y341379D01*
Y357121D01*
X218000Y357122D01*
Y359000D01*
X220500Y361500D01*
X259621D01*
X259622Y361500D01*
X261000D01*
X261500Y362000D01*
Y389000D01*
X260800Y389700D01*
X222200D01*
X212500Y380000D01*
X185000D01*
X173000Y368000D01*
X163122D01*
X144621Y386500D01*
X144500D01*
X144000Y387000D01*
X42000D01*
X40000Y385000D01*
Y352000D01*
X39500Y351500D01*
X23000D01*
X19000Y347500D01*
Y344988D01*
G03Y343012I1384J-988D01*
G01Y304488D01*
G03Y302512I1384J-988D01*
G01Y247000D01*
X19500Y246500D01*
X33500D01*
X34000Y246000D01*
Y237500D01*
X45000Y226500D01*
X63500D01*
X64000Y226000D01*
Y218000D01*
X64500Y217500D01*
X74500D01*
X75000Y217000D01*
Y214500D01*
X74500Y214000D01*
X35500D01*
X35000Y213500D01*
Y201000D01*
X35500Y200500D01*
X46000D01*
X47500Y199000D01*
Y198000D01*
X40000Y190500D01*
Y188000D01*
X39500Y187500D01*
X21000D01*
X20000Y188500D01*
X5500D01*
X4000Y187000D01*
Y173500D01*
X6500Y171000D01*
X29000D01*
X29500Y170500D01*
Y137500D01*
X29000Y137000D01*
X18000D01*
X17500Y136500D01*
Y130500D01*
X17000Y130000D01*
X9000D01*
X8500Y129500D01*
Y99000D01*
X10000Y97500D01*
X17500D01*
X18000Y97000D01*
Y88500D01*
X18500Y88000D01*
X27000D01*
X27500Y88500D01*
Y94500D01*
X28000Y95000D01*
X49500D01*
X50000Y95500D01*
Y98500D01*
X50500Y99000D01*
X69000D01*
X69500Y98500D01*
Y95500D01*
X70000Y95000D01*
X92000D01*
X93500Y96500D01*
X99500D01*
X101000Y95000D01*
X123500D01*
X124000Y95500D01*
Y110000D01*
X124200Y110200D01*
X126800D01*
X133000Y104000D01*
Y98598D01*
G03X132379Y98122I1500J-2598D01*
G01X108629Y74372D01*
G03X110577Y69255I2121J-2121D01*
G02X110902Y68402I-29J-499D01*
G01X110250Y67750D01*
X103260D01*
Y68004D01*
X94740D01*
Y67750D01*
X93275D01*
X84250Y58725D01*
Y54854D01*
G02X83823Y54677I-250J0D01*
G01X83500Y55000D01*
Y58000D01*
X83000Y58500D01*
X69500D01*
X67374Y60626D01*
Y86954D01*
X67164Y87164D01*
X67500Y87500D01*
X81500D01*
X82000Y88000D01*
Y92500D01*
X81500Y93000D01*
X54000D01*
X53500Y92500D01*
Y91823D01*
G03Y89177I1500J-1323D01*
G01Y67000D01*
X53000Y66500D01*
X43000D01*
X38500Y62000D01*
Y48000D01*
X38000Y47500D01*
X18500D01*
X18000Y47000D01*
Y11500D01*
X17500Y11000D01*
X15000D01*
X14500Y10500D01*
Y2500D01*
X14000Y2000D01*
X2000D01*
G37*
G36*
G01X7500Y173500D02*
X7000Y174000D01*
Y186000D01*
X7500Y186500D01*
X19000D01*
X21000Y184500D01*
X40500D01*
X42000Y186000D01*
Y190000D01*
X48500Y196500D01*
X55000D01*
X66500Y208000D01*
X94198D01*
X94250Y207974D01*
G03X95750I750J1526D01*
G01X95802Y208000D01*
X102500D01*
X103000Y207500D01*
Y202000D01*
X102500Y201500D01*
X95500D01*
X93500Y203500D01*
X69000D01*
X57500Y192000D01*
X51500D01*
X49000Y189500D01*
Y178500D01*
X48500Y178000D01*
X21000D01*
X16500Y173500D01*
X7500D01*
G37*
G36*
G01X32500Y121000D02*
X31500Y122000D01*
Y174500D01*
X32000Y175000D01*
X48500D01*
X49000Y174500D01*
Y152000D01*
X45000Y148000D01*
Y135000D01*
X45500Y134500D01*
X54000D01*
X54500Y134000D01*
Y132000D01*
X54000Y131500D01*
X49000D01*
X48500Y131000D01*
Y121500D01*
X48000Y121000D01*
X45760D01*
Y121004D01*
X41240D01*
Y121000D01*
X32500D01*
G37*
G36*
G01X54500Y109500D02*
Y104500D01*
X54000Y104000D01*
X47000D01*
X46500Y104500D01*
Y109500D01*
X47000Y110000D01*
X54000D01*
X54500Y109500D01*
G37*
G36*
G01X37500D02*
X38000Y110000D01*
X44000D01*
X44500Y109500D01*
Y104500D01*
X44000Y104000D01*
X38000D01*
X37500Y104500D01*
Y109500D01*
G37*
G36*
G01X51000Y164000D02*
Y189378D01*
X52121Y190500D01*
X57000D01*
X57500Y190000D01*
Y175803D01*
X57474Y175750D01*
G03Y174250I1526J-750D01*
G01X57500Y174198D01*
Y164000D01*
X57000Y163500D01*
X51500D01*
X51000Y164000D01*
G37*
G36*
G01X139500Y375500D02*
X131500D01*
X130000Y374000D01*
Y368000D01*
X129500Y367500D01*
X122000D01*
X113000Y376500D01*
X52500D01*
X51000Y375000D01*
Y367500D01*
X50500Y367000D01*
X43000D01*
X42500Y367500D01*
Y384500D01*
X43000Y385000D01*
X144000D01*
X163000Y366000D01*
X175500D01*
X183500Y374000D01*
X209500D01*
X223000Y387500D01*
X259000D01*
X259500Y387000D01*
Y363500D01*
X259000Y363000D01*
X219000D01*
X215000Y359000D01*
X156000D01*
X139500Y375500D01*
G37*
G36*
G01X131500Y367379D02*
Y373379D01*
X132121Y374000D01*
X138879D01*
X155379Y357500D01*
X197500D01*
X198000Y357000D01*
Y350000D01*
X197500Y349500D01*
X145500D01*
X140000Y355000D01*
X136000D01*
X133500Y357500D01*
X123000D01*
X120500Y355000D01*
X43000D01*
X42500Y355500D01*
Y365000D01*
X43000Y365500D01*
X51121D01*
X52500Y366879D01*
Y374379D01*
X53121Y375000D01*
X111500D01*
X120500Y366000D01*
X121378D01*
X121379Y366000D01*
X130121D01*
X130122Y366000D01*
X130500D01*
X131500Y367000D01*
Y367378D01*
X131500Y367379D01*
G37*
G36*
G01X70000Y135500D02*
Y156000D01*
X70500Y156500D01*
X104000D01*
X108500Y161000D01*
X118000D01*
X118500Y160500D01*
Y146000D01*
X121500Y143000D01*
Y135500D01*
X121000Y135000D01*
X70500D01*
X70000Y135500D01*
G37*
G36*
G01X85000Y221500D02*
X84500Y222000D01*
Y233000D01*
X85000Y233500D01*
X96000D01*
X96500Y233000D01*
Y225263D01*
X96314Y225077D01*
Y221814D01*
X96000Y221500D01*
X85000D01*
G37*
G36*
G01X187500Y346000D02*
X189000Y347500D01*
X197500D01*
X198000Y347000D01*
Y338000D01*
X197000Y337000D01*
X189000D01*
X187500Y338500D01*
Y346000D01*
G37*
G36*
G01X204500Y195500D02*
X212500D01*
X213000Y195000D01*
Y188000D01*
X212500Y187500D01*
X204500D01*
X204000Y188000D01*
Y195000D01*
X204500Y195500D01*
G37*
G36*
G01X204000Y340500D02*
X203500Y341000D01*
Y356500D01*
X204000Y357000D01*
X216000D01*
X216500Y356500D01*
Y342000D01*
X215000Y340500D01*
X204000D01*
G37*
G36*
G01X250000Y149500D02*
X249000Y150500D01*
Y161737D01*
X249163Y161900D01*
X377663D01*
X378263Y162500D01*
X382000D01*
X384000Y164500D01*
Y216500D01*
X383000Y217500D01*
X336500D01*
X336000Y217000D01*
Y209500D01*
X335000Y208500D01*
X332500D01*
X331500Y209500D01*
Y218500D01*
X322000D01*
X318500Y215000D01*
X253500D01*
X253000Y214500D01*
Y209500D01*
X252500Y209000D01*
X250000D01*
X249500Y209500D01*
Y219000D01*
X250500Y220000D01*
X316500D01*
X330500Y234000D01*
Y243669D01*
X331118D01*
Y252331D01*
X330500D01*
Y253000D01*
X331000Y253500D01*
X348000D01*
X348500Y253000D01*
Y244000D01*
X349000Y243500D01*
X358500D01*
X359000Y244000D01*
Y267500D01*
X359500Y268000D01*
X368000D01*
X368500Y267500D01*
Y223500D01*
X370000Y222000D01*
X387500D01*
X388000Y221500D01*
Y159000D01*
X335000D01*
X334500Y158500D01*
Y150000D01*
X331000D01*
X330500Y150500D01*
Y159000D01*
X253500D01*
X253000Y158500D01*
Y149500D01*
X250000D01*
G37*
G36*
G01X346000Y292000D02*
X345500Y291500D01*
X324500D01*
X323000Y293000D01*
Y320000D01*
X324500Y321500D01*
X348500D01*
X349500Y320500D01*
Y311500D01*
X346000Y308000D01*
Y292000D01*
G37*
G36*
G01X348500Y269500D02*
X348000Y270000D01*
Y307878D01*
X349622Y309500D01*
X355500D01*
X357000Y308000D01*
Y270000D01*
X356500Y269500D01*
X348500D01*
G37*
%LPC*%
G75*
G36*
G01X239000Y248500D02*
X225000Y234500D01*
X208500D01*
X200000Y243000D01*
Y326500D01*
X201000Y327500D01*
X216500D01*
X217000Y328000D01*
Y333500D01*
X217500Y334000D01*
X219500Y336000D01*
X224500D01*
X225500Y337000D01*
Y344000D01*
X226000Y344500D01*
X226595D01*
Y344570D01*
X230365D01*
Y344500D01*
X231595D01*
Y344570D01*
X232570D01*
X233000Y345000D01*
Y349000D01*
X232500Y349500D01*
X227000D01*
X226500Y350000D01*
Y357500D01*
X227500Y358500D01*
X252500D01*
X255000Y356000D01*
Y335000D01*
X257000Y333000D01*
X257500D01*
X258500Y332000D01*
Y322000D01*
X257000Y320500D01*
X251000D01*
X249500Y322000D01*
Y332000D01*
X248500Y333000D01*
X230500D01*
X230000Y332500D01*
Y324500D01*
X231000Y323500D01*
X245000D01*
X246500Y322000D01*
Y314500D01*
X248000Y313000D01*
X252500D01*
X254500Y311000D01*
Y306500D01*
X255000Y306000D01*
X258500D01*
X259000Y305500D01*
Y297000D01*
X246000D01*
X245000Y298000D01*
Y303500D01*
X244500Y304000D01*
X239500D01*
X239000Y303500D01*
Y248500D01*
G37*
G36*
G01X299000Y241500D02*
X294500Y237000D01*
X260500D01*
X259000Y238500D01*
Y243669D01*
X258882D01*
Y252331D01*
X259000D01*
Y252500D01*
X262000Y255500D01*
Y291878D01*
X262000Y291879D01*
Y321121D01*
X262000Y321122D01*
Y321500D01*
X263500Y323000D01*
Y327000D01*
X264000Y327500D01*
X276000D01*
X276500Y328000D01*
Y343500D01*
X279000Y346000D01*
X292500D01*
X293000Y346500D01*
Y349500D01*
X292500Y350000D01*
X288000D01*
X287500Y350500D01*
Y357500D01*
X287996Y357996D01*
Y358260D01*
X288260D01*
X288500Y358500D01*
X313000D01*
X314500Y357000D01*
Y335500D01*
X317740Y332260D01*
X318004D01*
Y331996D01*
X318500Y331500D01*
Y322000D01*
X317000Y320500D01*
X311000D01*
X309500Y322000D01*
Y332000D01*
X308500Y333000D01*
X290500D01*
X290000Y332500D01*
Y324500D01*
X291000Y323500D01*
X305000D01*
X306500Y322000D01*
Y314500D01*
X308000Y313000D01*
X312500D01*
X314500Y311000D01*
Y306500D01*
X315000Y306000D01*
X318000D01*
X318500Y305500D01*
Y298500D01*
X318004Y298004D01*
Y297740D01*
X317740D01*
X316500Y296500D01*
X306000D01*
X305000Y297500D01*
Y303500D01*
X304500Y304000D01*
X299500D01*
X299000Y303500D01*
Y241500D01*
G37*
G36*
G01X16663Y366100D02*
X20600Y362163D01*
Y355837D01*
X16663Y351900D01*
X10337D01*
X6400Y355837D01*
Y362163D01*
X10337Y366100D01*
X16663D01*
G37*
G36*
G01X387600Y380663D02*
Y374337D01*
X383663Y370400D01*
X377337D01*
X373400Y374337D01*
Y380663D01*
X377337Y384600D01*
X383663D01*
X387600Y380663D01*
G37*
G54D57*
X251654Y24842D03*
%LPD*%
G75*
G36*
G01X237000Y251000D02*
X235500Y249500D01*
X203500D01*
X202000Y251000D01*
Y279500D01*
X203000Y280500D01*
X236500D01*
X237000Y280000D01*
Y251000D01*
G37*
G36*
G01X226000Y292000D02*
X225500Y291500D01*
X204500D01*
X203000Y293000D01*
Y320000D01*
X204500Y321500D01*
X228500D01*
X229500Y320500D01*
Y311500D01*
X226000Y308000D01*
Y292000D01*
G37*
G36*
G01X228500Y284000D02*
X228000Y284500D01*
Y307878D01*
X229622Y309500D01*
X235500D01*
X237000Y308000D01*
Y284500D01*
X236500Y284000D01*
X228500D01*
G37*
G36*
G01X269000Y243000D02*
X268758Y243242D01*
G02X268934Y243669I177J177D01*
G01X269118D01*
Y252331D01*
X268500D01*
Y279500D01*
X269500Y280500D01*
X296500D01*
X297000Y280000D01*
Y244000D01*
X296000Y243000D01*
X269000D01*
G37*
G36*
G01X286000Y292000D02*
X285500Y291500D01*
X264500D01*
X263500Y292500D01*
Y320500D01*
X264500Y321500D01*
X288500D01*
X289500Y320500D01*
Y311500D01*
X286000Y308000D01*
Y292000D01*
G37*
G36*
G01X288500Y284000D02*
X288000Y284500D01*
Y307878D01*
X289622Y309500D01*
X295500D01*
X297000Y308000D01*
Y284500D01*
X296500Y284000D01*
X288500D01*
G37*
G54D10*
X13100Y3100D03*
X3100D03*
X13100Y14023D03*
Y24023D03*
X3100Y14023D03*
Y24023D03*
X13100Y34023D03*
Y44023D03*
X3100Y34023D03*
Y44023D03*
X13100Y54023D03*
Y64023D03*
X3100Y54023D03*
Y64023D03*
X13100Y84023D03*
Y74023D03*
X3100D03*
Y84023D03*
Y94023D03*
Y104023D03*
Y114023D03*
Y124023D03*
X13100Y144023D03*
X3100Y134023D03*
Y144023D03*
X13100Y164023D03*
Y154023D03*
X3100D03*
Y164023D03*
Y174023D03*
Y184023D03*
X10500Y190000D03*
Y194000D03*
Y200000D03*
X3100Y194023D03*
Y204023D03*
Y214023D03*
Y224023D03*
Y234023D03*
Y244023D03*
Y254023D03*
Y264023D03*
Y274023D03*
Y284023D03*
Y294023D03*
Y304023D03*
Y314023D03*
Y324023D03*
Y334023D03*
Y344023D03*
Y354023D03*
Y364023D03*
X10600Y374023D03*
Y384023D03*
X3100Y374023D03*
Y384023D03*
X10633Y390600D03*
X33100Y84023D03*
Y74023D03*
X23100D03*
Y84023D03*
X33100Y94023D03*
X23100Y144023D03*
Y154023D03*
X33000Y200000D03*
Y192500D03*
X30000Y230000D03*
Y245500D03*
Y254500D03*
X32384Y257970D03*
X24384Y279384D03*
Y273500D03*
X32384Y287970D03*
X28500Y277500D03*
X28384Y287970D03*
Y273500D03*
X32384D03*
X24384Y303500D03*
X32384D03*
X28384D03*
X20384D03*
X24384Y309384D03*
X28384Y328470D03*
X32384Y328470D03*
X24384Y347000D03*
X20384Y344000D03*
X28384D03*
X32384D03*
X24000Y354000D03*
X20633Y390600D03*
X30633D03*
X50374Y60000D03*
X45374D03*
Y64000D03*
X50374D03*
X43100Y74023D03*
Y84023D03*
Y94023D03*
X50500Y97500D03*
X52000Y108500D03*
X48000D03*
X35000Y122500D03*
X45000D03*
X50500Y114500D03*
Y119000D03*
X39000Y108500D03*
X43000D03*
X40000Y122500D03*
X52000Y141000D03*
X48000D03*
X52500Y146500D03*
X52000Y169500D03*
Y176000D03*
X46000Y199000D03*
X37000Y192500D03*
X43000Y199000D03*
X52000Y189000D03*
X43000Y195500D03*
X37084Y245500D03*
X40384Y257970D03*
X36384Y257970D03*
X36000Y280500D03*
Y275000D03*
X40384Y287970D03*
Y273500D03*
X36384Y287970D03*
Y305500D03*
X40384Y303500D03*
X36384Y312000D03*
Y328470D03*
X40384Y328470D03*
X36384Y346000D03*
X40384Y344000D03*
X36000Y354000D03*
X40633Y390600D03*
X50633D03*
X63100Y3100D03*
X73100D03*
X60000Y19500D03*
X63100Y13100D03*
X73100D03*
X64500Y21500D03*
X72000Y62500D03*
X60374Y60000D03*
X55374D03*
Y64000D03*
X60374D03*
X69000Y94500D03*
X55000Y90500D03*
X73000Y109500D03*
X55000Y122500D03*
X70500Y138189D03*
X56500Y146500D03*
X60500D03*
Y129500D03*
X56500D03*
X60500Y133500D03*
Y139000D03*
X71000Y150000D03*
X71500Y165748D03*
X60500Y154500D03*
X56500Y158500D03*
X60500Y165500D03*
Y150500D03*
Y158500D03*
X56500Y154500D03*
Y150500D03*
X70500Y186500D03*
X56000Y185000D03*
Y169500D03*
Y176000D03*
X71500Y175500D03*
X60500Y169000D03*
X59000Y175000D03*
X71500Y171500D03*
X60500Y172000D03*
X70500Y201500D03*
X56000Y189000D03*
X73384Y214995D03*
X69000Y239000D03*
X64000Y257000D03*
X63874Y253500D03*
X73384Y268995D03*
Y288995D03*
X64500Y297500D03*
X63874Y304500D03*
Y327500D03*
X73384Y342995D03*
X64500Y334500D03*
X67580Y343080D03*
X60633Y390600D03*
X70633D03*
X83100Y3100D03*
X93100D03*
X83100Y13100D03*
X93100D03*
X79500Y62500D03*
X93000Y84000D03*
X79500Y83500D03*
X75000Y100000D03*
Y90500D03*
X79000D03*
X83000Y109500D03*
X76000Y145000D03*
X93000Y138189D03*
X82500Y150500D03*
X88750Y167750D03*
X92500Y171500D03*
X83500D03*
X75500D03*
X79500Y175500D03*
X92500D03*
X83500D03*
X79500Y171500D03*
X75500Y175500D03*
X88500Y171500D03*
X90402Y201500D03*
X77000Y192000D03*
X86500Y223500D03*
Y227500D03*
X80633Y390600D03*
X90633D03*
X113100Y3100D03*
X103100D03*
X113100Y13100D03*
X103100D03*
X110000Y83500D03*
X110750Y72250D03*
X95000Y100000D03*
X101000Y98457D03*
Y106500D03*
X105346Y94500D03*
X95000Y104000D03*
X105500Y109500D03*
X101000Y115000D03*
X104500Y125000D03*
X107500Y138189D03*
X109000Y159000D03*
X100000Y150000D03*
X107500D03*
X104000Y164500D03*
X100500D03*
X108000Y167500D03*
X96500Y175500D03*
X108000D03*
X94957Y197543D03*
Y192500D03*
X103000Y188000D03*
X102000Y206500D03*
Y202626D03*
X100500Y215000D03*
X95000Y209500D03*
X105000Y212000D03*
X95000Y223500D03*
Y227500D03*
X110374Y235500D03*
X113374Y257500D03*
Y253500D03*
X102384Y268495D03*
X113374Y303000D03*
Y307000D03*
X102384Y289495D03*
X113374Y327500D03*
Y331500D03*
X109000Y348000D03*
X106500Y341500D03*
X100633Y390600D03*
X110633D03*
X133100Y3100D03*
X123100D03*
X133100Y13100D03*
X123100D03*
X114250Y75750D03*
X125000Y94500D03*
X130000Y102000D03*
X119000Y104000D03*
X125000Y109500D03*
X123000Y118000D03*
X117500Y138189D03*
Y150000D03*
X121500Y165000D03*
X120633Y390600D03*
X130633D03*
X153100Y3100D03*
X143100D03*
X153100Y13100D03*
X143100D03*
X139000Y96000D03*
X134500D03*
X147000Y127000D03*
X136500Y126500D03*
X147000Y123000D03*
Y119000D03*
X136500Y129500D03*
X147000Y147000D03*
Y143000D03*
Y139000D03*
Y135000D03*
Y131000D03*
X151000Y167000D03*
X147000Y163000D03*
Y151000D03*
X151000Y163000D03*
X147000Y156500D03*
X153000Y183000D03*
X149000Y179000D03*
X153000D03*
X151000Y171000D03*
X150500Y382500D03*
X140633Y390600D03*
X150633D03*
X173100Y3100D03*
X163100D03*
X173100Y13100D03*
X163100D03*
X168000Y96500D03*
X164000Y103500D03*
X161000Y101000D03*
X158500Y98500D03*
X155000Y119000D03*
X169543Y116957D03*
X174000Y149000D03*
X168000Y183500D03*
Y187000D03*
X162500Y179000D03*
Y183000D03*
Y187000D03*
X158500D03*
Y183000D03*
Y179000D03*
X167084Y234000D03*
X157684D03*
X158384Y264000D03*
X172384D03*
X154384D03*
X162384D03*
X172384Y248470D03*
X162384D03*
X168384Y248470D03*
X154384D03*
X168384Y264000D03*
X172384Y287970D03*
X162384D03*
X168384Y287970D03*
X154384D03*
X158384Y303500D03*
X172384D03*
X168384D03*
X154384D03*
X162384D03*
X172384Y322470D03*
X162384D03*
X168384Y322470D03*
X154384D03*
X158384Y338000D03*
X172384D03*
X168384D03*
X154384D03*
X162384D03*
X160633Y390600D03*
X170633D03*
X193100Y3100D03*
X183100D03*
X193100Y13100D03*
X183100D03*
X180500Y93500D03*
X191500Y96500D03*
X178500Y116000D03*
X179000Y138000D03*
X190000Y137000D03*
X186500Y137500D03*
X183500Y138500D03*
X180500Y149000D03*
X184500D03*
X188500D03*
X192000Y160500D03*
X190500Y166000D03*
Y170500D03*
X176384Y264000D03*
Y303500D03*
X190000Y338500D03*
X189800Y342000D03*
X176384Y338000D03*
X190000Y356000D03*
Y351500D03*
X180500Y382500D03*
X180633Y390600D03*
X190633D03*
X213100Y3100D03*
X203100D03*
X213100Y13100D03*
X203100D03*
X196000Y71000D03*
X204500Y86500D03*
X204957Y93500D03*
X205240Y124740D03*
X211543Y114457D03*
X205240Y139240D03*
X211543Y142457D03*
Y128457D03*
X205240Y153740D03*
X211543Y156543D03*
X199500Y156000D03*
X194500Y182000D03*
X198500D03*
Y185000D03*
X205500Y168240D03*
X196500Y173500D03*
X211500Y194500D03*
Y190000D03*
X210500Y348500D03*
X214500Y343000D03*
X210500D03*
Y353500D03*
X200633Y390600D03*
X210633D03*
X233100Y3100D03*
X223100D03*
X219000Y86760D03*
X229543Y83543D03*
X226000Y79000D03*
X225000Y98000D03*
X232500Y90500D03*
X223500Y125500D03*
X224500Y116500D03*
X223500Y143500D03*
Y134500D03*
Y130000D03*
Y139000D03*
Y184500D03*
X224500Y175500D03*
X223500Y189000D03*
Y193500D03*
Y198000D03*
Y202500D03*
X231500Y260000D03*
Y252000D03*
Y256000D03*
X232000Y285500D03*
Y289500D03*
X231500Y324500D03*
Y331500D03*
X215000Y348500D03*
Y353500D03*
X220633Y390600D03*
X230633D03*
X253100Y3100D03*
X243100D03*
X239037Y33412D03*
X246543Y83543D03*
X235500Y87000D03*
X254000Y94240D03*
X235260D03*
X237500Y111000D03*
X245000Y155000D03*
X235500Y198000D03*
X235000Y189000D03*
X245000Y214000D03*
X238563Y247874D03*
X254311Y230000D03*
X246437Y240000D03*
X238563Y230000D03*
X254311Y265748D03*
X235500Y254500D03*
Y258500D03*
X254311Y281496D03*
X236000Y285500D03*
X254311Y293307D03*
X236000Y289500D03*
Y328000D03*
X240500Y324500D03*
Y331500D03*
X240633Y390600D03*
X250633D03*
X263100Y3100D03*
X262659Y25538D03*
X254785Y17664D03*
X270533D03*
Y9790D03*
X254785Y33412D03*
X270533D03*
X264000Y83543D03*
X265000Y108000D03*
X260500Y113000D03*
X265500Y142500D03*
X274000Y135500D03*
X256500Y155000D03*
X274500Y153500D03*
X261000Y153000D03*
X274000Y171000D03*
X265500Y201500D03*
X274000Y194500D03*
X256500Y212000D03*
X274500D03*
X261000Y212500D03*
X256000Y307000D03*
Y322500D03*
X270633Y370000D03*
Y385600D03*
X260633Y390600D03*
X270633D03*
X286281Y17664D03*
X294155Y25538D03*
X278407D03*
X280533Y9790D03*
X290533D03*
X286281Y33412D03*
X291500Y127500D03*
X293000Y112500D03*
X291500Y186500D03*
Y182000D03*
X294000Y169500D03*
X289874Y228874D03*
X291500Y250000D03*
Y254000D03*
X292000Y285500D03*
Y289500D03*
X291500Y324500D03*
Y331500D03*
X280633Y362200D03*
X290633Y370000D03*
X280633Y377800D03*
X290633Y385600D03*
X280633Y390600D03*
X290633D03*
X302029Y17664D03*
X309903Y25538D03*
X300533Y9790D03*
X310533D03*
X302029Y33412D03*
X301750Y82750D03*
X300000Y90500D03*
X305000Y125500D03*
X306500Y116500D03*
X305000Y143500D03*
Y134500D03*
Y130000D03*
Y139000D03*
X305500Y185000D03*
X307000Y180500D03*
X305500Y203000D03*
Y194000D03*
Y189500D03*
Y198500D03*
X305622Y228874D03*
X295500Y250000D03*
Y254000D03*
X296000Y285500D03*
Y289500D03*
X300500Y324500D03*
X296000Y328000D03*
X300500Y331500D03*
X308000Y359000D03*
X302000D03*
X310633Y385600D03*
X300633Y390600D03*
X310633D03*
X333525Y17664D03*
X317777D03*
X325651Y25538D03*
X320533Y9790D03*
X330533D03*
X333525Y33412D03*
X317777D03*
X327500Y108500D03*
X321000Y111500D03*
X317000Y130000D03*
X323000Y151000D03*
X322500Y157000D03*
X317500Y189500D03*
X327000Y214500D03*
X316000Y307000D03*
Y322500D03*
X320633Y362200D03*
X330633Y370000D03*
X320633Y377800D03*
X330633Y385600D03*
X320633Y390600D03*
X330633D03*
X349273Y17664D03*
X341399Y25538D03*
X340533Y9790D03*
X350533D03*
X349273Y33412D03*
X347000Y143000D03*
X338000Y153500D03*
X342500D03*
X338000Y173500D03*
X347500Y202000D03*
X344000Y195000D03*
X338500Y213500D03*
X343000D03*
X352000Y249000D03*
Y253000D03*
Y270500D03*
Y274500D03*
X351500Y324500D03*
Y331500D03*
X340633Y362200D03*
X350000Y349000D03*
X350633Y370000D03*
X340633Y377800D03*
X350633Y385600D03*
X340633Y390600D03*
X350633D03*
X357147Y25538D03*
X360533Y9790D03*
X370533D03*
X374000Y123000D03*
X373500Y127500D03*
X355500Y110000D03*
Y135500D03*
X356000Y153000D03*
X374500Y182500D03*
Y187000D03*
X356000Y195000D03*
X371000Y225000D03*
X356500Y213500D03*
X371000Y229500D03*
X356000Y253000D03*
Y249000D03*
X367500Y258000D03*
X363000D03*
X367500Y262500D03*
X363002Y262496D03*
X356000Y270500D03*
Y274500D03*
Y328000D03*
X360500Y324500D03*
Y331500D03*
X368000Y359000D03*
X362000D03*
X370633Y370000D03*
X360633Y377800D03*
X370633Y385600D03*
X360633Y390600D03*
X370633D03*
X390600Y19790D03*
X390533Y9790D03*
X380533D03*
X390600Y39790D03*
Y29790D03*
Y59790D03*
Y49790D03*
Y79790D03*
Y69790D03*
Y99790D03*
Y89790D03*
Y119790D03*
Y109790D03*
X375500Y118000D03*
Y112500D03*
X390600Y129790D03*
Y139790D03*
Y149790D03*
Y159790D03*
Y169790D03*
Y179790D03*
X375500Y177500D03*
X376000Y172000D03*
X390600Y189790D03*
Y199790D03*
X376000Y225000D03*
X390600Y209790D03*
Y219790D03*
X376000Y229500D03*
X390600Y229790D03*
Y239790D03*
Y249790D03*
Y259790D03*
Y269790D03*
Y279790D03*
Y299790D03*
Y289790D03*
X382000Y296500D03*
X376000Y322500D03*
X390600Y319790D03*
Y309790D03*
Y339790D03*
Y329790D03*
Y359790D03*
Y349790D03*
Y379790D03*
Y369790D03*
X380633Y390600D03*
X390600Y389790D03*
G54D20*
X27684Y249500D03*
X37084D03*
X167084Y238000D03*
X157684D03*
G54D11*
X12913Y92532D03*
Y102532D03*
Y122532D03*
Y112532D03*
Y132532D03*
X22913Y92532D03*
Y102532D03*
Y122532D03*
Y112532D03*
Y132532D03*
G54D30*
X74211Y225263D03*
Y223294D03*
Y221326D03*
Y219357D03*
Y246916D03*
Y244948D03*
Y242979D03*
Y241011D03*
Y239042D03*
Y237074D03*
Y235105D03*
Y233137D03*
Y231168D03*
Y229200D03*
Y227231D03*
Y264633D03*
Y262664D03*
Y260696D03*
Y258727D03*
Y256759D03*
Y254790D03*
Y252822D03*
Y250853D03*
Y248885D03*
Y307137D03*
Y305168D03*
Y303200D03*
Y301231D03*
Y299263D03*
Y297294D03*
Y295326D03*
Y293357D03*
Y326822D03*
Y324853D03*
Y322885D03*
Y320916D03*
Y318948D03*
Y316979D03*
Y315011D03*
Y313042D03*
Y311074D03*
Y309105D03*
Y338633D03*
Y336664D03*
Y334696D03*
Y332727D03*
Y330759D03*
Y328790D03*
X102557Y219357D03*
Y221326D03*
Y223294D03*
Y225263D03*
Y227231D03*
Y229200D03*
Y231168D03*
Y233137D03*
Y235105D03*
Y237074D03*
Y239042D03*
Y241011D03*
Y242979D03*
Y244948D03*
Y246916D03*
Y248885D03*
Y250853D03*
Y252822D03*
Y254790D03*
Y256759D03*
Y258727D03*
Y260696D03*
Y262664D03*
Y264633D03*
Y293357D03*
Y295326D03*
Y297294D03*
Y299263D03*
Y301231D03*
Y303200D03*
Y305168D03*
Y307137D03*
Y309105D03*
Y311074D03*
Y313042D03*
Y315011D03*
Y316979D03*
Y318948D03*
Y320916D03*
Y322885D03*
Y324853D03*
Y326822D03*
Y328790D03*
Y330759D03*
Y332727D03*
Y334696D03*
Y336664D03*
Y338633D03*
G54D21*
X45374Y55000D03*
Y51000D03*
X50374Y55000D03*
Y51000D03*
X52000Y156500D03*
Y160500D03*
X55374Y55000D03*
Y51000D03*
X60374Y55000D03*
Y51000D03*
X70374D03*
Y55000D03*
X65374Y51000D03*
Y55000D03*
X71874Y100000D03*
Y104000D03*
X66874Y227000D03*
Y231000D03*
Y257500D03*
Y253500D03*
Y300500D03*
Y304500D03*
Y327500D03*
Y331500D03*
X80374Y51000D03*
Y55000D03*
X75374Y51000D03*
Y55000D03*
X73874Y192000D03*
Y196000D03*
X97874Y100000D03*
Y104000D03*
X112374Y196000D03*
Y192000D03*
X107374D03*
Y196000D03*
X97874D03*
Y192000D03*
X102374Y196000D03*
Y192000D03*
X110374Y227000D03*
Y231000D03*
Y257500D03*
Y253500D03*
Y303000D03*
Y307000D03*
Y327500D03*
Y331500D03*
X121874Y104000D03*
Y100000D03*
X124374Y196000D03*
Y192000D03*
X116374Y196000D03*
Y192000D03*
X120374Y196000D03*
Y192000D03*
X128374Y196000D03*
Y192000D03*
X132374Y196000D03*
Y192000D03*
X136374Y196000D03*
Y192000D03*
X172500Y100500D03*
Y96500D03*
X170000Y145500D03*
Y141500D03*
X188500Y96500D03*
Y100500D03*
X180500D03*
Y96500D03*
X184500Y100500D03*
Y96500D03*
X176500Y100500D03*
Y96500D03*
X184500Y141500D03*
Y145500D03*
X180500Y141500D03*
Y145500D03*
X188500Y141500D03*
Y145500D03*
X174000D03*
Y141500D03*
X230000Y352000D03*
Y356000D03*
X252000Y300000D03*
Y304000D03*
X248000Y300000D03*
Y304000D03*
X252000Y326000D03*
Y330000D03*
X248000Y356000D03*
Y352000D03*
X236000Y356000D03*
Y352000D03*
X242000Y356000D03*
Y352000D03*
X261000Y146000D03*
X265500D03*
X270000D03*
X256500D03*
X261000Y150000D03*
X265500D03*
X270000D03*
X256500D03*
X270000Y205000D03*
X265500D03*
X261000D03*
X256500D03*
X270000Y209000D03*
X265500D03*
X261000D03*
X256500D03*
X256000Y304000D03*
Y300000D03*
Y326000D03*
Y330000D03*
X274500Y146000D03*
Y150000D03*
Y205000D03*
Y209000D03*
X290000Y352000D03*
Y356000D03*
X312000Y300000D03*
Y304000D03*
X308000Y300000D03*
Y304000D03*
X312000Y326000D03*
Y330000D03*
X308000Y356000D03*
Y352000D03*
X296000Y356000D03*
Y352000D03*
X302000Y356000D03*
Y352000D03*
X316000Y304000D03*
Y300000D03*
Y326000D03*
Y330000D03*
X351500Y146000D03*
X347000D03*
X342500D03*
X338000D03*
X351500Y150000D03*
X347000D03*
X342500D03*
X338000D03*
X352000Y205500D03*
X343000D03*
X347500D03*
X338500D03*
X352000Y209500D03*
X343000D03*
X347500D03*
X338500D03*
X350000Y352000D03*
Y356000D03*
X356000Y146000D03*
Y150000D03*
X356500Y205500D03*
Y209500D03*
X374000Y300000D03*
Y304000D03*
X370000Y300000D03*
Y304000D03*
X372000Y326000D03*
Y330000D03*
X368000Y356000D03*
Y352000D03*
X356000Y356000D03*
Y352000D03*
X362000Y356000D03*
Y352000D03*
X382000Y300000D03*
Y304000D03*
X386000D03*
Y300000D03*
X378000Y304000D03*
Y300000D03*
X376000Y326000D03*
Y330000D03*
G54D12*
X10669Y180000D03*
G54D13*
X11460Y204000D03*
X42960D03*
G54D31*
X57384Y380500D03*
X136384D03*
G54D22*
X47500Y97500D03*
X43500D03*
X47500Y105500D03*
X43500D03*
X47500Y114500D03*
X43500D03*
X47500Y119000D03*
X43500D03*
X48000Y137000D03*
X52000D03*
Y172500D03*
X48000D03*
X51874Y186000D03*
X47874D03*
X73374Y212000D03*
X73384Y271995D03*
Y285995D03*
Y345995D03*
X77374Y212000D03*
X90384Y235995D03*
X86384D03*
X90384Y239995D03*
X86384D03*
X90384Y243995D03*
X86384D03*
X90384Y251995D03*
X86384D03*
X90384Y263995D03*
X86384D03*
X90384Y259995D03*
X86384D03*
X90384Y247995D03*
X86384D03*
X90384Y255995D03*
X86384D03*
X90384Y267995D03*
X86384D03*
X77384Y271995D03*
Y285995D03*
X90384D03*
X86384D03*
X90384Y301995D03*
X86384D03*
X90384Y297995D03*
X86384D03*
X90384Y293995D03*
X86384D03*
X90384Y289995D03*
X86384D03*
X90384Y305995D03*
X86384D03*
X90384Y325995D03*
X86384D03*
X90384Y321995D03*
X86384D03*
X90384Y317995D03*
X86384D03*
X90384Y313995D03*
X86384D03*
X90384Y309995D03*
X86384D03*
X90384Y345995D03*
X86384D03*
X90384Y341995D03*
X86384D03*
X90384Y337995D03*
X86384D03*
X90384Y333995D03*
X86384D03*
X90384Y329995D03*
X86384D03*
X77384Y345995D03*
X97000Y66000D03*
X101000D03*
X97000Y61500D03*
X101000D03*
X97374Y212000D03*
X101374D03*
X97384Y285995D03*
X101384D03*
X97384Y271995D03*
X101384D03*
X97384Y345995D03*
X101384D03*
X124500Y61500D03*
X128500D03*
X124500Y66000D03*
X128500D03*
X152500Y66500D03*
Y62000D03*
X143874Y123000D03*
X139874D03*
X143874Y119000D03*
X139874D03*
X143874Y115000D03*
X139874D03*
X143874Y127000D03*
X139874D03*
X143874Y139000D03*
X139874D03*
X143874Y131000D03*
X139874D03*
X143874Y147000D03*
X139874D03*
X143874Y143000D03*
X139874D03*
X143874Y135000D03*
X139874D03*
X143874Y155000D03*
X139874D03*
X143874Y167000D03*
X139874D03*
X143874Y163000D03*
X139874D03*
X143874Y159000D03*
X139874D03*
X143874Y151000D03*
X139874D03*
X143874Y179000D03*
X139874D03*
X143874Y175000D03*
X139874D03*
X143874Y171000D03*
X139874D03*
X143874Y187000D03*
X139874D03*
X143874Y183000D03*
X139874D03*
X156500Y66500D03*
Y62000D03*
X180000Y66500D03*
X184000D03*
X180000Y62000D03*
X184000D03*
X186500Y166000D03*
X182500D03*
Y170500D03*
X186500D03*
X228000Y116500D03*
X232000D03*
Y112000D03*
X228000D03*
X232000Y121000D03*
X228000D03*
Y125500D03*
X232000D03*
X228000Y134500D03*
X232000D03*
X228000Y143500D03*
X232000D03*
X228000Y139000D03*
X232000D03*
X228000Y130000D03*
X232000D03*
Y171000D03*
X228000D03*
Y175500D03*
X232000D03*
X228000Y184500D03*
X232000D03*
Y180000D03*
X228000D03*
Y193500D03*
X232000D03*
X228000Y202500D03*
X232000D03*
X228000Y198000D03*
X232000D03*
X228000Y189000D03*
X232000D03*
X240000Y264000D03*
X236000D03*
X240000Y270000D03*
X236000D03*
X288000Y123000D03*
X284000D03*
Y136500D03*
X288000D03*
X284000Y132000D03*
X288000D03*
X284000Y141000D03*
X288000D03*
Y127500D03*
X284000D03*
X288000Y186500D03*
X284000D03*
X288000Y182000D03*
X284000D03*
Y191000D03*
X288000D03*
X284000Y200000D03*
X288000D03*
X284000Y195500D03*
X288000D03*
X309500Y116500D03*
X313500D03*
Y112000D03*
X309500D03*
X313500Y121000D03*
X309500D03*
Y125500D03*
X313500D03*
X309500Y143500D03*
X313500D03*
X309500Y134500D03*
X313500D03*
X309500Y139000D03*
X313500D03*
X309500Y130000D03*
X313500D03*
X310000Y176000D03*
X314000D03*
Y171500D03*
X310000D03*
X314000Y180500D03*
X310000D03*
Y185000D03*
X314000D03*
X310000Y194000D03*
X314000D03*
X310000Y203000D03*
X314000D03*
X310000Y198500D03*
X314000D03*
X310000Y189500D03*
X314000D03*
X300000Y258000D03*
X296000D03*
X300000Y264000D03*
X296000D03*
X369500Y123000D03*
X365500D03*
Y136500D03*
X369500D03*
X365500Y141000D03*
X369500D03*
X365500Y132000D03*
X369500D03*
Y127500D03*
X365500D03*
X370000Y187000D03*
X366000D03*
X370000Y182500D03*
X366000D03*
Y200500D03*
X370000D03*
X366000Y191500D03*
X370000D03*
X366000Y196000D03*
X370000D03*
X360000Y256000D03*
X356000D03*
X360000Y260000D03*
X356000D03*
G54D40*
X189874Y383000D03*
Y371000D03*
X203874Y383000D03*
Y371000D03*
G54D50*
X246160Y126020D03*
Y120980D03*
Y115980D03*
Y131020D03*
Y185020D03*
Y179980D03*
Y174980D03*
Y190020D03*
X268840Y115980D03*
Y120980D03*
Y125980D03*
Y130980D03*
Y174980D03*
Y179980D03*
Y184980D03*
Y189980D03*
X327660Y126020D03*
Y120980D03*
Y115980D03*
Y131020D03*
X328160Y185520D03*
Y180480D03*
Y175480D03*
Y190520D03*
X350340Y115980D03*
Y120980D03*
Y125980D03*
Y130980D03*
X350840Y175480D03*
Y180480D03*
Y185480D03*
Y190480D03*
G54D32*
X92256Y46280D03*
X106035D03*
Y32500D03*
X133594Y46280D03*
X119815D03*
X133594Y32500D03*
X119815D03*
X147374Y46280D03*
Y32500D03*
X174933Y46280D03*
X161154D03*
X174933Y32500D03*
X161154D03*
X188713Y46280D03*
Y32500D03*
X202492Y46280D03*
Y32500D03*
G54D23*
X52087Y127500D03*
X37913D03*
G54D14*
G01X134500Y96000D02*
X114250Y75750D01*
G01D02*
X110750Y72250D01*
G01X134500Y96000D02*
X139000D01*
X13500Y359000D03*
X382000Y46000D03*
X380500Y377500D03*
G54D41*
X212043Y86760D03*
Y94240D03*
X204957Y90500D03*
X211543Y117260D03*
Y124740D03*
X204457Y121000D03*
X211543Y146260D03*
Y131760D03*
Y139240D03*
X204457Y135500D03*
X211543Y160760D03*
X204457Y164500D03*
X211543Y153740D03*
X204457Y150000D03*
X211543Y168240D03*
X229543Y86760D03*
Y94240D03*
X222457Y90500D03*
X246543Y86760D03*
Y94240D03*
X239457Y90500D03*
X264043Y86760D03*
Y94240D03*
X256957Y90500D03*
G54D33*
X92256Y32500D03*
G54D15*
X32874Y7000D03*
X22874Y37000D03*
X32874D03*
X52874Y7000D03*
X42874D03*
Y37000D03*
X52874D03*
G54D24*
Y166000D03*
X46874D03*
X52874Y180000D03*
X46874D03*
X96000Y57000D03*
X102000D03*
X123500D03*
X129500D03*
X151500Y57500D03*
X157500D03*
X179000D03*
X185000D03*
X187500Y160500D03*
X181500D03*
X187500Y154500D03*
X181500D03*
X235000Y276000D03*
Y302000D03*
X241000Y276000D03*
Y302000D03*
X289000Y118000D03*
X283000D03*
Y112500D03*
X289000D03*
Y177000D03*
X283000D03*
Y171500D03*
X289000D03*
X295000Y276000D03*
Y270000D03*
Y302000D03*
X301000Y276000D03*
Y270000D03*
Y302000D03*
X355000Y266000D03*
Y302000D03*
X370500Y118000D03*
X364500D03*
Y112500D03*
X370500D03*
X371000Y177500D03*
X365000D03*
Y172000D03*
X371000D03*
X361000Y266000D03*
Y302000D03*
G54D42*
X216000Y229500D03*
Y254500D03*
G54D51*
X250417Y248000D03*
X277583D03*
X312417D03*
X339583D03*
G54D43*
X216000Y274189D03*
Y297811D03*
X276000Y274189D03*
Y297811D03*
X332000Y274189D03*
Y297811D03*
G54D16*
X22874Y7000D03*
G54D34*
X79346Y98457D03*
Y105543D03*
X88402D03*
Y98457D03*
X81346Y190457D03*
Y197543D03*
X90402D03*
Y190457D03*
X114402Y105543D03*
Y98457D03*
X105346D03*
Y105543D03*
G54D25*
X54000Y204000D03*
X228032Y15000D03*
X228000Y36500D03*
X230000Y264000D03*
X247716Y15000D03*
X290000Y264000D03*
X347500Y263500D03*
G54D52*
X352000Y282000D03*
X364000D03*
G54D53*
G01X65374Y51000D02*
Y47374D01*
X60000Y42000D01*
Y37500D01*
X35500Y13000D01*
X28874D01*
X22874Y7000D01*
G01X45374Y51000D02*
Y47374D01*
X43500Y45500D01*
X31374D01*
X22874Y37000D01*
G01X22913Y102532D02*
X58532D01*
X72252Y116252D01*
Y119685D01*
G01X43500Y97500D02*
X27881D01*
X22913Y92532D01*
G01X43500Y114500D02*
X33500D01*
X26532Y107532D01*
X19968D01*
X17913Y109587D01*
Y127532D01*
X22913Y132532D01*
G01Y112532D02*
X29381Y119000D01*
X43500D01*
G01X47384Y240500D02*
X41000Y246884D01*
Y252500D01*
X39500Y254000D01*
X30500D01*
X30000Y254500D01*
G01D02*
X26500D01*
X21825Y259175D01*
Y261957D01*
G01X26943D02*
X28397D01*
X32384Y257970D01*
G01X28500Y277500D02*
X29500Y278500D01*
X41000D01*
X47384Y272116D01*
Y270500D01*
G01X28500Y277500D02*
X25500D01*
X21825Y273825D01*
Y269043D01*
G01X28384Y287970D02*
X32854Y283500D01*
X39000D01*
X42000Y280500D01*
X47384D01*
G01X28384Y273500D02*
X31884Y277000D01*
X40000D01*
X42500Y274500D01*
Y265384D01*
X47384Y260500D01*
G01X26943Y269043D02*
Y272059D01*
X28384Y273500D01*
G01X33825Y269043D02*
Y272059D01*
X32384Y273500D01*
G01X26943Y291958D02*
X28397D01*
X32384Y287970D01*
G01X33825Y299043D02*
Y302059D01*
X32384Y303500D01*
G01X28384Y287970D02*
X23030D01*
X21825Y289175D01*
Y291958D01*
G01X26943Y299043D02*
Y302059D01*
X28384Y303500D01*
G01D02*
X32384Y307500D01*
X40384D01*
X47384Y300500D01*
G01Y310500D02*
X46384Y309500D01*
X31000D01*
X27308Y305808D01*
X22692D01*
X20384Y303500D01*
G01X21825Y299043D02*
Y302059D01*
X20384Y303500D01*
G01X47384Y320500D02*
X36354D01*
X28384Y328470D01*
G01X21825Y339543D02*
Y342559D01*
X20384Y344000D01*
G01D02*
Y346384D01*
X24000Y350000D01*
X46884D01*
X47384Y350500D01*
G01X26943Y339543D02*
Y342559D01*
X28384Y344000D01*
G01X47384Y340500D02*
X39884Y348000D01*
X32384D01*
X28384Y344000D01*
G01Y328470D02*
X28355Y328500D01*
X23000D01*
X21825Y329675D01*
Y332458D01*
G01X26943D02*
X28397D01*
X32384Y328470D01*
G01X33825Y339543D02*
Y342559D01*
X32384Y344000D01*
G01X70374Y51000D02*
Y50374D01*
X61500Y41500D01*
Y35626D01*
X32874Y7000D01*
G01X75374Y51000D02*
X63000Y38626D01*
Y34000D01*
X42874Y13874D01*
Y7000D01*
G01X50374Y51000D02*
Y47374D01*
X46500Y43500D01*
X39374D01*
X32874Y37000D01*
G01X42874D02*
X47374Y41500D01*
X50000D01*
X55374Y46874D01*
Y51000D01*
G01X45374D02*
X43000D01*
X41000Y53000D01*
Y59626D01*
X45374Y64000D01*
G01X50374Y51000D02*
X48474D01*
X47874Y51600D01*
Y61500D01*
X50374Y64000D01*
G01X43500Y97500D02*
Y99500D01*
X45000Y101000D01*
X59500D01*
X74220Y115720D01*
Y119685D01*
G01X76189D02*
Y123311D01*
X75500Y124000D01*
X71500D01*
X70000Y122500D01*
Y118000D01*
X64000Y112000D01*
X44296D01*
X43500Y112796D01*
Y114500D01*
G01Y119000D02*
Y117100D01*
X44100Y116500D01*
X55000D01*
X62500Y124000D01*
X69500D01*
X71000Y125500D01*
X76000D01*
X78157Y123343D01*
Y119685D01*
G01X52500Y146500D02*
X56874Y142126D01*
X65559D01*
G01X42960Y204000D02*
X54000D01*
G01X74211Y242979D02*
X66353D01*
X58874Y235500D01*
X52384D01*
X47384Y240500D01*
G01X36384Y257970D02*
X37555D01*
X42687Y252839D01*
Y248187D01*
X45374Y245500D01*
X49384D01*
X54384Y240500D01*
X57384D01*
G01X37084Y245500D02*
Y243416D01*
X45000Y235500D01*
X49384D01*
X54384Y230500D01*
X57384D01*
G01X37084Y249500D02*
Y245500D01*
G01X74211Y248885D02*
X62759D01*
X59374Y245500D01*
X52384D01*
X47384Y250500D01*
G01X38943Y261957D02*
Y259411D01*
X40384Y257970D01*
G01X74211Y260696D02*
X71166D01*
X66362Y265500D01*
X52384D01*
X47384Y270500D01*
G01X74211Y254790D02*
X70084D01*
X68962Y255912D01*
Y259312D01*
X68274Y260000D01*
X63545D01*
X59045Y255500D01*
X52384D01*
X47384Y260500D01*
G01X33825Y261957D02*
Y260530D01*
X36384Y257970D01*
G01X74211Y295326D02*
X71168D01*
X68500Y292658D01*
Y284626D01*
X59374Y275500D01*
X52384D01*
X47384Y280500D01*
G01X38943Y269043D02*
Y272059D01*
X40384Y273500D01*
G01X57384Y280500D02*
X52384Y285500D01*
X38854D01*
X36384Y287970D01*
G01X74211Y301231D02*
X70731D01*
X70000Y300500D01*
Y298000D01*
X64500Y292500D01*
Y291000D01*
X59000Y285500D01*
X55500D01*
X50500Y290500D01*
X47384D01*
G01X38943Y291958D02*
Y289411D01*
X40384Y287970D01*
G01X33825Y291958D02*
Y290530D01*
X36384Y287970D01*
G01X74211Y307137D02*
X63683D01*
X61874Y305329D01*
Y298303D01*
X59071Y295500D01*
X52384D01*
X47384Y300500D01*
G01X74211Y313042D02*
X66193D01*
X58651Y305500D01*
X52384D01*
X47384Y310500D01*
G01X38943Y299043D02*
Y302059D01*
X40384Y303500D01*
G01X57384Y320500D02*
X54384D01*
X49384Y325500D01*
X39354D01*
X36384Y328470D01*
G01X47384Y320500D02*
X52384Y315500D01*
X59874D01*
X61353Y316979D01*
X74211D01*
G01Y322885D02*
X61989D01*
X59374Y325500D01*
X52384D01*
X47384Y330500D01*
G01X74211Y334696D02*
X71166D01*
X60362Y345500D01*
X52384D01*
X47384Y350500D01*
G01X33825Y332458D02*
Y331030D01*
X36384Y328470D01*
G01X38943Y332458D02*
Y329911D01*
X40384Y328470D01*
G01X47384Y340500D02*
X52384Y335500D01*
X59500D01*
X60500Y336500D01*
X65874D01*
X68962Y333412D01*
Y330412D01*
X70584Y328790D01*
X74211D01*
G01X38943Y339543D02*
Y342559D01*
X40384Y344000D01*
G01X80374Y51000D02*
X64500Y35126D01*
Y32500D01*
X52874Y20874D01*
Y7000D01*
G01X228000Y36500D02*
X211500Y20000D01*
X66000D01*
X64500Y21500D01*
G01X52874Y37000D02*
X60374Y44500D01*
Y51000D01*
G01X55374D02*
X53500D01*
X52874Y51626D01*
Y61500D01*
X55374Y64000D01*
G01X60374Y51000D02*
X58474D01*
X57874Y51600D01*
Y61500D01*
X60374Y64000D01*
G01X71874Y104000D02*
X73957D01*
X75500Y105543D01*
X79346D01*
G01X65559Y144094D02*
X62465D01*
X62059Y144500D01*
X58500D01*
X56500Y146500D01*
G01X65559Y146063D02*
X60937D01*
X60500Y146500D01*
G01X65559Y130315D02*
X62315D01*
X61500Y129500D01*
X60500D01*
G01X56500D02*
X58500Y131500D01*
X61500D01*
X62283Y132283D01*
X65559D01*
G01Y134252D02*
X61252D01*
X60500Y133500D01*
G01Y139000D02*
X61657Y140157D01*
X65559D01*
G01Y153937D02*
X61063D01*
X60500Y154500D01*
G01X56500Y158500D02*
X58500Y156500D01*
X61500D01*
X62094Y155906D01*
X65559D01*
G01X60500Y165500D02*
Y166000D01*
X62217Y167717D01*
X65559D01*
G01Y150000D02*
X61000D01*
X60500Y150500D01*
G01X65559Y157874D02*
X61126D01*
X60500Y158500D01*
G01X56500Y154500D02*
X58500Y152500D01*
X61500D01*
X62032Y151968D01*
X65559D01*
G01Y148032D02*
X61968D01*
X61500Y148500D01*
X58500D01*
X56500Y150500D01*
G01X108000Y175500D02*
Y173500D01*
X106000Y171500D01*
Y163500D01*
X103500Y161000D01*
X70000D01*
X69189Y161811D01*
X65559D01*
G01X108000Y167500D02*
Y163500D01*
X104000Y159500D01*
X69500D01*
X69157Y159843D01*
X65559D01*
G01X72252Y180315D02*
Y176252D01*
X71500Y175500D01*
G01X65559Y169685D02*
X61100D01*
X60500Y169085D01*
Y169000D01*
G01X59000Y175000D02*
X60500D01*
X61878Y173622D01*
X65559D01*
G01X74220Y180315D02*
Y177220D01*
X73500Y176500D01*
Y173500D01*
X71500Y171500D01*
G01X65559Y171654D02*
X60846D01*
X60500Y172000D01*
G01X54000Y204000D02*
X59500Y209500D01*
X95000D01*
G01X74211Y244948D02*
X61832D01*
X57384Y240500D01*
G01X74211Y241011D02*
X67895D01*
X57384Y230500D01*
G01Y250500D02*
X57737Y250853D01*
X74211D01*
G01X57384Y260500D02*
X61374D01*
X62874Y262000D01*
X68165D01*
X70162Y260003D01*
Y257359D01*
X70762Y256759D01*
X74211D01*
G01X57384Y270500D02*
X63332D01*
X71168Y262664D01*
X74211D01*
G01X57384Y280500D02*
X66500Y289616D01*
Y292628D01*
X71166Y297294D01*
X74211D01*
G01X57384Y290500D02*
X57884Y291000D01*
X61178D01*
X68778Y298600D01*
Y301278D01*
X70700Y303200D01*
X74211D01*
G01X57384Y300500D02*
Y302536D01*
X63953Y309105D01*
X74211D01*
G01X57384Y310500D02*
X61895Y315011D01*
X74211D01*
G01Y318948D02*
X58936D01*
X57384Y320500D01*
G01Y330500D02*
X63031Y324853D01*
X74211D01*
G01X57384Y340500D02*
X63665D01*
X70162Y334003D01*
Y331712D01*
X71115Y330759D01*
X74211D01*
G01X57384Y350500D02*
Y350448D01*
X71168Y336664D01*
X74211D01*
G01X93906Y119685D02*
Y110406D01*
X92500Y109000D01*
Y102555D01*
X88402Y98457D01*
G01X92500Y171500D02*
X93000Y172000D01*
X102000D01*
X103748Y173748D01*
Y180315D01*
G01X83500Y171500D02*
Y172500D01*
X85500Y174500D01*
Y176500D01*
X86031Y177031D01*
Y180315D01*
G01X78157D02*
Y177157D01*
X77500Y176500D01*
Y173500D01*
X75500Y171500D01*
G01X80126Y180315D02*
Y176126D01*
X79500Y175500D01*
G01X91937Y180315D02*
Y176063D01*
X92500Y175500D01*
G01X84063Y180315D02*
Y176063D01*
X83500Y175500D01*
G01X82094Y180315D02*
Y177094D01*
X81500Y176500D01*
Y173500D01*
X79500Y171500D01*
G01X76189Y180315D02*
Y176189D01*
X75500Y175500D01*
G01X88750Y167750D02*
X92750D01*
X95500Y170500D01*
X102500D01*
X105717Y173717D01*
Y180315D01*
G01X88500Y171500D02*
Y172500D01*
X89500Y173500D01*
X101500D01*
X102500Y174500D01*
Y176500D01*
X101780Y177220D01*
Y180315D01*
G01X93906D02*
Y186953D01*
X90402Y190457D01*
G01X81346Y197543D02*
X78043D01*
X76500Y196000D01*
X73874D01*
G01X74211Y219357D02*
X77784D01*
X78384Y218757D01*
Y215510D01*
X77384Y214510D01*
Y212010D01*
X77374Y212000D01*
G01X90384Y243995D02*
X96884D01*
X97837Y244948D01*
X102557D01*
G01X90384Y239995D02*
X95384D01*
X98368Y242979D01*
X102557D01*
G01X90384Y235995D02*
X93884D01*
X98900Y241011D01*
X102557D01*
G01X86384Y239995D02*
X81384D01*
X78400Y242979D01*
X74211D01*
G01X86384Y243995D02*
X80384D01*
X79431Y244948D01*
X74211D01*
G01X86384Y235995D02*
X82884D01*
X77868Y241011D01*
X74211D01*
G01X77384Y271995D02*
Y269490D01*
X78384Y268490D01*
Y265233D01*
X77784Y264633D01*
X74211D01*
G01X102557Y260696D02*
X96183D01*
X92884Y263995D01*
X90384D01*
G01X102557Y256759D02*
X96620D01*
X93384Y259995D01*
X90384D01*
G01X102557Y254790D02*
X95589D01*
X94384Y255995D01*
X90384D01*
G01Y251995D02*
X95384D01*
X96526Y250853D01*
X102557D01*
G01X90384Y247995D02*
X95384D01*
X96274Y248885D01*
X102557D01*
G01X74211Y250853D02*
X80242D01*
X81384Y251995D01*
X86384D01*
G01Y263995D02*
X83384D01*
X80085Y260696D01*
X74211D01*
G01X86384Y255995D02*
X81884D01*
X80679Y254790D01*
X74211D01*
G01Y256759D02*
X79648D01*
X82884Y259995D01*
X86384D01*
G01X74211Y262664D02*
X79053D01*
X84384Y267995D01*
X86384D01*
G01Y247995D02*
X80884D01*
X79994Y248885D01*
X74211D01*
G01X77384Y285995D02*
Y288510D01*
X78384Y289510D01*
Y292757D01*
X77784Y293357D01*
X74211D01*
G01X86384Y285995D02*
X84384D01*
X80384Y289995D01*
Y292995D01*
X78053Y295326D01*
X74211D01*
G01X102557Y262664D02*
X97715D01*
X92384Y267995D01*
X90384D01*
G01X102557Y295326D02*
X98215D01*
X94874Y291985D01*
Y290485D01*
X90384Y285995D01*
G01X86384Y293995D02*
X84384D01*
X83384Y294995D01*
Y297495D01*
X79648Y301231D01*
X74211D01*
G01Y303200D02*
X79679D01*
X84884Y297995D01*
X86384D01*
G01Y289995D02*
X84384D01*
X81884Y292495D01*
Y293995D01*
X78585Y297294D01*
X74211D01*
G01X86384Y301995D02*
X84602D01*
X79460Y307137D01*
X74211D01*
G01X102557Y309105D02*
X95979D01*
X92869Y305995D01*
X90384D01*
G01X102557Y307137D02*
X97011D01*
X91869Y301995D01*
X90384D01*
G01X74211Y309105D02*
X80274D01*
X83384Y305995D01*
X86384D01*
G01X102557Y303200D02*
X96589D01*
X94384Y300995D01*
Y299995D01*
X92384Y297995D01*
X90384D01*
G01X102557Y301231D02*
X97120D01*
X95884Y299995D01*
Y297495D01*
X92384Y293995D01*
X90384D01*
G01X102557Y297294D02*
X97683D01*
X90384Y289995D01*
G01X74211Y315011D02*
X81868D01*
X82884Y313995D01*
X86384D01*
G01Y321995D02*
X83884D01*
X80837Y318948D01*
X74211D01*
G01X90384Y325995D02*
X92384D01*
X95494Y322885D01*
X102557D01*
G01Y318948D02*
X95931D01*
X92884Y321995D01*
X90384D01*
G01X74211Y324853D02*
X79460D01*
X84602Y329995D01*
X86384D01*
G01X90384Y317995D02*
X94884D01*
X95900Y316979D01*
X102557D01*
G01X90384Y313995D02*
X94884D01*
X95900Y315011D01*
X102557D01*
G01X74211Y316979D02*
X81868D01*
X82884Y317995D01*
X86384D01*
G01X90384Y309995D02*
X93884D01*
X96931Y313042D01*
X102557D01*
G01X86384Y309995D02*
X83884D01*
X80837Y313042D01*
X74211D01*
G01X86384Y325995D02*
X83369D01*
X80259Y322885D01*
X74211D01*
G01X77384Y345995D02*
Y343490D01*
X78384Y342490D01*
Y339233D01*
X77784Y338633D01*
X74211D01*
G01X86384Y341995D02*
X79085Y334696D01*
X74211D01*
G01X102557Y336664D02*
X98215D01*
X93884Y340995D01*
Y342495D01*
X90384Y345995D01*
G01X102557Y334696D02*
X97683D01*
X90384Y341995D01*
G01X102557Y330759D02*
X96120D01*
X93384Y333495D01*
Y334995D01*
X90384Y337995D01*
G01X102557Y328790D02*
X95589D01*
X90384Y333995D01*
G01X102557Y324853D02*
X97021D01*
X91879Y329995D01*
X90384D01*
G01X86384Y333995D02*
X84884D01*
X79679Y328790D01*
X74211D01*
G01Y330759D02*
X79648D01*
X81384Y332495D01*
Y334995D01*
X84384Y337995D01*
X86384D01*
G01Y345995D02*
X84384D01*
X81884Y343495D01*
Y340495D01*
X78053Y336664D01*
X74211D01*
G01X97842Y119685D02*
Y113047D01*
X105346Y105543D01*
G01X111622Y119685D02*
Y114378D01*
X114500Y111500D01*
X131000D01*
X146500Y96000D01*
X162000D01*
X166500Y100500D01*
X172500D01*
G01X120374Y192000D02*
X118874Y190500D01*
X118500D01*
X111622Y183622D01*
Y180315D01*
G01X116374Y192000D02*
Y190374D01*
X109654Y183654D01*
Y180315D01*
G01X97842D02*
Y183162D01*
X100180Y185500D01*
X104500D01*
X107374Y188374D01*
Y192000D01*
G01X112374D02*
Y188374D01*
X107685Y183685D01*
Y180315D01*
G01X95000Y209500D02*
X103000D01*
X107374Y205126D01*
Y196000D01*
G01X112374D02*
X122374Y206000D01*
X143643D01*
X150643Y199000D01*
X159500D01*
X170000Y188500D01*
Y185500D01*
X168000Y183500D01*
G01X97374Y212000D02*
Y217747D01*
X98984Y219357D01*
X102557D01*
G01X101374Y212000D02*
X105000D01*
G01X102557Y244948D02*
X114822D01*
X115374Y245500D01*
X131384D01*
X136384Y240500D01*
G01X102557Y242979D02*
X123905D01*
X126384Y240500D01*
G01X102557Y241011D02*
X117363D01*
X122874Y235500D01*
X131384D01*
X136384Y230500D01*
G01X126384Y270500D02*
X115406D01*
X105602Y260696D01*
X102557D01*
G01Y256759D02*
X106006D01*
X106606Y257359D01*
Y259732D01*
X112374Y265500D01*
X131384D01*
X136384Y260500D01*
G01X102557Y254790D02*
X106164D01*
X107874Y256500D01*
Y259000D01*
X109374Y260500D01*
X126384D01*
G01X102557Y250853D02*
X119227D01*
X123874Y255500D01*
X131384D01*
X136384Y250500D01*
G01X102557Y248885D02*
X124769D01*
X126384Y250500D01*
G01X97384Y271995D02*
Y266233D01*
X98984Y264633D01*
X102557D01*
G01X136384Y270500D02*
X131384Y275500D01*
X118436D01*
X105600Y262664D01*
X102557D01*
G01X97384Y285995D02*
Y291757D01*
X98984Y293357D01*
X102557D01*
G01X101384Y271995D02*
Y269495D01*
X102384Y268495D01*
G01X101384Y285995D02*
Y288495D01*
X102384Y289495D01*
G01X126384Y300500D02*
X117384Y309500D01*
X108374D01*
X106011Y307137D01*
X102557D01*
G01X136384Y290500D02*
X131384Y295500D01*
X113874D01*
X106174Y303200D01*
X102557D01*
G01X126384Y290500D02*
X116874D01*
X106143Y301231D01*
X102557D01*
G01X136384Y280500D02*
X131384Y285500D01*
X118874D01*
X107080Y297294D01*
X102557D01*
G01X126384Y280500D02*
X121374D01*
X106548Y295326D01*
X102557D01*
G01X136384Y330500D02*
X131384Y335500D01*
X124374D01*
X113727Y324853D01*
X102557D01*
G01Y322885D02*
X118769D01*
X126384Y330500D01*
G01X136384Y320500D02*
X131384Y325500D01*
X124374D01*
X117822Y318948D01*
X102557D01*
G01Y316979D02*
X122863D01*
X126384Y320500D01*
G01X102557Y315011D02*
X122885D01*
X123374Y315500D01*
X131384D01*
X136384Y310500D01*
G01X102557Y313042D02*
X123842D01*
X126384Y310500D01*
G01X136384Y300500D02*
X131384Y305500D01*
X124374D01*
X118874Y311000D01*
X107496D01*
X105600Y309105D01*
X102557D01*
G01X136384Y350500D02*
X131384Y355500D01*
X124436D01*
X105600Y336664D01*
X102557D01*
G01X126384Y350500D02*
X121406D01*
X105602Y334696D01*
X102557D01*
G01Y330759D02*
X106006D01*
X106606Y331359D01*
Y333732D01*
X118374Y345500D01*
X131384D01*
X136384Y340500D01*
G01X126384D02*
X115374D01*
X107874Y333000D01*
Y330500D01*
X106164Y328790D01*
X102557D01*
G01X97384Y345995D02*
Y340233D01*
X98984Y338633D01*
X102557D01*
G01X101384Y345995D02*
X105879Y341500D01*
X106500D01*
G01X121874Y100000D02*
X119543D01*
X118000Y98457D01*
X114402D01*
G01X139874Y119000D02*
X137500D01*
X132500Y124000D01*
Y131500D01*
X129748Y134252D01*
X126189D01*
G01X139874Y115000D02*
X138000D01*
X131000Y122000D01*
Y131000D01*
X129717Y132283D01*
X126189D01*
G01X164000Y103500D02*
X146500D01*
X134500Y115500D01*
X117900D01*
X117500Y115900D01*
Y119657D01*
X117528Y119685D01*
G01X161000Y101000D02*
X146500D01*
X133500Y114000D01*
X117000D01*
X115559Y115441D01*
Y119685D01*
G01X158500Y98500D02*
X146500D01*
X132300Y112700D01*
X115800D01*
X113591Y114909D01*
Y119685D01*
G01X126189Y146063D02*
X130937D01*
X138000Y139000D01*
X139874D01*
G01X126189Y142126D02*
X129374D01*
X137500Y134000D01*
Y131500D01*
X138000Y131000D01*
X139874D01*
G01Y123000D02*
X136000D01*
X134000Y125000D01*
Y132000D01*
X129780Y136220D01*
X126189D01*
G01Y144094D02*
X130780D01*
X139874Y135000D01*
G01Y155000D02*
X133500D01*
X132437Y153937D01*
X126189D01*
G01X139874Y151000D02*
X133000D01*
X132032Y151968D01*
X126189D01*
G01X139874Y159000D02*
X135500D01*
X132406Y155906D01*
X126189D01*
G01X139874Y143000D02*
X136500D01*
X131468Y148032D01*
X126189D01*
G01X139874Y147000D02*
X134500D01*
X131500Y150000D01*
X126189D01*
G01X139874Y163000D02*
X137500D01*
X132374Y157874D01*
X126189D01*
G01Y163780D02*
X130780D01*
X135500Y168500D01*
Y172500D01*
X138000Y175000D01*
X139874D01*
G01Y167000D02*
X138000D01*
X130843Y159843D01*
X126189D01*
G01Y161811D02*
X130685D01*
X139874Y171000D01*
G01X113591Y180315D02*
Y183520D01*
X119571Y189500D01*
X123500D01*
X124374Y190374D01*
Y192000D01*
G01X115559Y180315D02*
Y183559D01*
X120000Y188000D01*
X126500D01*
X128374Y189874D01*
Y192000D01*
G01X132374D02*
Y189874D01*
X129000Y186500D01*
X120500D01*
X117528Y183528D01*
Y180315D01*
G01X119496D02*
Y183496D01*
X121000Y185000D01*
X131500D01*
X136374Y189874D01*
Y192000D01*
G01X139874Y187000D02*
X138000D01*
X133000Y182000D01*
Y176500D01*
X130122Y173622D01*
X126189D01*
G01X139874Y183000D02*
X138000D01*
X134500Y179500D01*
Y175500D01*
X130654Y171654D01*
X126189D01*
G01Y169685D02*
X130559D01*
X139874Y179000D01*
G01X168000Y187000D02*
Y188500D01*
X159500Y197000D01*
X150521D01*
X143021Y204500D01*
X124874D01*
X116374Y196000D01*
G01X120374D02*
X127374Y203000D01*
X142400D01*
X150400Y195000D01*
X159500D01*
X166000Y188500D01*
Y182500D01*
X162500Y179000D01*
G01X124374Y196000D02*
X129874Y201500D01*
X141778D01*
X150278Y193000D01*
X159500D01*
X164500Y188000D01*
Y185000D01*
X162500Y183000D01*
G01Y187000D02*
X158500Y191000D01*
X150157D01*
X141157Y200000D01*
X132374D01*
X128374Y196000D01*
G01X158500Y187000D02*
X156500Y189000D01*
X150036D01*
X140536Y198500D01*
X134874D01*
X132374Y196000D01*
G01X162384Y248470D02*
X160384Y246470D01*
X139970D01*
X139000Y245500D01*
X134384D01*
X129384Y250500D01*
X126384D01*
G01Y270500D02*
X129384D01*
X134384Y265500D01*
X152884D01*
X154384Y264000D01*
G01X162384Y287970D02*
X159914Y285500D01*
X133884D01*
X128884Y290500D01*
X126384D01*
G01Y310500D02*
X129384D01*
X134384Y305500D01*
X152384D01*
X154384Y303500D01*
G01X126384Y330500D02*
X129884D01*
X134884Y325500D01*
X148000D01*
X153500Y320000D01*
X159914D01*
X162384Y322470D01*
G01X154384Y338000D02*
X146000D01*
X138500Y345500D01*
X134884D01*
X129884Y350500D01*
X126384D01*
G01X143874Y123000D02*
X147000D01*
G01X143874Y119000D02*
X147000D01*
G01X155000D02*
X151000Y115000D01*
X143874D01*
G01Y143000D02*
X147000D01*
G01X143874Y139000D02*
X147000D01*
G01X143874Y135000D02*
X147000D01*
G01X143874Y131000D02*
X147000D01*
G01X143874Y147000D02*
X147000D01*
G01X143874Y163000D02*
X147000D01*
G01X143874Y151000D02*
X147000D01*
G01X143874Y159000D02*
X147000D01*
X151000Y163000D01*
G01X143874Y155000D02*
X145500D01*
X147000Y156500D01*
G01X158500Y179000D02*
X155500Y182000D01*
Y183500D01*
X154000Y185000D01*
X149500D01*
X147500Y187000D01*
X143874D01*
G01Y183000D02*
X153000D01*
G01X143874Y179000D02*
X149000D01*
G01X153000D02*
X149000Y175000D01*
X143874D01*
G01Y171000D02*
X151000D01*
G01Y167000D02*
X143874D01*
G01X158500Y183000D02*
X154500Y187000D01*
X150000D01*
X141000Y196000D01*
X136374D01*
G01X136384Y240500D02*
X140884Y245000D01*
X162000D01*
X165471Y248470D01*
X168384D01*
G01X157684Y238000D02*
X143884D01*
X136384Y230500D01*
G01Y270500D02*
X161884D01*
X168384Y264000D01*
G01X136384Y280500D02*
X160914D01*
X168384Y287970D01*
G01Y322470D02*
X163414Y317500D01*
X139384D01*
X136384Y320500D01*
G01Y310500D02*
X161384D01*
X168384Y303500D01*
G01Y338000D02*
X160384Y346000D01*
X140884D01*
X136384Y350500D01*
G01X172500Y100500D02*
Y102400D01*
X173100Y103000D01*
X180239D01*
X182339Y105100D01*
Y109976D01*
G01X157684Y238000D02*
Y234000D01*
G01X155825Y259543D02*
Y262559D01*
X154384Y264000D01*
G01X160943Y259543D02*
Y262559D01*
X162384Y264000D01*
G01X174943Y252458D02*
Y251030D01*
X172384Y248470D01*
G01X160943Y252458D02*
Y249911D01*
X162384Y248470D01*
G01X169825Y252458D02*
Y249911D01*
X168384Y248470D01*
G01X155825Y252458D02*
Y249911D01*
X154384Y248470D01*
G01X169825Y259543D02*
Y262559D01*
X168384Y264000D01*
G01X169825Y299043D02*
Y302059D01*
X168384Y303500D01*
G01X155825Y299043D02*
Y302059D01*
X154384Y303500D01*
G01X160943Y299043D02*
Y302059D01*
X162384Y303500D01*
G01X174943Y291958D02*
Y290530D01*
X172384Y287970D01*
G01X160943Y291958D02*
Y289411D01*
X162384Y287970D01*
G01X169825Y291958D02*
Y289411D01*
X168384Y287970D01*
G01X155825Y291958D02*
Y289411D01*
X154384Y287970D01*
G01X174943Y326458D02*
Y325030D01*
X172384Y322470D01*
G01X160943Y326458D02*
Y323911D01*
X162384Y322470D01*
G01X169825Y326458D02*
Y323911D01*
X168384Y322470D01*
G01X155825Y326458D02*
Y323911D01*
X154384Y322470D01*
G01X169825Y333543D02*
Y336559D01*
X168384Y338000D01*
G01X155825Y333543D02*
Y336559D01*
X154384Y338000D01*
G01X160943Y333543D02*
Y336559D01*
X162384Y338000D01*
G01X184500Y100500D02*
X188500D01*
G01D02*
Y103000D01*
X187457Y104043D01*
Y109976D01*
G01X180500Y100500D02*
X184898Y104898D01*
Y109976D01*
G01X176500Y100500D02*
X180500D01*
G01X188500Y141500D02*
Y138500D01*
X190000Y137000D01*
G01D02*
X187457Y134457D01*
Y132024D01*
G01X186500Y137500D02*
X184898Y135898D01*
Y132024D01*
G01X184500Y141500D02*
X186500Y139500D01*
Y137500D01*
G01X182339Y132024D02*
Y137339D01*
X183500Y138500D01*
G01D02*
X180500Y141500D01*
G01X174943Y259543D02*
Y262559D01*
X176384Y264000D01*
G01X174943Y299043D02*
Y302059D01*
X176384Y303500D01*
G01X174943Y333543D02*
Y336559D01*
X176384Y338000D01*
G01X228032Y15000D02*
X230000Y16968D01*
Y34500D01*
X228000Y36500D01*
G54D26*
X47384Y220500D03*
Y230500D03*
Y240500D03*
Y250500D03*
Y260500D03*
Y270500D03*
Y280500D03*
Y290500D03*
Y300500D03*
Y310500D03*
Y320500D03*
Y330500D03*
Y340500D03*
Y350500D03*
Y360500D03*
Y370500D03*
Y380500D03*
X57384Y220500D03*
Y230500D03*
Y240500D03*
Y250500D03*
Y260500D03*
Y270500D03*
Y280500D03*
Y290500D03*
Y300500D03*
Y310500D03*
Y320500D03*
Y330500D03*
Y340500D03*
Y350500D03*
Y360500D03*
Y370500D03*
X126384Y220500D03*
Y230500D03*
Y240500D03*
Y250500D03*
Y260500D03*
Y270500D03*
Y280500D03*
Y290500D03*
Y300500D03*
Y310500D03*
Y320500D03*
Y330500D03*
Y340500D03*
Y350500D03*
Y360500D03*
Y370500D03*
Y380500D03*
X136384Y220500D03*
Y230500D03*
Y240500D03*
Y250500D03*
Y260500D03*
Y270500D03*
Y280500D03*
Y290500D03*
Y300500D03*
Y310500D03*
Y320500D03*
Y330500D03*
Y340500D03*
Y350500D03*
Y360500D03*
Y370500D03*
G54D35*
X78884Y246916D03*
Y237074D03*
Y258727D03*
Y299263D03*
Y311074D03*
Y320916D03*
Y332727D03*
X97884Y246916D03*
Y237074D03*
Y258727D03*
Y299263D03*
Y311074D03*
Y320916D03*
Y332727D03*
G54D44*
X208000Y316100D03*
Y331900D03*
X268000Y316100D03*
Y331900D03*
X328000Y316100D03*
Y331900D03*
G54D17*
X27564Y59050D03*
Y374010D03*
X167324Y220470D03*
Y377950D03*
X303154Y374010D03*
X371874Y27500D03*
G54D54*
G01X52000Y137000D02*
Y133000D01*
G01Y160500D02*
X47500D01*
G01X57384Y220500D02*
X47384D01*
G01X75374Y55000D02*
X70374D01*
G01D02*
X65374D01*
G01D02*
Y86126D01*
X63500Y88000D01*
G01X55000Y90500D02*
X61000D01*
X63500Y88000D01*
G01Y88000D02*
X66000Y90500D01*
X75000D01*
G01X56000Y189000D02*
X59000D01*
X61500Y186500D01*
X70500D01*
G01X66874Y227000D02*
X63884D01*
X57384Y220500D01*
G01X66874Y231000D02*
Y236874D01*
X69000Y239000D01*
G01X66874Y253500D02*
X63874D01*
G01Y304500D02*
X66874D01*
G01Y327500D02*
X63874D01*
G01X109000Y348000D02*
X106500Y350500D01*
X70500D01*
X67580Y347580D01*
Y343080D01*
G01X80374Y55000D02*
X75374D01*
G01X79000Y90500D02*
X75000D01*
G01X86000Y169500D02*
Y166500D01*
X88000Y164500D01*
G01D02*
X100500D01*
G01D02*
X104000D01*
G01X97874Y192000D02*
Y191598D01*
X95874Y189598D01*
Y185500D01*
G01X97874Y192000D02*
X102374D01*
G01D02*
X103000Y191374D01*
Y188000D01*
G01X110374Y231000D02*
Y235500D01*
G01Y253500D02*
X113374D01*
G01X110374Y307000D02*
X113374D01*
G01X110374Y327500D02*
X113374D01*
G01X182500Y173300D02*
Y179000D01*
X160000Y201500D01*
X152500D01*
X146000Y208000D01*
X122000D01*
X118000Y212000D01*
Y228500D01*
X120000Y230500D01*
X126384D01*
G01X182500Y170500D02*
Y173300D01*
G54D36*
X172102Y109976D03*
X169543D03*
Y132024D03*
X172102D03*
X187457Y109976D03*
X184898D03*
X182339D03*
X179780D03*
X177220D03*
X174661D03*
Y132024D03*
X177220D03*
X179780D03*
X182339D03*
X184898D03*
X187457D03*
G54D27*
X72252Y119685D03*
Y180315D03*
X91937Y119685D03*
X89968D03*
X88000D03*
X86031D03*
X84063D03*
X82094D03*
X80126D03*
X78157D03*
X76189D03*
X74220D03*
Y180315D03*
X76189D03*
X78157D03*
X80126D03*
X82094D03*
X84063D03*
X86031D03*
X88000D03*
X89968D03*
X91937D03*
X111622Y119685D03*
X109654D03*
X107685D03*
X105717D03*
X103748D03*
X101780D03*
X99811D03*
X97842D03*
X95874D03*
X93906D03*
Y180315D03*
X95874D03*
X97842D03*
X99811D03*
X101780D03*
X103748D03*
X105717D03*
X107685D03*
X109654D03*
X111622D03*
X119496Y119685D03*
X117528D03*
X115559D03*
X113591D03*
Y180315D03*
X115559D03*
X117528D03*
X119496D03*
G54D18*
X35079Y170945D03*
Y180000D03*
Y189055D03*
G54D45*
X224094Y24842D03*
X251654D03*
G54D55*
G01X19000Y356500D02*
Y361500D01*
X16000Y364500D01*
X11000D01*
X8000Y361500D01*
Y356500D01*
X11000Y353500D01*
X16000D01*
X19000Y356500D01*
G01X54600Y136220D02*
X65559D01*
G01X60500Y162000D02*
X62280Y163780D01*
X65559D01*
G01Y138189D02*
X70500D01*
G01X71500Y165748D02*
X65559D01*
G01X72000Y163000D02*
X71000D01*
X70220Y163780D01*
X65559D01*
G01X89968Y185000D02*
Y180315D01*
G01X74211Y225263D02*
X69500D01*
G01X74211Y231168D02*
X70042D01*
G01X74211Y252822D02*
X69538D01*
G01X70042Y305168D02*
X74211D01*
G01Y326822D02*
X69538D01*
G01X88000Y180315D02*
Y176000D01*
X87500Y175500D01*
Y174000D01*
X86000Y172500D01*
Y169500D01*
G01X78884Y237074D02*
Y226112D01*
X78035Y225263D01*
G01D02*
X74211D01*
G01X78035D02*
X84298Y219000D01*
X96000D01*
X97914Y220914D01*
Y224414D01*
X98763Y225263D01*
X102557D01*
G01X74211Y246916D02*
X78884D01*
G01X74211Y237074D02*
X78884D01*
G01X74211Y258727D02*
X78884D01*
G01X74211Y299263D02*
X78884D01*
G01X74211Y311074D02*
X78884D01*
G01X74211Y320916D02*
X78884D01*
G01X74211Y332727D02*
X78884D01*
G01X95874Y115126D02*
Y119685D01*
G01X101780D02*
Y115780D01*
X101000Y115000D01*
G01X99811Y119685D02*
Y116189D01*
X101000Y115000D01*
G01X103748Y119685D02*
Y124248D01*
X104500Y125000D01*
G01X96500Y175500D02*
X98611D01*
X99811Y176700D01*
Y180315D01*
G01X95874Y185500D02*
Y180315D01*
G01X107000Y226000D02*
X106263Y225263D01*
X102557D01*
G01Y246916D02*
X97884D01*
G01X102557Y237074D02*
X97884D01*
G01X102557Y231168D02*
X106874D01*
G01X102557Y258727D02*
X97884D01*
G01X102557Y252822D02*
X107230D01*
G01X102557Y299263D02*
X97884D01*
G01X102557Y305168D02*
X106874D01*
G01X102557Y311074D02*
X97884D01*
G01X102557Y320916D02*
X97884D01*
G01X102557Y326822D02*
X107230D01*
G01X102557Y332727D02*
X97884D01*
G01X123000Y118000D02*
Y118485D01*
X121800Y119685D01*
X119496D01*
G01X126189Y140157D02*
X120157D01*
G01X136500Y129500D02*
X135500Y130500D01*
Y133000D01*
X130311Y138189D01*
X126189D01*
G01X117500Y165000D02*
X120217Y167717D01*
X126189D01*
G01Y165748D02*
X122248D01*
X121500Y165000D01*
G01X147000Y127000D02*
X157500D01*
X162000Y122500D01*
Y110500D01*
X167500Y105000D01*
X178500D01*
X179780Y106280D01*
Y109976D01*
G01X172500Y96500D02*
X168000D01*
G01X176500D02*
X172500D01*
G01X169543Y109976D02*
Y116957D01*
G01X204457Y150000D02*
X201000D01*
X195500Y144500D01*
Y128500D01*
X191000Y124000D01*
X175000D01*
X172102Y126898D01*
Y132024D01*
G01X204457Y135500D02*
X200500D01*
X198000Y133000D01*
Y126000D01*
X193500Y121500D01*
X173802D01*
X172102Y119800D01*
Y109976D01*
G01X170000Y141500D02*
X174000D01*
G01X165000D02*
X170000D01*
G01X169543Y132024D02*
Y141043D01*
X170000Y141500D01*
G01X173134Y161740D02*
Y163134D01*
X180500Y170500D01*
X182500D01*
G01X181500Y154500D02*
X173374D01*
X173134Y154260D01*
G01D02*
X174240D01*
X176500Y152000D01*
Y135500D01*
X177220Y134780D01*
Y132024D01*
G01X180500Y96500D02*
Y93500D01*
G01Y96500D02*
X184500D01*
G01X188500D02*
X191500D01*
G01X177220Y109976D02*
Y114720D01*
X178500Y116000D01*
G01X204457Y164500D02*
X203700D01*
X202500Y163300D01*
Y155000D01*
X193000Y145500D01*
Y130500D01*
X189000Y126500D01*
X175861D01*
X174661Y127700D01*
Y132024D01*
G01X204457Y121000D02*
X197000D01*
X194500Y118500D01*
X175851D01*
X174651Y117300D01*
Y109986D01*
X174661Y109976D01*
G01X187500Y160500D02*
X192000D01*
G01X186500Y166000D02*
X190500D01*
G01X196500Y173500D02*
X197500Y172500D01*
Y159253D01*
X192747Y154500D01*
X187500D01*
G01X199500Y156000D02*
X199000D01*
X194500Y151500D01*
X185000D01*
X182000Y154500D01*
X181500D01*
G01Y160500D02*
Y154500D01*
G01X182500Y166000D02*
Y161500D01*
X181500Y160500D01*
G01X186500Y170500D02*
X190500D01*
G01X212043Y86760D02*
X219000D01*
G01X204457Y121000D02*
X216300D01*
X217500Y119800D01*
Y110500D01*
X226500Y101500D01*
X370500D01*
X380000Y111000D01*
Y126000D01*
X374000Y132000D01*
X369500D01*
G01X288000D02*
X294000D01*
X299500Y126500D01*
Y107200D01*
X296800Y104500D01*
X228000D01*
X220500Y112000D01*
Y131000D01*
X216000Y135500D01*
X204457D01*
G01X370000Y191500D02*
X377000D01*
X380000Y188500D01*
Y166500D01*
X377000Y163500D01*
X248500D01*
X235000Y150000D01*
X204457D01*
G01X288000Y191000D02*
X295500D01*
X298000Y188500D01*
Y168700D01*
X295800Y166500D01*
X246500D01*
X244500Y164500D01*
X204457D01*
G01X229543Y83543D02*
Y86760D01*
G01X235500Y83500D02*
X231000Y79000D01*
X226000D01*
G01X235260Y94240D02*
X229543D01*
G01X232000Y116500D02*
Y112000D01*
G01Y116500D02*
X232520Y115980D01*
X246160D01*
G01X232000Y121000D02*
Y116500D01*
G01Y125500D02*
Y121000D01*
G01X228000D02*
Y116500D01*
G01X232000Y130000D02*
X234800D01*
X236000Y128800D01*
Y125500D01*
X240520Y120980D01*
X246160D01*
G01X232000Y130000D02*
Y134500D01*
G01Y139000D02*
Y143500D01*
G01Y139000D02*
X236000D01*
X239500Y135500D01*
Y127220D01*
X240700Y126020D01*
X246160D01*
G01X232000Y138500D02*
Y139000D01*
G01X228000Y180000D02*
Y175500D01*
G01X232000D02*
Y171000D01*
G01Y180000D02*
Y175500D01*
G01Y184500D02*
Y180000D01*
G01Y175500D02*
X232520Y174980D01*
X246160D01*
G01X232000Y198000D02*
Y202500D01*
G01Y198000D02*
X235500D01*
G01X232000Y189000D02*
Y193500D01*
G01X235000Y189000D02*
X232000D01*
G01X246543Y86760D02*
Y83543D01*
G01X251000Y145000D02*
X255500D01*
X256500Y146000D01*
G01X251000Y145000D02*
X245000D01*
G01X235500Y198000D02*
X236000D01*
X238500Y195500D01*
Y187000D01*
X240480Y185020D01*
X246160D01*
G01X236000Y184500D02*
Y188000D01*
X235000Y189000D01*
G01X246160Y179980D02*
X240520D01*
X236000Y184500D01*
G01X251000Y204000D02*
X245000D01*
G01X251000D02*
X255500D01*
X256500Y205000D01*
G01X264000Y83543D02*
Y86716D01*
X264043Y86760D01*
G01X284000Y127500D02*
X281500D01*
X274980Y120980D01*
X268840D01*
G01Y125980D02*
X274980D01*
X278000Y129000D01*
Y134000D01*
X280500Y136500D01*
X284000D01*
G01X270000Y146000D02*
X274500D01*
G01X270000D02*
Y132140D01*
X268840Y130980D01*
G01X261000Y146000D02*
X261500D01*
X265500Y150000D01*
G01X270000D02*
X265500D01*
G01X280000Y195001D02*
X278000Y193000D01*
Y188000D01*
X274980Y184980D01*
X268840D01*
G01X284000Y186500D02*
X281500D01*
X274980Y179980D01*
X268840D01*
G01X270000Y205000D02*
Y191140D01*
X268840Y189980D01*
G01X270000Y205000D02*
X274500D01*
G01X261000D02*
X261500D01*
X265500Y209000D01*
G01X270000D02*
X265500D01*
G01X289000Y112500D02*
X293000D01*
G01X284000Y132000D02*
Y127500D01*
G01X288000Y136500D02*
X284000Y132500D01*
Y132000D01*
G01Y136500D02*
Y137000D01*
X288000Y141000D01*
G01X289000Y171500D02*
X292800D01*
X294000Y170300D01*
Y169500D01*
G01X284000Y191000D02*
Y186500D01*
G01Y195500D02*
Y196000D01*
X288000Y200000D01*
G01X280000Y195001D02*
X280500Y195500D01*
X284000D01*
G01Y191000D02*
Y191500D01*
G01D02*
X288000Y195500D01*
G01X284000Y191500D02*
Y193000D01*
G01X309500Y116500D02*
X306500D01*
G01X309500Y121000D02*
Y116500D01*
G01X313500D02*
Y112000D01*
G01Y116500D02*
X314020Y115980D01*
X327660D01*
G01X313500Y121000D02*
Y116500D01*
G01Y125500D02*
Y121000D01*
G01Y139000D02*
Y143500D01*
G01X327660Y126020D02*
X321980D01*
X320000Y128000D01*
Y136500D01*
X317500Y139000D01*
X313500D01*
G01Y130000D02*
X317000D01*
G01X313500D02*
Y134500D01*
G01X314000Y176000D02*
X314520Y175480D01*
X328160D01*
G01X317000Y130000D02*
Y126500D01*
X322520Y120980D01*
X327660D01*
G01X332500Y145000D02*
X337000D01*
X338000Y146000D01*
G01X332500Y145000D02*
X326500D01*
G01Y151000D02*
X323000D01*
G01X328160Y185520D02*
X322700D01*
X321500Y186720D01*
Y195000D01*
X318000Y198500D01*
X314000D01*
G01Y176000D02*
Y171500D01*
G01Y180500D02*
Y176000D01*
G01Y185000D02*
Y180500D01*
G01X317500Y189500D02*
Y185500D01*
X322520Y180480D01*
X328160D01*
G01X314000Y198500D02*
Y203000D01*
G01Y189500D02*
X317500D01*
G01X314000D02*
Y194000D01*
G01X333000Y204500D02*
X337500D01*
X338500Y205500D01*
G01X333000Y204500D02*
X327000D01*
G01X350340Y125980D02*
X356480D01*
X359500Y129000D01*
Y134000D01*
X362000Y136500D01*
X365500D01*
G01Y127500D02*
X363000D01*
X356480Y120980D01*
X350340D01*
G01X347000Y146000D02*
Y143000D01*
G01X342500Y146000D02*
X343000D01*
X347000Y150000D01*
G01X351500Y146000D02*
X356000D01*
G01X351500D02*
Y132140D01*
X350340Y130980D01*
G01X338000Y150000D02*
Y153500D01*
G01X351500Y150000D02*
X347000D01*
G01X366000Y187000D02*
X363500D01*
X356980Y180480D01*
X350840D01*
G01Y185480D02*
X356980D01*
X360000Y188500D01*
Y193500D01*
X362500Y196000D01*
X366000D01*
G01X343000Y205500D02*
X343500D01*
X347500Y209500D01*
G01X352000Y205500D02*
X356500D01*
G01X352000D02*
Y191640D01*
X350840Y190480D01*
G01X352000Y209500D02*
X347500D01*
G01X370500Y112500D02*
X375500D01*
G01X365500Y136500D02*
Y137000D01*
X369500Y141000D01*
G01X365500Y132000D02*
Y127500D01*
G01X369500Y136500D02*
X365500Y132500D01*
Y132000D01*
G01X356000Y150000D02*
Y153000D01*
G01X371000Y172000D02*
X376000D01*
G01X366000Y191500D02*
Y187000D01*
G01X370000Y196000D02*
X366000Y192000D01*
Y191500D01*
G01Y196000D02*
Y196500D01*
X370000Y200500D01*
G01X387500Y43500D02*
Y48500D01*
X384500Y51500D01*
X379500D01*
X376500Y48500D01*
Y43500D01*
X379500Y40500D01*
X384500D01*
X387500Y43500D01*
G01X386000Y375000D02*
Y380000D01*
X383000Y383000D01*
X378000D01*
X375000Y380000D01*
Y375000D01*
X378000Y372000D01*
X383000D01*
X386000Y375000D01*
G54D28*
X65559Y126378D03*
Y128346D03*
Y130315D03*
Y132283D03*
Y134252D03*
Y136220D03*
Y138189D03*
Y140157D03*
Y142126D03*
Y144094D03*
Y146063D03*
Y148032D03*
Y150000D03*
Y151968D03*
Y153937D03*
Y155906D03*
Y157874D03*
Y159843D03*
Y161811D03*
Y163780D03*
Y165748D03*
Y167717D03*
Y169685D03*
Y171654D03*
Y173622D03*
X126189Y126378D03*
Y146063D03*
Y144094D03*
Y142126D03*
Y140157D03*
Y138189D03*
Y136220D03*
Y134252D03*
Y132283D03*
Y130315D03*
Y128346D03*
Y165748D03*
Y163780D03*
Y161811D03*
Y159843D03*
Y157874D03*
Y155906D03*
Y153937D03*
Y151968D03*
Y150000D03*
Y148032D03*
Y173622D03*
Y171654D03*
Y169685D03*
Y167717D03*
G54D19*
X21825Y261957D03*
X26943D03*
Y269043D03*
X24384D03*
X21825D03*
Y291958D03*
X26943D03*
Y299043D03*
X24384D03*
X21825D03*
Y332458D03*
X26943D03*
Y339543D03*
X24384D03*
X21825D03*
X33825Y261957D03*
X38943D03*
Y269043D03*
X36384D03*
X33825D03*
Y291958D03*
X38943D03*
Y299043D03*
X36384D03*
X33825D03*
Y332458D03*
X38943D03*
Y339543D03*
X36384D03*
X33825D03*
X155825Y252458D03*
X160943D03*
Y259543D03*
X158384D03*
X155825D03*
X169825Y252458D03*
X172384Y259543D03*
X169825D03*
X155825Y291958D03*
X160943D03*
Y299043D03*
X158384D03*
X155825D03*
X169825Y291958D03*
X172384Y299043D03*
X169825D03*
Y326458D03*
X155825D03*
X160943D03*
X172384Y333543D03*
X169825D03*
X160943D03*
X158384D03*
X155825D03*
X174943Y252458D03*
Y259543D03*
Y291958D03*
Y299043D03*
Y326458D03*
Y333543D03*
G54D46*
X234250Y294000D03*
X241750D03*
X294250D03*
X301750D03*
X354250D03*
X361750D03*
G54D37*
X165000Y147500D03*
Y141500D03*
X220000Y325000D03*
Y331000D03*
X245000Y145000D03*
X251000D03*
X245000Y151000D03*
X251000D03*
X245000Y204000D03*
X251000D03*
X245000Y210000D03*
X251000D03*
X280000Y325000D03*
Y331000D03*
X326500Y145000D03*
X332500D03*
X326500Y151000D03*
X332500D03*
X327000Y204500D03*
X333000D03*
X327000Y210500D03*
X333000D03*
X340000Y325000D03*
Y331000D03*
G54D56*
G01X10500Y200000D02*
X11460Y200960D01*
Y204000D01*
G01X3100Y204023D02*
X3123Y204000D01*
G01X30000Y245500D02*
X29184D01*
G01D02*
X27684Y247000D01*
Y249500D01*
G01X24384Y279384D02*
X18616D01*
G01X24384Y269043D02*
Y273500D01*
G01X36000Y280500D02*
X25500D01*
X24384Y279384D01*
G01Y299043D02*
Y303500D01*
G01X18116Y309384D02*
X24384D01*
G01X36384Y312000D02*
X27000D01*
X24384Y309384D01*
G01Y339543D02*
Y347000D01*
G01X50374Y55000D02*
Y60000D01*
G01X45374Y55000D02*
Y60000D01*
G01X47500Y97500D02*
X50500D01*
G01X55000Y122500D02*
X52087Y125413D01*
Y127500D01*
G01X47500Y114500D02*
X50500D01*
G01X47500Y119000D02*
X50500D01*
G01X52000Y156500D02*
Y150000D01*
X50000Y148000D01*
Y143000D01*
X52000Y141000D01*
G01X48000Y137000D02*
Y141000D01*
G01X52000Y137000D02*
X53820D01*
X54600Y136220D01*
G01X52000Y160500D02*
X54500D01*
X55500Y161500D01*
X60000D01*
X60500Y162000D01*
G01X36384Y269043D02*
Y274616D01*
X36000Y275000D01*
G01X36384Y305500D02*
Y299043D01*
G01Y339543D02*
Y346000D01*
G01X60374Y55000D02*
Y60000D01*
G01X55374Y55000D02*
Y60000D01*
G01X73000Y109500D02*
X69000Y105500D01*
Y94500D01*
G01D02*
X92500D01*
G01X75000Y100000D02*
X71874D01*
G01X73000Y109500D02*
X83000D01*
G01X88000Y164500D02*
X86500Y163000D01*
X72000D01*
G01X70500Y201500D02*
Y186500D01*
G01D02*
X88468D01*
X89968Y185000D01*
G01X90402Y201500D02*
X70500D01*
G01X73384Y214995D02*
Y212010D01*
X73374Y212000D01*
G01X69500Y225263D02*
X68611D01*
X66874Y227000D01*
G01X70042Y231168D02*
X69874Y231000D01*
X66874D01*
G01Y257500D02*
X64500D01*
X64000Y257000D01*
G01X69538Y252822D02*
X68861Y253500D01*
X66874D01*
G01Y300500D02*
X64500Y298126D01*
Y297500D01*
G01X66874Y304500D02*
X69374D01*
X70042Y305168D01*
G01X69538Y326822D02*
X68861Y327500D01*
X66874D01*
G01Y331500D02*
Y332126D01*
X64500Y334500D01*
G01X96000Y57000D02*
X92256Y53256D01*
Y46280D01*
G01Y32500D02*
X86000Y38756D01*
Y58000D01*
X94000Y66000D01*
X97000D01*
G01X83000Y109500D02*
X84445D01*
X88402Y105543D01*
G01X92500Y94500D02*
X95000Y97000D01*
Y100000D01*
G01X79346Y98457D02*
X76500D01*
X75000Y99957D01*
Y100000D01*
G01X90402Y197543D02*
Y201500D01*
G01Y197543D02*
X94957D01*
G01X77000Y192000D02*
Y191957D01*
X78500Y190457D01*
X81346D01*
G01X73874Y192000D02*
X77000D01*
G01X73384Y271995D02*
Y268995D01*
G01Y285995D02*
Y288995D01*
G01Y345995D02*
Y342995D01*
G01X124500Y66000D02*
X121500D01*
X112500Y57000D01*
Y39815D01*
X119815Y32500D01*
G01X102000Y57000D02*
Y52000D01*
X99000Y49000D01*
Y39535D01*
X106035Y32500D01*
G01X97000Y61500D02*
Y58000D01*
X96000Y57000D01*
G01X204500Y86500D02*
X137000D01*
X112000Y61500D01*
X101000D01*
G01X204957Y90500D02*
X136000D01*
X111500Y66000D01*
X101000D01*
G01X97874Y100000D02*
X95000D01*
G01X105346Y94500D02*
X125000D01*
G01X105346Y98457D02*
Y94500D01*
G01X101000Y98457D02*
Y106500D01*
G01X105346Y98457D02*
X101000D01*
G01X97874Y104000D02*
Y109126D01*
X95874Y111126D01*
Y115126D01*
G01X97874Y104000D02*
X95000D01*
G01X125000Y109500D02*
X105500D01*
G01X94957Y197543D02*
Y192500D01*
G01X97874Y196000D02*
X102374D01*
G01X97874D02*
X96331Y197543D01*
X94957D01*
G01X110374Y227000D02*
X108000D01*
X107000Y226000D01*
G01X100500Y215000D02*
X106000D01*
X113561Y222561D01*
Y229939D01*
X112500Y231000D01*
X110374D01*
G01X106874Y231168D02*
X107042Y231000D01*
X110374D01*
G01Y257500D02*
X113374D01*
G01X107230Y252822D02*
X107907Y253500D01*
X110374D01*
G01Y303000D02*
X113374D01*
G01X106874Y305168D02*
X108706Y307000D01*
X110374D01*
G01X107230Y326822D02*
X107907Y327500D01*
X110374D01*
G01X113374Y331500D02*
X110374D01*
G01X133594Y32500D02*
X126500Y39594D01*
Y51000D01*
X129500Y54000D01*
Y57000D01*
G01X119815Y46280D02*
Y53315D01*
X123500Y57000D01*
G01X124500Y61500D02*
Y58000D01*
X123500Y57000D01*
G01X226000Y79000D02*
X152000D01*
X134500Y61500D01*
X128500D01*
G01X222457Y90500D02*
Y84000D01*
X220957Y82500D01*
X149000D01*
X132500Y66000D01*
X128500D01*
G01X125000Y94500D02*
Y109500D01*
G01X114402Y105543D02*
X117457D01*
X119000Y104000D01*
G01X121874D02*
X119000D01*
G01X117000Y159500D02*
Y164500D01*
X117500Y165000D01*
G01X147374Y32500D02*
X147000D01*
X140500Y39000D01*
Y58000D01*
X149000Y66500D01*
X152500D01*
G01X151500Y57500D02*
X147374Y53374D01*
Y46280D01*
G01X152500Y62000D02*
Y58500D01*
X151500Y57500D01*
G01X136500Y126500D02*
Y129500D01*
G01X139874Y127000D02*
X137000D01*
X136500Y126500D01*
G01X143874Y127000D02*
X147000D01*
G01X157500Y57500D02*
Y55000D01*
X154500Y52000D01*
Y39154D01*
X161154Y32500D01*
G01X180000Y66500D02*
X175500D01*
X168500Y59500D01*
Y38933D01*
X174933Y32500D01*
G01X239457Y90500D02*
Y77000D01*
X237957Y75500D01*
X172000D01*
X163000Y66500D01*
X156500D01*
G01X196000Y71000D02*
X173500D01*
X164500Y62000D01*
X156500D01*
G01X165000Y147500D02*
X168000D01*
X170000Y145500D01*
G01D02*
X174000D01*
G01X165000Y147500D02*
X164866Y147634D01*
Y158000D01*
G01X167084Y238000D02*
Y234000D01*
G01X180500Y267000D02*
X175384D01*
X172384Y264000D01*
G01X158384Y259543D02*
Y264000D01*
G01X172384Y259543D02*
Y264000D01*
G01X180500Y306000D02*
X174884D01*
X172384Y303500D01*
G01X158384Y299043D02*
Y303500D01*
G01X172384Y299043D02*
Y303500D01*
G01X180500Y340500D02*
X174884D01*
X172384Y338000D01*
G01X158384Y333543D02*
Y338000D01*
G01X172384Y333543D02*
Y338000D01*
G01X188713Y32500D02*
X181500Y39713D01*
Y51000D01*
X185000Y54500D01*
Y57500D01*
G01X174933Y46280D02*
X175000Y46346D01*
Y53500D01*
X179000Y57500D01*
G01X301750Y82750D02*
X300750D01*
X280000Y62000D01*
X184000D01*
G01X256957Y90500D02*
Y78457D01*
X245000Y66500D01*
X184000D01*
G01X180000Y62000D02*
Y58500D01*
X179000Y57500D01*
G01Y138000D02*
Y137000D01*
X179780Y136220D01*
Y132024D01*
G01X180500Y145500D02*
Y149000D01*
G01X184500Y145500D02*
Y149000D01*
G01X188500Y145500D02*
Y149000D01*
G01X174000Y145500D02*
Y149000D01*
G01X196500Y173500D02*
X195500Y174500D01*
X183700D01*
X182500Y173300D01*
G01X212043Y94240D02*
X229543D01*
G01X204957Y90500D02*
X207000D01*
G01X204957Y93500D02*
Y90500D01*
G01X211543Y124740D02*
X205240D01*
G01X211543Y117260D02*
Y114457D01*
G01Y139240D02*
X205240D01*
G01X211543Y142457D02*
Y146260D01*
G01Y128457D02*
Y131760D01*
G01Y153740D02*
X205240D01*
G01X211543Y156543D02*
Y160760D01*
G01Y168240D02*
X205500D01*
G01X235500Y87000D02*
Y83500D01*
G01X225000Y98000D02*
X237500D01*
X239457Y96043D01*
Y90500D01*
G01X222457D02*
X232500D01*
G01X228000Y125500D02*
X223500D01*
G01X265000Y108000D02*
X230000D01*
X228000Y110000D01*
Y112000D01*
G01Y116500D02*
X224500D01*
G01X228000Y143500D02*
X223500D01*
G01X228000Y134500D02*
X223500D01*
G01X228000Y130000D02*
X223500D01*
G01X228000Y139000D02*
X223500D01*
G01X228000Y184500D02*
X223500D01*
G01X274000Y171000D02*
X246000D01*
X242500Y167500D01*
X229500D01*
X228000Y169000D01*
Y171000D01*
G01Y175500D02*
X224500D01*
G01X228000Y189000D02*
X223500D01*
G01X228000Y193500D02*
X223500D01*
G01X228000Y198000D02*
X223500D01*
G01X228000Y202500D02*
X223500D01*
G01X230000Y264000D02*
X231500Y260000D01*
G01X220000Y325000D02*
Y320500D01*
G01X233480Y316660D02*
Y308520D01*
G01X228480Y339340D02*
Y335480D01*
X225500Y332500D01*
X221500D01*
X220000Y331000D01*
G01X230000Y352000D02*
Y349000D01*
G01X236000Y356000D02*
X230000D01*
G01X246543Y94240D02*
X254000D01*
G01X237500Y111000D02*
X254000D01*
X255500Y112500D01*
Y118480D01*
X253000Y120980D01*
X246160D01*
G01Y126020D02*
X255980D01*
X260500Y121500D01*
Y113000D01*
G01X245000Y145000D02*
Y132180D01*
X246160Y131020D01*
G01X245000Y151000D02*
Y155000D01*
G01Y204000D02*
Y191180D01*
X246160Y190020D01*
G01X245000Y210000D02*
Y214000D01*
G01X252000Y300000D02*
X256000D01*
G01X248000D02*
X252000D01*
G01X243480Y316660D02*
Y311500D01*
X244980Y310000D01*
X250500D01*
X252000Y308500D01*
Y304000D01*
G01X236000Y307000D02*
X245500D01*
X248000Y304500D01*
Y304000D01*
G01X238480Y316660D02*
Y322480D01*
X240500Y324500D01*
G01X252000Y326000D02*
X256000D01*
G01X252000Y330000D02*
X256000D01*
G01X236000Y352000D02*
Y348500D01*
X237500Y347000D01*
X242020D01*
X243520Y345500D01*
Y339340D01*
G01X252000Y330000D02*
Y350500D01*
X250500Y352000D01*
X248000D01*
G01Y356000D02*
Y359000D01*
G01X242000Y356000D02*
Y359000D01*
G01Y352000D02*
X248000D01*
G01X236000D02*
X242000D01*
G01X254000Y94240D02*
X264043D01*
G01X386500Y161500D02*
Y106500D01*
X374240Y94240D01*
X264043D01*
G01X256957Y90500D02*
X300000D01*
G01X268840Y115980D02*
X276980D01*
X279000Y118000D01*
X283000D01*
G01X265500Y146000D02*
Y142500D01*
G01X284000Y141000D02*
X279500D01*
X274000Y135500D01*
G01X256500Y150000D02*
Y155000D01*
G01X322500Y157000D02*
X263000D01*
X261000Y155000D01*
Y153000D01*
G01Y150000D02*
Y153000D01*
G01X268840Y174980D02*
X276980D01*
X279000Y177000D01*
X283000D01*
G01X265500Y205000D02*
Y201500D01*
G01X284000Y200000D02*
X279500D01*
X274000Y194500D01*
G01X256500Y209000D02*
Y212000D01*
G01X261000Y209000D02*
Y212500D01*
G01X256000Y304000D02*
Y307000D01*
G01Y326000D02*
Y322500D01*
G01X288000Y123000D02*
Y127500D01*
G01X289000Y118000D02*
Y122000D01*
X288000Y123000D01*
G01X283000Y118000D02*
Y112500D01*
G01X284000Y123000D02*
Y119000D01*
X283000Y118000D01*
G01X288000Y127500D02*
X291500D01*
G01X274500Y150000D02*
Y153500D01*
G01X288000Y186500D02*
X291500D01*
G01X289000Y177000D02*
Y181000D01*
X288000Y182000D01*
G01D02*
X291500D01*
G01X283000Y177000D02*
Y171500D01*
G01X284000Y182000D02*
Y178000D01*
X283000Y177000D01*
G01X274500Y209000D02*
Y212000D01*
G01X280000Y325000D02*
Y320500D01*
G01X293480Y316660D02*
Y308520D01*
G01X288480Y339340D02*
Y335480D01*
X285500Y332500D01*
X281500D01*
X280000Y331000D01*
G01X290000Y352000D02*
Y349000D01*
G01X296000Y356000D02*
X290000D01*
G01X355500Y110000D02*
X351000Y105500D01*
X311000D01*
X309500Y107000D01*
Y112000D01*
G01Y125500D02*
X305000D01*
G01X309500Y143500D02*
X305000D01*
G01X309500Y134500D02*
X305000D01*
G01X309500Y130000D02*
X305000D01*
G01X309500Y139000D02*
X305000D01*
G01X344000Y195000D02*
Y169500D01*
X341000Y166500D01*
X312500D01*
X310000Y169000D01*
Y171500D01*
G01Y185000D02*
X305500D01*
G01X307000Y180500D02*
X308500D01*
G01D02*
X310000D01*
G01Y176000D02*
Y180500D01*
G01Y203000D02*
X305500D01*
G01X310000Y194000D02*
X305500D01*
G01X310000Y189500D02*
X305500D01*
G01X310000Y198500D02*
X305500D01*
G01X312000Y300000D02*
X316000D01*
G01X308000D02*
X312000D01*
G01X296000Y307000D02*
X305500D01*
X308000Y304500D01*
Y304000D01*
G01X303480Y316660D02*
Y311500D01*
X304980Y310000D01*
X310500D01*
X312000Y308500D01*
Y304000D01*
G01X298480Y316660D02*
Y322480D01*
X300500Y324500D01*
G01X312000Y326000D02*
X316000D01*
G01X312000Y330000D02*
X316000D01*
G01X296000Y352000D02*
Y348500D01*
X297500Y347000D01*
X302020D01*
X303520Y345500D01*
Y339340D01*
G01X312000Y330000D02*
Y350500D01*
X310500Y352000D01*
X308000D01*
G01Y356000D02*
Y359000D01*
G01X302000Y356000D02*
Y359000D01*
G01Y352000D02*
X308000D01*
G01X296000D02*
X302000D01*
G01X327500Y108500D02*
X336500D01*
X341500Y113500D01*
Y121520D01*
X337000Y126020D01*
X327660D01*
G01X321000Y111500D02*
X333500D01*
X337000Y115000D01*
Y119000D01*
X335020Y120980D01*
X327660D01*
G01X326500Y145000D02*
Y132180D01*
X327660Y131020D01*
G01X338000Y173500D02*
X340000Y175500D01*
Y184000D01*
X338480Y185520D01*
X328160D01*
G01X327000Y204500D02*
Y191680D01*
X328160Y190520D01*
G01X327000Y210500D02*
Y214500D01*
G01X316000Y304000D02*
Y307000D01*
G01Y326000D02*
Y322500D01*
G01X350340Y115980D02*
X358480D01*
X360500Y118000D01*
X364500D01*
G01X342500Y150000D02*
Y153500D01*
G01X350840Y175480D02*
X358980D01*
X361000Y177500D01*
X365000D01*
G01X347500Y205500D02*
Y202000D01*
G01X338500Y209500D02*
Y213500D01*
G01X343000Y209500D02*
Y213500D01*
G01X340000Y325000D02*
Y320000D01*
G01X353480Y316660D02*
Y308520D01*
G01X348480Y339340D02*
Y335480D01*
X345500Y332500D01*
X341500D01*
X340000Y331000D01*
G01X356000Y356000D02*
X350000D01*
G01Y352000D02*
Y349000D01*
G01X370500Y118000D02*
X375500D01*
G01X369500Y123000D02*
X374000D01*
G01X364500Y118000D02*
Y112500D01*
G01X365500Y123000D02*
Y119000D01*
X364500Y118000D01*
G01X369500Y127500D02*
X373500D01*
G01X365500Y141000D02*
X361000D01*
X355500Y135500D01*
G01X371000Y177500D02*
X375500D01*
G01X370000Y182500D02*
X374500D01*
G01X370000Y187000D02*
X374500D01*
G01X365000Y177500D02*
Y172000D01*
G01X366000Y182500D02*
Y178500D01*
X365000Y177500D01*
G01X366000Y200500D02*
X361500D01*
X356000Y195000D01*
G01X356500Y209500D02*
Y213500D01*
G01X374000Y300000D02*
X378000D01*
G01X374000D02*
X370000D01*
G01X374000Y304000D02*
Y308500D01*
X372500Y310000D01*
X364980D01*
X363480Y311500D01*
Y316660D01*
G01X356000Y307000D02*
X368500D01*
X370000Y305500D01*
Y304000D01*
G01X372000Y326000D02*
X376000D01*
G01X358480Y316660D02*
Y322480D01*
X360500Y324500D01*
G01X372000Y330000D02*
X376000D01*
G01X356000Y352000D02*
Y348500D01*
X357500Y347000D01*
X362020D01*
X363520Y345500D01*
Y339340D01*
G01X372000Y330000D02*
Y350500D01*
X370500Y352000D01*
X368000D01*
G01X362000D02*
X368000D01*
G01X356000D02*
X362000D01*
G01X368000Y356000D02*
Y359000D01*
G01X362000Y356000D02*
Y359000D01*
G01X386000Y300000D02*
Y296500D01*
G01X382000Y304000D02*
X378000D01*
G01X386000D02*
X382000D01*
G01Y300000D02*
Y296500D01*
G01X376000Y326000D02*
Y322500D01*
G54D47*
X233480Y316660D03*
X228480D03*
Y339340D03*
X233480D03*
X243480Y316660D03*
X238480D03*
X238520Y339340D03*
X243520D03*
X293480Y316660D03*
X288480D03*
Y339340D03*
X293480D03*
X303480Y316660D03*
X298480D03*
X298520Y339340D03*
X303520D03*
X353480Y316660D03*
X348480D03*
Y339340D03*
X353480D03*
X363480Y316660D03*
X358480D03*
X358520Y339340D03*
X363520D03*
G54D29*
X65559Y119685D03*
X126189Y180315D03*
G54D38*
X164866Y158000D03*
X173134Y154260D03*
Y161740D03*
G54D39*
X195000Y344000D03*
Y353500D03*
X207000Y191500D03*
X196000D03*
X206000Y344000D03*
Y353500D03*
G54D48*
X236000Y328000D03*
X296000D03*
X356000D03*
G54D49*
X229532Y377555D03*
X253154D03*
M02*
